<svg width="882.000000" height="278.000000" viewBox="0 0 882 278" fill="none" xmlns="http://www.w3.org/2000/svg" xmlns:xlink="http://www.w3.org/1999/xlink">
	<desc>
			Created with Pixso.
	</desc>
	<defs/>
	<rect id="Frame 39626" rx="9.500000" width="140.000000" height="41.000000" transform="translate(370.500000 0.500000)" fill="#FBC101" fill-opacity="1.000000"/>
	<path id="Gromadyanstvo.com.ua піклується про безпеку та збереження даних користувача" d="M398.88 27L391.43 27L391.43 15.36L393.89 15.36L393.89 24.97L398.88 24.97L398.88 27ZM466.66 27L461.69 27L461.69 15.36L466.35 15.36C468.91 15.36 470.21 16.6 470.21 18.34C470.21 19.71 469.32 20.57 468.11 20.84L468.11 20.96C469.43 21.02 470.66 22.06 470.66 23.78C470.66 25.63 469.27 27 466.66 27ZM464.15 17.35L464.15 20.23L465.97 20.23C466.98 20.23 467.73 19.67 467.73 18.75C467.73 17.91 467.11 17.35 466.01 17.35L464.15 17.35ZM453.81 27L451.39 27L451.39 18.27L453.74 18.27L453.74 19.79L453.83 19.79C454.15 18.71 454.95 18.14 455.92 18.14C456.17 18.14 456.47 18.18 456.69 18.23L456.69 20.37C456.46 20.3 456 20.25 455.66 20.25C454.6 20.25 453.81 20.98 453.81 22.06L453.81 27ZM408.4 24.5C408.06 26.12 406.6 27.17 404.44 27.17C401.75 27.17 400.11 25.44 400.11 22.67C400.11 19.98 401.78 18.16 404.35 18.16C406.65 18.16 408.45 19.62 408.45 22.58L408.45 23.25L402.5 23.25L402.5 23.26C402.5 24.56 403.27 25.36 404.48 25.36C405.29 25.36 405.91 25.01 406.16 24.35L408.4 24.5ZM415.06 25.78C414.64 26.6 413.81 27.16 412.51 27.16C410.85 27.16 409.62 26.28 409.62 24.56C409.62 22.61 411.17 22.03 412.9 21.87C414.41 21.72 415.01 21.65 415.01 21.08L415.01 21.05C415.01 20.33 414.54 19.92 413.71 19.92C412.85 19.92 412.33 20.35 412.16 20.93L409.92 20.75C410.26 19.16 411.64 18.16 413.72 18.16C415.67 18.16 417.43 19.03 417.43 21.11L417.43 27L415.14 27L415.14 25.78L415.06 25.78ZM422.86 18.16C425.06 18.16 426.36 19.15 426.57 20.76L424.36 20.89C424.24 20.33 423.74 19.87 422.9 19.87C422.15 19.87 421.56 20.21 421.56 20.73C421.56 21.16 421.86 21.43 422.67 21.61L424.25 21.93C425.94 22.27 426.77 23.03 426.77 24.29C426.77 26.01 425.15 27.17 422.88 27.17C420.57 27.17 419.15 26.14 418.92 24.47L421.31 24.34C421.45 25.05 422.03 25.42 422.89 25.42C423.74 25.42 424.3 25.05 424.31 24.53C424.3 24.1 423.95 23.82 423.19 23.67L421.68 23.37C419.97 23.02 419.15 22.18 419.16 20.87C419.15 19.19 420.62 18.16 422.86 18.16ZM436.23 24.5C435.89 26.12 434.44 27.17 432.27 27.17C429.59 27.17 427.95 25.44 427.95 22.67C427.95 19.98 429.61 18.16 432.18 18.16C434.49 18.16 436.28 19.62 436.28 22.58L436.28 23.25L430.34 23.25L430.34 23.26C430.34 24.56 431.11 25.36 432.32 25.36C433.12 25.36 433.75 25.01 433.99 24.35L436.23 24.5ZM449.81 22.67C449.81 25.35 448.16 27.17 445.52 27.17C442.87 27.17 441.22 25.35 441.22 22.67C441.22 19.96 442.87 18.16 445.52 18.16C448.16 18.16 449.81 19.96 449.81 22.67ZM476.15 25.06C477.01 25.06 477.81 24.45 477.81 23.28L477.81 18.27L480.23 18.27L480.23 27L477.91 27L477.91 25.41L477.81 25.41C477.42 26.43 476.48 27.11 475.17 27.11C473.41 27.11 472.22 25.87 472.21 23.82L472.21 18.27L474.64 18.27L474.64 23.39C474.64 24.42 475.23 25.06 476.15 25.06ZM486.91 27.94C486.41 29.35 485.46 30.27 483.66 30.27C483.04 30.27 482.48 30.17 482.13 30.02L482.68 28.21C483.53 28.47 484.14 28.43 484.46 27.62L484.6 27.25L481.47 18.27L484.01 18.27L485.82 24.68L485.91 24.68L487.74 18.27L490.3 18.27L486.91 27.94ZM404.39 19.96C403.31 19.96 402.56 20.76 402.5 21.75L406.17 21.75C406.16 20.71 405.44 19.96 404.39 19.96ZM432.22 19.96C431.15 19.96 430.39 20.76 430.34 21.75L434.01 21.75C434 20.71 433.27 19.96 432.22 19.96ZM443.68 22.65C443.68 24.17 444.31 25.29 445.53 25.29C446.73 25.29 447.35 24.17 447.35 22.65C447.35 21.12 446.73 20 445.53 20C444.31 20 443.68 21.12 443.68 22.65ZM464.15 21.89L464.15 24.98L466.15 24.98C467.53 24.98 468.12 24.41 468.12 23.53C468.12 22.57 467.39 21.89 466.21 21.89L464.15 21.89ZM411.93 24.48C411.93 25.14 412.46 25.49 413.21 25.49C414.27 25.49 415.03 24.79 415.03 23.87L415.03 22.95C414.74 23.14 413.87 23.27 413.35 23.34C412.49 23.46 411.93 23.8 411.93 24.48Z" fill="#191B1E" fill-opacity="1.000000" fill-rule="evenodd"/>
	<rect id="Frame 39636" rx="9.500000" width="119.000000" height="53.000000" transform="translate(0.500000 100.500000)" fill="#FBC101" fill-opacity="1.000000"/>
	<path id="Gromadyanstvo.com.ua піклується про безпеку та збереження даних користувача" d="M32.44 123L32.44 112.81L33.91 112.81L37.38 121.27L37.5 121.27L40.95 112.81L42.42 112.81L42.42 123L41.27 123L41.27 115.26L41.17 115.26L37.99 123L36.88 123L33.69 115.26L33.6 115.26L33.6 123L32.44 123ZM69.71 116.31C68.55 116.31 67.7 117.07 67.7 118.4L67.7 123L66.53 123L66.53 112.81L67.7 112.81L67.7 116.55L67.8 116.55C68.16 115.76 68.84 115.26 70.05 115.26C71.61 115.26 72.65 116.18 72.65 118.14L72.65 123L71.48 123L71.48 118.22C71.48 117.01 70.81 116.31 69.71 116.31ZM74.8 112.81L75.97 112.81L75.97 123L74.8 123L74.8 112.81ZM62.97 115.36L64.6 115.36L64.6 116.35L62.97 116.35L62.97 120.81C62.97 121.8 63.46 121.96 63.98 121.96C64.24 121.96 64.4 121.92 64.5 121.9L64.74 122.95C64.58 123.02 64.3 123.09 63.86 123.09C62.87 123.09 61.79 122.46 61.79 121.13L61.79 116.35L60.64 116.35L60.64 115.36L61.79 115.36L61.79 113.53L62.97 113.53L62.97 115.36ZM51.29 119.22C51.29 121.58 49.9 123.16 47.84 123.16C45.77 123.16 44.37 121.58 44.37 119.22C44.37 116.83 45.77 115.26 47.84 115.26C49.9 115.26 51.29 116.83 51.29 119.22ZM56.21 116.31C55.08 116.31 54.26 117.07 54.26 118.4L54.26 123L53.08 123L53.08 115.36L54.22 115.36L54.22 116.55L54.32 116.55C54.68 115.78 55.39 115.26 56.55 115.26C58.09 115.26 59.13 116.19 59.13 118.14L59.13 123L57.96 123L57.96 118.22C57.96 117.02 57.29 116.31 56.21 116.31ZM81.13 124.11C80.68 125.3 79.94 125.86 78.88 125.86C78.48 125.86 78.14 125.78 78.02 125.72L78.32 124.69C79.18 124.91 79.7 124.8 80.13 123.63L80.35 123.04L77.53 115.36L78.8 115.36L80.91 121.44L80.99 121.44L83.09 115.36L84.37 115.36L81.13 124.11ZM45.55 119.22C45.55 120.75 46.26 122.1 47.84 122.1C49.4 122.1 50.12 120.75 50.12 119.22C50.12 117.69 49.4 116.31 47.84 116.31C46.26 116.31 45.55 117.69 45.55 119.22ZM33.5 140L32.27 140L32.27 129.81L35.71 129.81C38.11 129.81 39.18 131.24 39.18 133.04C39.18 134.83 38.11 136.28 35.73 136.28L33.5 136.28L33.5 140ZM86.62 132.36L88.25 132.36L88.25 133.35L86.62 133.35L86.62 137.81C86.62 138.8 87.12 138.96 87.64 138.96C87.9 138.96 88.06 138.92 88.16 138.9L88.39 139.95C88.23 140.02 87.96 140.09 87.52 140.09C86.52 140.09 85.45 139.46 85.45 138.13L85.45 133.35L84.3 133.35L84.3 132.36L85.45 132.36L85.45 130.53L86.62 130.53L86.62 132.36ZM33.5 130.91L33.5 135.18L35.69 135.18C37.33 135.18 37.96 134.26 37.96 133.04C37.96 131.81 37.33 130.91 35.68 130.91L33.5 130.91ZM45.52 138.96C45.28 139.46 44.58 140.17 43.25 140.17C41.8 140.17 40.64 139.32 40.64 137.83C40.64 136.08 42.19 135.76 43.61 135.58C45 135.4 45.58 135.45 45.58 134.89L45.58 134.84C45.58 133.87 45.05 133.29 43.97 133.29C42.85 133.29 42.24 133.89 41.98 134.45L40.86 134.05C41.46 132.66 42.77 132.26 43.93 132.26C44.9 132.26 46.75 132.54 46.75 134.96L46.75 140L45.58 140L45.58 138.96L45.52 138.96ZM57.59 140L56.41 140L56.41 132.36L57.55 132.36L57.55 133.55L57.65 133.55C57.97 132.74 58.7 132.26 59.7 132.26C60.7 132.26 61.37 132.74 61.74 133.55L61.83 133.55C62.22 132.76 63.02 132.26 64.11 132.26C65.47 132.26 66.44 133.09 66.44 134.89L66.44 140L65.26 140L65.26 134.89C65.26 133.76 64.55 133.31 63.71 133.31C62.64 133.31 62.02 134.04 62.02 135.02L62.02 140L60.83 140L60.83 134.77C60.83 133.89 60.21 133.31 59.32 133.31C58.4 133.31 57.59 134.1 57.59 135.22L57.59 140ZM74.83 138.22C74.47 139.38 73.34 140.16 71.79 140.16C69.58 140.16 68.23 138.58 68.23 136.24C68.23 133.89 69.6 132.26 71.67 132.26C73.26 132.26 74.95 133.23 74.95 136.08L74.95 136.57L69.41 136.57C69.46 138.21 70.41 139.1 71.79 139.1C72.71 139.1 73.4 138.7 73.7 137.91L74.83 138.22ZM79.86 133.31C78.74 133.31 77.91 134.07 77.91 135.4L77.91 140L76.74 140L76.74 132.36L77.87 132.36L77.87 133.55L77.97 133.55C78.33 132.78 79.05 132.26 80.2 132.26C81.75 132.26 82.79 133.19 82.79 135.14L82.79 140L81.61 140L81.61 135.22C81.61 134.02 80.95 133.31 79.86 133.31ZM51.62 141.11C51.18 142.3 50.43 142.86 49.37 142.86C48.98 142.86 48.64 142.78 48.52 142.72L48.82 141.69C49.68 141.91 50.2 141.8 50.63 140.63L50.85 140.04L48.02 132.36L49.3 132.36L51.41 138.44L51.48 138.44L53.59 132.36L54.86 132.36L51.62 141.11ZM71.67 133.31C70.33 133.31 69.48 134.37 69.41 135.56L73.76 135.56C73.76 134.27 72.94 133.31 71.67 133.31ZM41.82 137.89C41.82 138.7 42.5 139.12 43.43 139.12C44.82 139.12 45.58 138.19 45.58 137.23L45.58 136.16C45.38 136.4 44.04 136.54 43.55 136.59C42.63 136.71 41.82 136.99 41.82 137.89Z" fill="#191B1E" fill-opacity="1.000000" fill-rule="evenodd"/>
	<rect id="Frame 39637" rx="9.500000" width="119.000000" height="53.000000" transform="translate(127.500000 100.500000)" fill="#FBC101" fill-opacity="1.000000"/>
	<path id="Gromadyanstvo.com.ua піклується про безпеку та збереження даних користувача" d="M211.2 113.29C211.2 113.73 210.82 114.08 210.36 114.08C209.9 114.08 209.53 113.73 209.53 113.29C209.53 112.85 209.9 112.5 210.36 112.5C210.82 112.5 211.2 112.85 211.2 113.29ZM154.84 112.67C157.44 112.67 159.33 114.68 159.33 117.91C159.33 121.13 157.44 123.14 154.84 123.14C152.23 123.14 150.34 121.13 150.34 117.91C150.34 114.68 152.23 112.67 154.84 112.67ZM204.67 116.31C203.52 116.31 202.66 117.07 202.66 118.4L202.66 123L201.49 123L201.49 112.81L202.66 112.81L202.66 116.55L202.77 116.55C203.12 115.76 203.81 115.26 205.01 115.26C206.57 115.26 207.62 116.18 207.62 118.14L207.62 123L206.44 123L206.44 118.22C206.44 117.01 205.78 116.31 204.67 116.31ZM154.84 121.98C156.69 121.98 158.14 120.55 158.14 117.91C158.14 115.26 156.69 113.83 154.84 113.83C152.99 113.83 151.54 115.26 151.54 117.91C151.54 120.55 152.99 121.98 154.84 121.98ZM190.14 123L188.96 123L188.96 115.36L190.1 115.36L190.1 116.51L190.18 116.51C190.46 115.76 191.25 115.24 192.17 115.24C192.34 115.24 192.65 115.25 192.78 115.26L192.78 116.45C192.7 116.43 192.38 116.37 192.07 116.37C190.95 116.37 190.14 117.13 190.14 118.16L190.14 123ZM175.74 116.31C174.62 116.31 173.79 117.07 173.79 118.4L173.79 123L172.62 123L172.62 115.36L173.75 115.36L173.75 116.55L173.85 116.55C174.21 115.78 174.92 115.26 176.08 115.26C177.62 115.26 178.66 116.19 178.66 118.14L178.66 123L177.49 123L177.49 118.22C177.49 117.02 176.83 116.31 175.74 116.31ZM187.05 121.22C186.7 122.38 185.56 123.16 184.01 123.16C181.8 123.16 180.45 121.58 180.45 119.24C180.45 116.89 181.83 115.26 183.89 115.26C185.48 115.26 187.17 116.23 187.17 119.08L187.17 119.57L181.63 119.57C181.69 121.21 182.64 122.1 184.01 122.1C184.93 122.1 185.62 121.7 185.92 120.91L187.05 121.22ZM196.88 115.26C198.39 115.26 199.22 115.99 199.58 117.07L198.53 117.37C198.33 116.84 197.9 116.27 196.88 116.27C195.94 116.27 195.25 116.75 195.25 117.41C195.25 118 195.66 118.3 196.56 118.52L197.69 118.8C199.06 119.13 199.72 119.8 199.72 120.87C199.72 122.19 198.51 123.16 196.74 123.16C195.18 123.16 194.11 122.46 193.84 121.17L194.95 120.89C195.16 121.71 195.76 122.12 196.72 122.12C197.81 122.12 198.51 121.58 198.51 120.93C198.51 120.4 198.15 120.03 197.38 119.85L196.11 119.55C194.7 119.23 194.07 118.52 194.07 117.47C194.07 116.17 195.27 115.26 196.88 115.26ZM214.26 125.86L213.09 125.86L213.09 115.36L214.22 115.36L214.22 116.57L214.36 116.57C214.62 116.17 215.08 115.26 216.57 115.26C218.5 115.26 219.83 116.79 219.83 119.2C219.83 121.62 218.5 123.16 216.59 123.16C215.12 123.16 214.62 122.24 214.36 121.82L214.26 121.82L214.26 125.86ZM164.13 123L162.97 123L160.65 115.36L161.88 115.36L163.53 121.2L163.61 121.2L165.24 115.36L166.49 115.36L168.1 121.19L168.18 121.19L169.83 115.36L171.07 115.36L168.74 123L167.59 123L165.91 117.13L165.8 117.13L164.13 123ZM210.94 123L209.76 123L209.76 115.36L210.94 115.36L210.94 123ZM183.89 116.31C182.55 116.31 181.71 117.37 181.63 118.56L185.98 118.56C185.98 117.27 185.16 116.31 183.89 116.31ZM216.43 116.31C215 116.31 214.24 117.47 214.24 119.18C214.24 120.91 215.02 122.1 216.43 122.1C217.9 122.1 218.65 120.81 218.65 119.18C218.65 117.57 217.92 116.31 216.43 116.31ZM174.17 130.91L170.97 130.91L170.97 129.81L178.6 129.81L178.6 130.91L175.4 130.91L175.4 140L174.17 140L174.17 130.91ZM188.56 140L187.39 140L187.39 132.36L188.53 132.36L188.53 133.51L188.61 133.51C188.89 132.76 189.68 132.24 190.6 132.24C190.77 132.24 191.08 132.25 191.21 132.26L191.21 133.45C191.13 133.43 190.81 133.37 190.5 133.37C189.38 133.37 188.56 134.13 188.56 135.16L188.56 140ZM185.48 138.22C185.12 139.38 183.99 140.16 182.44 140.16C180.23 140.16 178.88 138.58 178.88 136.24C178.88 133.89 180.25 132.26 182.32 132.26C183.91 132.26 185.6 133.23 185.6 136.08L185.6 136.57L180.06 136.57C180.11 138.21 181.06 139.1 182.44 139.1C183.36 139.1 184.05 138.7 184.35 137.91L185.48 138.22ZM193.78 140L192.6 140L192.6 132.36L193.74 132.36L193.74 133.55L193.84 133.55C194.15 132.74 194.89 132.26 195.88 132.26C196.89 132.26 197.56 132.74 197.93 133.55L198.01 133.55C198.41 132.76 199.21 132.26 200.3 132.26C201.66 132.26 202.63 133.09 202.63 134.89L202.63 140L201.45 140L201.45 134.89C201.45 133.76 200.74 133.31 199.9 133.31C198.83 133.31 198.21 134.04 198.21 135.02L198.21 140L197.02 140L197.02 134.77C197.02 133.89 196.4 133.31 195.51 133.31C194.59 133.31 193.78 134.1 193.78 135.22L193.78 140ZM182.32 133.31C180.98 133.31 180.14 134.37 180.06 135.56L184.41 135.56C184.41 134.27 183.59 133.31 182.32 133.31Z" fill="#191B1E" fill-opacity="1.000000" fill-rule="evenodd"/>
	<rect id="Frame 39638" rx="9.500000" width="119.000000" height="53.000000" transform="translate(254.500000 100.500000)" fill="#FBC101" fill-opacity="1.000000"/>
	<path id="Gromadyanstvo.com.ua піклується про безпеку та збереження даних користувача" d="M352.12 115.36L353.83 115.36L353.83 116.35L352.12 116.35L352.12 123L350.94 123L350.94 116.35L349.71 116.35L349.71 115.36L350.94 115.36L350.94 114.3C350.94 112.99 352 112.33 353.09 112.33C353.67 112.33 354.03 112.45 354.21 112.54L353.87 113.55C353.75 113.51 353.55 113.43 353.21 113.43C352.44 113.43 352.12 113.83 352.12 114.58L352.12 115.36ZM311.45 112.67C313.5 112.67 315.17 113.91 315.55 116L314.31 116C314.02 114.58 312.8 113.83 311.45 113.83C309.6 113.83 308.15 115.26 308.15 117.91C308.15 120.55 309.6 121.98 311.45 121.98C312.8 121.98 314.02 121.22 314.31 119.81L315.55 119.81C315.17 121.9 313.5 123.14 311.45 123.14C308.84 123.14 306.95 121.13 306.95 117.91C306.95 114.68 308.84 112.67 311.45 112.67ZM273.53 113.91L270.32 113.91L270.32 112.81L277.96 112.81L277.96 113.91L274.76 113.91L274.76 123L273.53 123L273.53 113.91ZM299.94 112.81L301.11 112.81L301.11 123L299.94 123L299.94 112.81ZM288.64 115.36L290.27 115.36L290.27 116.35L288.64 116.35L288.64 120.81C288.64 121.8 289.14 121.96 289.65 121.96C289.91 121.96 290.07 121.92 290.17 121.9L290.41 122.95C290.25 123.02 289.97 123.09 289.54 123.09C288.54 123.09 287.47 122.46 287.47 121.13L287.47 116.35L286.31 116.35L286.31 115.36L287.47 115.36L287.47 113.53L288.64 113.53L288.64 115.36ZM334.74 115.36L336.37 115.36L336.37 116.35L334.74 116.35L334.74 120.81C334.74 121.8 335.23 121.96 335.75 121.96C336.01 121.96 336.17 121.92 336.27 121.9L336.51 122.95C336.35 123.02 336.07 123.09 335.63 123.09C334.64 123.09 333.56 122.46 333.56 121.13L333.56 116.35L332.41 116.35L332.41 115.36L333.56 115.36L333.56 113.53L334.74 113.53L334.74 115.36ZM285.16 119.22C285.16 121.58 283.77 123.16 281.7 123.16C279.63 123.16 278.24 121.58 278.24 119.22C278.24 116.83 279.63 115.26 281.7 115.26C283.77 115.26 285.16 116.83 285.16 119.22ZM296.56 121.96C296.32 122.46 295.62 123.17 294.29 123.17C292.84 123.17 291.68 122.32 291.68 120.83C291.68 119.08 293.23 118.76 294.64 118.58C296.04 118.4 296.61 118.45 296.61 117.89L296.61 117.84C296.61 116.87 296.08 116.29 295 116.29C293.89 116.29 293.27 116.89 293.01 117.45L291.9 117.05C292.5 115.66 293.81 115.26 294.96 115.26C295.94 115.26 297.79 115.54 297.79 117.96L297.79 123L296.61 123L296.61 121.96L296.56 121.96ZM323.94 119.22C323.94 121.58 322.55 123.16 320.48 123.16C318.41 123.16 317.02 121.58 317.02 119.22C317.02 116.83 318.41 115.26 320.48 115.26C322.55 115.26 323.94 116.83 323.94 119.22ZM328.43 115.26C329.95 115.26 330.77 115.99 331.14 117.07L330.08 117.37C329.88 116.84 329.46 116.27 328.43 116.27C327.5 116.27 326.8 116.75 326.8 117.41C326.8 118 327.21 118.3 328.11 118.52L329.25 118.8C330.61 119.13 331.28 119.8 331.28 120.87C331.28 122.19 330.07 123.16 328.29 123.16C326.73 123.16 325.66 122.46 325.39 121.17L326.5 120.89C326.71 121.71 327.31 122.12 328.27 122.12C329.37 122.12 330.07 121.58 330.07 120.93C330.07 120.4 329.7 120.03 328.93 119.85L327.66 119.55C326.25 119.23 325.63 118.52 325.63 117.47C325.63 116.17 326.82 115.26 328.43 115.26ZM348.64 119.22C348.64 121.58 347.25 123.16 345.18 123.16C343.11 123.16 341.72 121.58 341.72 119.22C341.72 116.83 343.11 115.26 345.18 115.26C347.25 115.26 348.64 116.83 348.64 119.22ZM279.41 119.22C279.41 120.75 280.13 122.1 281.7 122.1C283.27 122.1 283.99 120.75 283.99 119.22C283.99 117.69 283.27 116.31 281.7 116.31C280.13 116.31 279.41 117.69 279.41 119.22ZM318.19 119.22C318.19 120.75 318.91 122.1 320.48 122.1C322.05 122.1 322.76 120.75 322.76 119.22C322.76 117.69 322.05 116.31 320.48 116.31C318.91 116.31 318.19 117.69 318.19 119.22ZM342.89 119.22C342.89 120.75 343.61 122.1 345.18 122.1C346.75 122.1 347.46 120.75 347.46 119.22C347.46 117.69 346.75 116.31 345.18 116.31C343.61 116.31 342.89 117.69 342.89 119.22ZM292.86 120.89C292.86 121.7 293.53 122.12 294.47 122.12C295.86 122.12 296.61 121.19 296.61 120.23L296.61 119.16C296.42 119.4 295.08 119.54 294.59 119.59C293.67 119.71 292.86 119.99 292.86 120.89ZM340.17 130.29C340.17 130.73 339.79 131.08 339.33 131.08C338.87 131.08 338.49 130.73 338.49 130.29C338.49 129.85 338.87 129.5 339.33 129.5C339.79 129.5 340.17 129.85 340.17 130.29ZM283.81 129.67C286.41 129.67 288.3 131.68 288.3 134.91C288.3 138.13 286.41 140.14 283.81 140.14C281.2 140.14 279.31 138.13 279.31 134.91C279.31 131.68 281.2 129.67 283.81 129.67ZM333.64 133.31C332.48 133.31 331.63 134.07 331.63 135.4L331.63 140L330.46 140L330.46 129.81L331.63 129.81L331.63 133.55L331.74 133.55C332.09 132.76 332.78 132.26 333.98 132.26C335.54 132.26 336.59 133.18 336.59 135.14L336.59 140L335.41 140L335.41 135.22C335.41 134.01 334.75 133.31 333.64 133.31ZM283.81 138.98C285.66 138.98 287.11 137.55 287.11 134.91C287.11 132.26 285.66 130.83 283.81 130.83C281.96 130.83 280.51 132.26 280.51 134.91C280.51 137.55 281.96 138.98 283.81 138.98ZM319.1 140L317.93 140L317.93 132.36L319.07 132.36L319.07 133.51L319.15 133.51C319.43 132.76 320.22 132.24 321.14 132.24C321.31 132.24 321.62 132.25 321.75 132.26L321.75 133.45C321.67 133.43 321.35 133.37 321.04 133.37C319.92 133.37 319.1 134.13 319.1 135.16L319.1 140ZM304.71 133.31C303.59 133.31 302.76 134.07 302.76 135.4L302.76 140L301.59 140L301.59 132.36L302.72 132.36L302.72 133.55L302.82 133.55C303.18 132.78 303.89 132.26 305.05 132.26C306.59 132.26 307.63 133.19 307.63 135.14L307.63 140L306.46 140L306.46 135.22C306.46 134.02 305.8 133.31 304.71 133.31ZM316.02 138.22C315.66 139.38 314.53 140.16 312.98 140.16C310.77 140.16 309.42 138.58 309.42 136.24C309.42 133.89 310.79 132.26 312.86 132.26C314.45 132.26 316.14 133.23 316.14 136.08L316.14 136.57L310.6 136.57C310.65 138.21 311.6 139.1 312.98 139.1C313.9 139.1 314.59 138.7 314.89 137.91L316.02 138.22ZM325.85 132.26C327.36 132.26 328.18 132.99 328.55 134.07L327.5 134.37C327.29 133.84 326.87 133.27 325.85 133.27C324.91 133.27 324.22 133.75 324.22 134.41C324.22 135 324.63 135.3 325.53 135.52L326.66 135.8C328.03 136.13 328.69 136.8 328.69 137.87C328.69 139.19 327.48 140.16 325.71 140.16C324.15 140.16 323.08 139.46 322.8 138.17L323.92 137.89C324.13 138.71 324.73 139.12 325.69 139.12C326.78 139.12 327.48 138.58 327.48 137.93C327.48 137.4 327.11 137.03 326.35 136.85L325.07 136.55C323.67 136.23 323.04 135.52 323.04 134.47C323.04 133.17 324.24 132.26 325.85 132.26ZM343.23 142.86L342.05 142.86L342.05 132.36L343.19 132.36L343.19 133.57L343.33 133.57C343.59 133.17 344.04 132.26 345.53 132.26C347.47 132.26 348.8 133.79 348.8 136.2C348.8 138.62 347.47 140.16 345.55 140.16C344.08 140.16 343.59 139.24 343.33 138.82L343.23 138.82L343.23 142.86ZM293.1 140L291.94 140L289.62 132.36L290.85 132.36L292.5 138.2L292.58 138.2L294.21 132.36L295.46 132.36L297.07 138.19L297.15 138.19L298.8 132.36L300.03 132.36L297.71 140L296.55 140L294.88 134.13L294.77 134.13L293.1 140ZM339.91 140L338.73 140L338.73 132.36L339.91 132.36L339.91 140ZM312.86 133.31C311.52 133.31 310.68 134.37 310.6 135.56L314.95 135.56C314.95 134.27 314.13 133.31 312.86 133.31ZM345.4 133.31C343.97 133.31 343.21 134.47 343.21 136.18C343.21 137.91 343.99 139.1 345.4 139.1C346.87 139.1 347.62 137.81 347.62 136.18C347.62 134.57 346.89 133.31 345.4 133.31Z" fill="#191B1E" fill-opacity="1.000000" fill-rule="evenodd"/>
	<rect id="Frame 39643" rx="9.500000" width="119.000000" height="63.000000" transform="translate(318.500000 214.500000)" fill="#FBC101" fill-opacity="1.000000"/>
	<path id="Gromadyanstvo.com.ua піклується про безпеку та збереження даних користувача" d="M363.22 241L355.77 241L355.77 229.36L358.23 229.36L358.23 238.97L363.22 238.97L363.22 241ZM372.73 238.5C372.4 240.12 370.94 241.17 368.78 241.17C366.09 241.17 364.45 239.44 364.45 236.67C364.45 233.98 366.11 232.16 368.68 232.16C370.99 232.16 372.79 233.62 372.79 236.59L372.79 237.25L366.84 237.25L366.84 237.26C366.84 238.56 367.61 239.36 368.82 239.36C369.63 239.36 370.25 239.01 370.5 238.35L372.73 238.5ZM379.4 239.78C378.98 240.6 378.15 241.16 376.85 241.16C375.19 241.16 373.96 240.28 373.96 238.56C373.96 236.61 375.51 236.03 377.23 235.87C378.75 235.72 379.35 235.65 379.35 235.09L379.35 235.05C379.35 234.34 378.88 233.92 378.05 233.92C377.18 233.92 376.66 234.35 376.5 234.93L374.26 234.75C374.6 233.16 375.97 232.16 378.06 232.16C380.01 232.16 381.77 233.03 381.77 235.11L381.77 241L379.47 241L379.47 239.78L379.4 239.78ZM387.19 232.16C389.4 232.16 390.69 233.15 390.91 234.76L388.69 234.89C388.57 234.33 388.07 233.87 387.23 233.87C386.48 233.87 385.89 234.21 385.9 234.73C385.89 235.16 386.19 235.43 387.01 235.61L388.59 235.93C390.28 236.27 391.1 237.03 391.11 238.29C391.1 240.01 389.48 241.17 387.22 241.17C384.91 241.17 383.49 240.14 383.26 238.47L385.64 238.34C385.79 239.05 386.37 239.42 387.23 239.42C388.07 239.42 388.64 239.05 388.65 238.53C388.64 238.1 388.29 237.82 387.53 237.67L386.02 237.37C384.31 237.02 383.49 236.18 383.5 234.87C383.49 233.19 384.96 232.16 387.19 232.16ZM400.57 238.5C400.23 240.12 398.77 241.17 396.61 241.17C393.93 241.17 392.28 239.44 392.28 236.67C392.28 233.98 393.95 232.16 396.52 232.16C398.82 232.16 400.62 233.62 400.62 236.59L400.62 237.25L394.68 237.25L394.68 237.26C394.68 238.56 395.45 239.36 396.66 239.36C397.46 239.36 398.09 239.01 398.33 238.35L400.57 238.5ZM368.72 233.96C367.65 233.96 366.9 234.76 366.84 235.75L370.51 235.75C370.5 234.71 369.77 233.96 368.72 233.96ZM396.56 233.96C395.48 233.96 394.73 234.76 394.68 235.75L398.34 235.75C398.34 234.71 397.61 233.96 396.56 233.96ZM376.27 238.48C376.27 239.14 376.8 239.49 377.55 239.49C378.61 239.49 379.36 238.79 379.36 237.87L379.36 236.95C379.07 237.14 378.21 237.27 377.68 237.34C376.83 237.46 376.27 237.8 376.27 238.48Z" fill="#191B1E" fill-opacity="1.000000" fill-rule="evenodd"/>
	<rect id="Frame 39639" rx="9.500000" width="119.000000" height="53.000000" transform="translate(381.500000 100.500000)" fill="#FBC101" fill-opacity="1.000000"/>
	<path id="Gromadyanstvo.com.ua піклується про безпеку та збереження даних користувача" d="M420.66 113.29C420.66 113.73 420.29 114.08 419.83 114.08C419.37 114.08 418.99 113.73 418.99 113.29C418.99 112.85 419.37 112.5 419.83 112.5C420.29 112.5 420.66 112.85 420.66 113.29ZM456.08 113.29C456.08 113.73 455.7 114.08 455.25 114.08C454.79 114.08 454.41 113.73 454.41 113.29C454.41 112.85 454.79 112.5 455.25 112.5C455.7 112.5 456.08 112.85 456.08 113.29ZM412.41 123L411.18 123L411.18 112.81L417.28 112.81L417.28 113.91L412.41 113.91L412.41 117.35L416.82 117.35L416.82 118.44L412.41 118.44L412.41 123ZM465.86 112.81L467.04 112.81L467.04 123L465.86 123L465.86 112.81ZM425.67 116.31C424.55 116.31 423.72 117.07 423.72 118.4L423.72 123L422.55 123L422.55 115.36L423.69 115.36L423.69 116.55L423.78 116.55C424.14 115.78 424.86 115.26 426.01 115.26C427.56 115.26 428.6 116.19 428.6 118.14L428.6 123L427.42 123L427.42 118.22C427.42 117.02 426.76 116.31 425.67 116.31ZM435.26 121.96C435.02 122.46 434.32 123.17 432.99 123.17C431.54 123.17 430.38 122.32 430.38 120.83C430.38 119.08 431.93 118.76 433.35 118.58C434.74 118.4 435.32 118.45 435.32 117.89L435.32 117.84C435.32 116.87 434.79 116.29 433.71 116.29C432.59 116.29 431.98 116.89 431.72 117.45L430.6 117.05C431.2 115.66 432.51 115.26 433.67 115.26C434.64 115.26 436.49 115.54 436.49 117.96L436.49 123L435.32 123L435.32 121.96L435.26 121.96ZM441.76 116.31C440.64 116.31 439.81 117.07 439.81 118.4L439.81 123L438.64 123L438.64 115.36L439.77 115.36L439.77 116.55L439.87 116.55C440.23 115.78 440.95 115.26 442.1 115.26C443.65 115.26 444.68 116.19 444.68 118.14L444.68 123L443.51 123L443.51 118.22C443.51 117.02 442.85 116.31 441.76 116.31ZM452.94 120.77C452.74 122.12 451.62 123.16 449.94 123.16C447.79 123.16 446.47 121.51 446.47 119.22C446.47 116.89 447.85 115.26 449.91 115.26C451.52 115.26 452.74 116.21 452.94 117.65L451.76 117.65C451.59 116.95 450.97 116.31 449.94 116.31C448.56 116.31 447.65 117.45 447.65 119.18C447.65 120.95 448.54 122.1 449.94 122.1C450.85 122.1 451.54 121.6 451.76 120.77L452.94 120.77ZM462.48 121.96C462.24 122.46 461.55 123.17 460.22 123.17C458.76 123.17 457.61 122.32 457.61 120.83C457.61 119.08 459.16 118.76 460.57 118.58C461.97 118.4 462.54 118.45 462.54 117.89L462.54 117.84C462.54 116.87 462.01 116.29 460.93 116.29C459.81 116.29 459.2 116.89 458.94 117.45L457.83 117.05C458.43 115.66 459.74 115.26 460.89 115.26C461.87 115.26 463.72 115.54 463.72 117.96L463.72 123L462.54 123L462.54 121.96L462.48 121.96ZM420.4 123L419.23 123L419.23 115.36L420.4 115.36L420.4 123ZM455.82 123L454.65 123L454.65 115.36L455.82 115.36L455.82 123ZM431.56 120.89C431.56 121.7 432.24 122.12 433.17 122.12C434.56 122.12 435.32 121.19 435.32 120.23L435.32 119.16C435.12 119.4 433.79 119.54 433.29 119.59C432.37 119.71 431.56 119.99 431.56 120.89ZM458.78 120.89C458.78 121.7 459.46 122.12 460.39 122.12C461.79 122.12 462.54 121.19 462.54 120.23L462.54 119.16C462.34 119.4 461.01 119.54 460.51 119.59C459.6 119.71 458.78 119.99 458.78 120.89ZM439.59 130.29C439.59 130.73 439.22 131.08 438.76 131.08C438.3 131.08 437.92 130.73 437.92 130.29C437.92 129.85 438.3 129.5 438.76 129.5C439.22 129.5 439.59 129.85 439.59 130.29ZM451.6 130.29C451.6 130.73 451.23 131.08 450.77 131.08C450.31 131.08 449.93 130.73 449.93 130.29C449.93 129.85 450.31 129.5 450.77 129.5C451.23 129.5 451.6 129.85 451.6 130.29ZM458.25 130.29C458.25 130.73 457.87 131.08 457.41 131.08C456.95 131.08 456.58 130.73 456.58 130.29C456.58 129.85 456.95 129.5 457.41 129.5C457.87 129.5 458.25 129.85 458.25 130.29ZM412.51 140L411.28 140L411.28 129.81L417.38 129.81L417.38 130.91L412.51 130.91L412.51 134.35L416.92 134.35L416.92 135.44L412.51 135.44L412.51 140ZM419.33 129.81L420.5 129.81L420.5 140L419.33 140L419.33 129.81ZM442.77 140L441.64 140L441.64 129.81L442.82 129.81L442.82 133.57L442.91 133.57C443.17 133.17 443.63 132.26 445.12 132.26C447.05 132.26 448.38 133.79 448.38 136.2C448.38 138.62 447.05 140.16 445.14 140.16C443.67 140.16 443.17 139.24 442.91 138.82L442.77 138.82L442.77 140ZM453.49 129.81L454.67 129.81L454.67 140L453.49 140L453.49 129.81ZM461.83 132.36L463.46 132.36L463.46 133.35L461.83 133.35L461.83 137.81C461.83 138.8 462.32 138.96 462.84 138.96C463.1 138.96 463.26 138.92 463.36 138.9L463.6 139.95C463.44 140.02 463.16 140.09 462.72 140.09C461.73 140.09 460.65 139.46 460.65 138.13L460.65 133.35L459.5 133.35L459.5 132.36L460.65 132.36L460.65 130.53L461.83 130.53L461.83 132.36ZM428.89 138.22C428.54 139.38 427.4 140.16 425.85 140.16C423.64 140.16 422.29 138.58 422.29 136.24C422.29 133.89 423.66 132.26 425.73 132.26C427.32 132.26 429.01 133.23 429.01 136.08L429.01 136.57L423.47 136.57C423.52 138.21 424.47 139.1 425.85 139.1C426.77 139.1 427.46 138.7 427.76 137.91L428.89 138.22ZM430.13 132.36L431.48 132.36L433.31 135.48L435.14 132.36L436.49 132.36L434.03 136.18L436.49 140L435.14 140L433.31 137.03L431.48 140L430.13 140L432.55 136.18L430.13 132.36ZM439.33 140L438.16 140L438.16 132.36L439.33 132.36L439.33 140ZM451.34 140L450.17 140L450.17 132.36L451.34 132.36L451.34 140ZM457.99 140L456.81 140L456.81 132.36L457.99 132.36L457.99 140ZM468.23 141.11C467.79 142.3 467.04 142.86 465.98 142.86C465.59 142.86 465.25 142.78 465.13 142.72L465.42 141.69C466.28 141.91 466.81 141.8 467.24 140.63L467.45 140.04L464.63 132.36L465.9 132.36L468.01 138.44L468.09 138.44L470.2 132.36L471.47 132.36L468.23 141.11ZM425.73 133.31C424.39 133.31 423.55 134.37 423.47 135.56L427.82 135.56C427.82 134.27 427 133.31 425.73 133.31ZM444.98 133.31C443.55 133.31 442.79 134.47 442.79 136.18C442.79 137.91 443.57 139.1 444.98 139.1C446.46 139.1 447.21 137.81 447.21 136.18C447.21 134.57 446.48 133.31 444.98 133.31Z" fill="#191B1E" fill-opacity="1.000000" fill-rule="evenodd"/>
	<rect id="Frame 39644" rx="9.500000" width="119.000000" height="63.000000" transform="translate(445.500000 214.500000)" fill="#FBC101" fill-opacity="1.000000"/>
	<path id="Gromadyanstvo.com.ua піклується про безпеку та збереження даних користувача" d="M496.03 241L491.06 241L491.06 229.36L495.72 229.36C498.28 229.36 499.58 230.6 499.58 232.34C499.58 233.71 498.69 234.57 497.48 234.84L497.48 234.96C498.8 235.02 500.03 236.06 500.03 237.78C500.03 239.63 498.64 241 496.03 241ZM493.52 231.35L493.52 234.23L495.34 234.23C496.35 234.23 497.1 233.67 497.1 232.75C497.1 231.91 496.48 231.35 495.39 231.35L493.52 231.35ZM505.52 239.06C506.39 239.06 507.19 238.45 507.18 237.28L507.18 232.27L509.6 232.27L509.6 241L507.28 241L507.28 239.41L507.19 239.41C506.8 240.43 505.85 241.11 504.54 241.11C502.78 241.11 501.59 239.87 501.59 237.82L501.59 232.27L504.01 232.27L504.01 237.39C504.01 238.42 504.6 239.06 505.52 239.06ZM516.28 241.94C515.78 243.35 514.83 244.27 513.03 244.27C512.42 244.27 511.85 244.17 511.51 244.02L512.05 242.21C512.9 242.47 513.51 242.43 513.83 241.62L513.97 241.25L510.84 232.27L513.39 232.27L515.19 238.68L515.28 238.68L517.11 232.27L519.67 232.27L516.28 241.94ZM493.52 235.89L493.52 238.98L495.52 238.98C496.9 238.98 497.5 238.41 497.5 237.53C497.5 236.57 496.76 235.89 495.58 235.89L493.52 235.89Z" fill="#191B1E" fill-opacity="1.000000" fill-rule="evenodd"/>
	<rect id="Frame 39640" rx="9.500000" width="119.000000" height="53.000000" transform="translate(508.500000 100.500000)" fill="#FBC101" fill-opacity="1.000000"/>
	<path id="Gromadyanstvo.com.ua піклується про безпеку та збереження даних користувача" d="M557.04 121.79C557.04 122.23 556.66 122.58 556.2 122.58C555.75 122.58 555.37 122.23 555.37 121.79C555.37 121.35 555.75 121 556.2 121C556.66 121 557.04 121.35 557.04 121.79ZM543.32 131.5L543.32 121.31L544.79 121.31L548.25 129.77L548.37 129.77L551.83 121.31L553.3 121.31L553.3 131.5L552.15 131.5L552.15 123.76L552.05 123.76L548.86 131.5L547.75 131.5L544.57 123.76L544.47 123.76L544.47 131.5L543.32 131.5ZM558.93 121.31L560.1 121.31L560.1 131.5L558.93 131.5L558.93 121.31ZM568.49 129.72C568.13 130.88 567 131.66 565.45 131.66C563.24 131.66 561.89 130.08 561.89 127.74C561.89 125.39 563.26 123.76 565.33 123.76C566.92 123.76 568.61 124.73 568.61 127.58L568.61 128.07L563.07 128.07C563.12 129.71 564.07 130.6 565.45 130.6C566.37 130.6 567.06 130.2 567.36 129.41L568.49 129.72ZM574.92 130.46C574.68 130.96 573.98 131.67 572.65 131.67C571.2 131.67 570.04 130.82 570.04 129.33C570.04 127.58 571.59 127.26 573.01 127.08C574.4 126.9 574.97 126.95 574.97 126.39L574.97 126.34C574.97 125.37 574.44 124.79 573.36 124.79C572.25 124.79 571.64 125.39 571.38 125.95L570.26 125.55C570.86 124.16 572.17 123.76 573.32 123.76C574.3 123.76 576.15 124.04 576.15 126.46L576.15 131.5L574.97 131.5L574.97 130.46L574.92 130.46ZM584.68 131.71C584.68 133.68 583.21 134.52 581.38 134.52C579.67 134.52 578.73 133.79 578.26 132.99L579.19 132.33C579.51 132.75 579.99 133.48 581.38 133.48C582.61 133.48 583.51 132.91 583.51 131.64L583.51 130.08L583.4 130.08C583.15 130.5 582.67 131.38 581.18 131.38C579.33 131.38 577.94 130.02 577.94 127.64C577.94 125.29 579.27 123.76 581.2 123.76C582.69 123.76 583.17 124.67 583.43 125.07L583.55 125.07L583.55 123.86L584.68 123.86L584.68 131.71ZM593.07 129.72C592.71 130.88 591.58 131.66 590.03 131.66C587.82 131.66 586.47 130.08 586.47 127.74C586.47 125.39 587.84 123.76 589.91 123.76C591.5 123.76 593.19 124.73 593.19 127.58L593.19 128.07L587.65 128.07C587.7 129.71 588.65 130.6 590.03 130.6C590.95 130.6 591.64 130.2 591.94 129.41L593.07 129.72ZM556.78 131.5L555.61 131.5L555.61 123.86L556.78 123.86L556.78 131.5ZM565.33 124.81C563.99 124.81 563.15 125.87 563.07 127.06L567.42 127.06C567.42 125.77 566.6 124.81 565.33 124.81ZM579.11 127.62C579.11 129.21 579.87 130.32 581.34 130.32C582.75 130.32 583.53 129.31 583.53 127.62C583.53 125.97 582.77 124.81 581.34 124.81C579.85 124.81 579.11 126.07 579.11 127.62ZM589.91 124.81C588.57 124.81 587.73 125.87 587.65 127.06L592 127.06C592 125.77 591.18 124.81 589.91 124.81ZM571.22 129.39C571.22 130.2 571.89 130.62 572.83 130.62C574.22 130.62 574.97 129.69 574.97 128.73L574.97 127.66C574.78 127.9 573.44 128.04 572.95 128.09C572.03 128.21 571.22 128.49 571.22 129.39Z" fill="#191B1E" fill-opacity="1.000000" fill-rule="evenodd"/>
	<rect id="Frame 39641" rx="9.500000" width="119.000000" height="53.000000" transform="translate(635.500000 100.500000)" fill="#FBC101" fill-opacity="1.000000"/>
	<path id="Gromadyanstvo.com.ua піклується про безпеку та збереження даних користувача" d="M675.21 121.79C675.21 122.23 674.83 122.58 674.37 122.58C673.92 122.58 673.54 122.23 673.54 121.79C673.54 121.35 673.92 121 674.37 121C674.83 121 675.21 121.35 675.21 121.79ZM653.59 131.5L653.59 121.31L655.06 121.31L658.53 129.77L658.64 129.77L662.1 121.31L663.57 121.31L663.57 131.5L662.42 131.5L662.42 123.76L662.32 123.76L659.14 131.5L658.03 131.5L654.84 123.76L654.74 123.76L654.74 131.5L653.59 131.5ZM686.98 123.86L688.61 123.86L688.61 124.85L686.98 124.85L686.98 129.31C686.98 130.3 687.48 130.46 687.99 130.46C688.25 130.46 688.41 130.42 688.51 130.4L688.75 131.45C688.59 131.52 688.32 131.59 687.88 131.59C686.88 131.59 685.81 130.96 685.81 129.63L685.81 124.85L684.65 124.85L684.65 123.86L685.81 123.86L685.81 122.03L686.98 122.03L686.98 123.86ZM670.4 130.46C670.16 130.96 669.46 131.67 668.13 131.67C666.68 131.67 665.52 130.82 665.52 129.33C665.52 127.58 667.07 127.26 668.49 127.08C669.88 126.9 670.45 126.95 670.45 126.39L670.45 126.34C670.45 125.37 669.92 124.79 668.84 124.79C667.73 124.79 667.12 125.39 666.86 125.95L665.74 125.55C666.34 124.16 667.65 123.76 668.8 123.76C669.78 123.76 671.63 124.04 671.63 126.46L671.63 131.5L670.45 131.5L670.45 130.46L670.4 130.46ZM680.22 124.81C679.1 124.81 678.27 125.57 678.27 126.9L678.27 131.5L677.1 131.5L677.1 123.86L678.23 123.86L678.23 125.05L678.33 125.05C678.69 124.28 679.4 123.76 680.56 123.76C682.1 123.76 683.14 124.69 683.14 126.64L683.14 131.5L681.97 131.5L681.97 126.72C681.97 125.52 681.31 124.81 680.22 124.81ZM696.55 129.72C696.19 130.88 695.06 131.66 693.5 131.66C691.3 131.66 689.94 130.08 689.94 127.74C689.94 125.39 691.32 123.76 693.38 123.76C694.97 123.76 696.67 124.73 696.67 127.58L696.67 128.07L691.12 128.07C691.18 129.71 692.13 130.6 693.5 130.6C694.42 130.6 695.11 130.2 695.41 129.41L696.55 129.72ZM701.58 124.81C700.45 124.81 699.63 125.57 699.63 126.9L699.63 131.5L698.46 131.5L698.46 123.86L699.59 123.86L699.59 125.05L699.69 125.05C700.05 124.28 700.76 123.76 701.92 123.76C703.46 123.76 704.5 124.69 704.5 126.64L704.5 131.5L703.33 131.5L703.33 126.72C703.33 125.52 702.67 124.81 701.58 124.81ZM711.16 130.46C710.92 130.96 710.23 131.67 708.9 131.67C707.44 131.67 706.29 130.82 706.29 129.33C706.29 127.58 707.84 127.26 709.25 127.08C710.65 126.9 711.22 126.95 711.22 126.39L711.22 126.34C711.22 125.37 710.69 124.79 709.61 124.79C708.49 124.79 707.88 125.39 707.62 125.95L706.51 125.55C707.11 124.16 708.42 123.76 709.57 123.76C710.55 123.76 712.4 124.04 712.4 126.46L712.4 131.5L711.22 131.5L711.22 130.46L711.16 130.46ZM717.67 124.81C716.54 124.81 715.72 125.57 715.72 126.9L715.72 131.5L714.54 131.5L714.54 123.86L715.68 123.86L715.68 125.05L715.78 125.05C716.14 124.28 716.85 123.76 718.01 123.76C719.55 123.76 720.59 124.69 720.59 126.64L720.59 131.5L719.42 131.5L719.42 126.72C719.42 125.52 718.75 124.81 717.67 124.81ZM728.84 129.27C728.64 130.62 727.53 131.66 725.84 131.66C723.69 131.66 722.38 130 722.38 127.72C722.38 125.39 723.75 123.76 725.82 123.76C727.43 123.76 728.64 124.71 728.84 126.15L727.67 126.15C727.49 125.45 726.87 124.81 725.84 124.81C724.47 124.81 723.55 125.95 723.55 127.68C723.55 129.45 724.45 130.6 725.84 130.6C726.75 130.6 727.45 130.1 727.67 129.27L728.84 129.27ZM736.8 129.72C736.44 130.88 735.31 131.66 733.75 131.66C731.55 131.66 730.19 130.08 730.19 127.74C730.19 125.39 731.57 123.76 733.63 123.76C735.22 123.76 736.92 124.73 736.92 127.58L736.92 128.07L731.37 128.07C731.43 129.71 732.38 130.6 733.75 130.6C734.67 130.6 735.36 130.2 735.66 129.41L736.8 129.72ZM674.95 131.5L673.78 131.5L673.78 123.86L674.95 123.86L674.95 131.5ZM693.38 124.81C692.04 124.81 691.2 125.87 691.12 127.06L695.47 127.06C695.47 125.77 694.66 124.81 693.38 124.81ZM733.63 124.81C732.29 124.81 731.45 125.87 731.37 127.06L735.72 127.06C735.72 125.77 734.91 124.81 733.63 124.81ZM666.7 129.39C666.7 130.2 667.37 130.62 668.31 130.62C669.7 130.62 670.45 129.69 670.45 128.73L670.45 127.66C670.26 127.9 668.92 128.04 668.43 128.09C667.51 128.21 666.7 128.49 666.7 129.39ZM707.47 129.39C707.47 130.2 708.14 130.62 709.08 130.62C710.47 130.62 711.22 129.69 711.22 128.73L711.22 127.66C711.02 127.9 709.69 128.04 709.19 128.09C708.28 128.21 707.47 128.49 707.47 129.39Z" fill="#191B1E" fill-opacity="1.000000" fill-rule="evenodd"/>
	<rect id="Frame 39642" rx="9.500000" width="119.000000" height="53.000000" transform="translate(762.500000 100.500000)" fill="#FBC101" fill-opacity="1.000000"/>
	<path id="Gromadyanstvo.com.ua піклується про безпеку та збереження даних користувача" d="M812.99 123.86L814.7 123.86L814.7 124.85L812.99 124.85L812.99 131.5L811.81 131.5L811.81 124.85L810.58 124.85L810.58 123.86L811.81 123.86L811.81 122.8C811.81 121.49 812.87 120.83 813.96 120.83C814.54 120.83 814.9 120.95 815.08 121.04L814.74 122.05C814.62 122.01 814.42 121.93 814.08 121.93C813.31 121.93 812.99 122.33 812.99 123.08L812.99 123.86ZM809.41 121.79C809.41 122.23 809.03 122.58 808.57 122.58C808.12 122.58 807.74 122.23 807.74 121.79C807.74 121.35 808.12 121 808.57 121C809.03 121 809.41 121.35 809.41 121.79ZM817.78 121.79C817.78 122.23 817.4 122.58 816.95 122.58C816.49 122.58 816.11 122.23 816.11 121.79C816.11 121.35 816.49 121 816.95 121C817.4 121 817.78 121.35 817.78 121.79ZM841.9 121.79C841.9 122.23 841.53 122.58 841.07 122.58C840.61 122.58 840.23 122.23 840.23 121.79C840.23 121.35 840.61 121 841.07 121C841.53 121 841.9 121.35 841.9 121.79ZM778.64 131.5L778.64 121.31L780.11 121.31L783.58 129.77L783.7 129.77L787.15 121.31L788.62 121.31L788.62 131.5L787.47 131.5L787.47 123.76L787.37 123.76L784.19 131.5L783.08 131.5L779.9 123.76L779.8 123.76L779.8 131.5L778.64 131.5ZM804.39 130.32C804.14 130.74 803.64 131.66 802.17 131.66C800.26 131.66 798.93 130.12 798.93 127.7C798.93 125.29 800.26 123.76 802.19 123.76C803.68 123.76 804.14 124.67 804.39 125.07L804.5 125.07L804.5 121.31L805.67 121.31L805.67 131.5L804.53 131.5L804.53 130.32L804.39 130.32ZM837.07 123.86L838.7 123.86L838.7 124.85L837.07 124.85L837.07 129.31C837.07 130.3 837.57 130.46 838.08 130.46C838.34 130.46 838.5 130.42 838.6 130.4L838.84 131.45C838.68 131.52 838.4 131.59 837.97 131.59C836.97 131.59 835.89 130.96 835.89 129.63L835.89 124.85L834.74 124.85L834.74 123.86L835.89 123.86L835.89 122.03L837.07 122.03L837.07 123.86ZM797.49 127.72C797.49 130.08 796.1 131.66 794.04 131.66C791.97 131.66 790.57 130.08 790.57 127.72C790.57 125.33 791.97 123.76 794.04 123.76C796.1 123.76 797.49 125.33 797.49 127.72ZM825.77 129.27C825.57 130.62 824.46 131.66 822.77 131.66C820.62 131.66 819.31 130 819.31 127.72C819.31 125.39 820.68 123.76 822.75 123.76C824.36 123.76 825.57 124.71 825.77 126.15L824.6 126.15C824.42 125.45 823.8 124.81 822.77 124.81C821.4 124.81 820.49 125.95 820.49 127.68C820.49 129.45 821.38 130.6 822.77 130.6C823.68 130.6 824.38 130.1 824.6 129.27L825.77 129.27ZM832 130.46C831.76 130.96 831.06 131.67 829.73 131.67C828.28 131.67 827.12 130.82 827.12 129.33C827.12 127.58 828.67 127.26 830.09 127.08C831.48 126.9 832.06 126.95 832.06 126.39L832.06 126.34C832.06 125.37 831.53 124.79 830.45 124.79C829.33 124.79 828.72 125.39 828.46 125.95L827.34 125.55C827.94 124.16 829.25 123.76 830.41 123.76C831.38 123.76 833.23 124.04 833.23 126.46L833.23 131.5L832.06 131.5L832.06 130.46L832 130.46ZM850.35 127.72C850.35 130.08 848.96 131.66 846.89 131.66C844.83 131.66 843.43 130.08 843.43 127.72C843.43 125.33 844.83 123.76 846.89 123.76C848.96 123.76 850.35 125.33 850.35 127.72ZM855.27 124.81C854.14 124.81 853.31 125.57 853.31 126.9L853.31 131.5L852.14 131.5L852.14 123.86L853.28 123.86L853.28 125.05L853.38 125.05C853.74 124.28 854.45 123.76 855.6 123.76C857.15 123.76 858.19 124.69 858.19 126.64L858.19 131.5L857.02 131.5L857.02 126.72C857.02 125.52 856.35 124.81 855.27 124.81ZM863.04 123.76C864.55 123.76 865.38 124.49 865.75 125.57L864.69 125.87C864.49 125.34 864.06 124.77 863.04 124.77C862.11 124.77 861.41 125.25 861.41 125.91C861.41 126.5 861.82 126.8 862.72 127.02L863.86 127.3C865.22 127.63 865.88 128.3 865.88 129.37C865.88 130.69 864.68 131.66 862.9 131.66C861.34 131.66 860.27 130.96 860 129.67L861.11 129.39C861.32 130.21 861.92 130.62 862.88 130.62C863.98 130.62 864.67 130.08 864.67 129.43C864.67 128.9 864.31 128.53 863.54 128.35L862.27 128.05C860.86 127.73 860.24 127.02 860.24 125.97C860.24 124.67 861.43 123.76 863.04 123.76ZM809.15 131.5L807.97 131.5L807.97 123.86L809.15 123.86L809.15 131.5ZM817.52 131.5L816.35 131.5L816.35 123.86L817.52 123.86L817.52 131.5ZM841.64 131.5L840.47 131.5L840.47 123.86L841.64 123.86L841.64 131.5ZM791.75 127.72C791.75 129.25 792.46 130.6 794.04 130.6C795.6 130.6 796.32 129.25 796.32 127.72C796.32 126.19 795.6 124.81 794.04 124.81C792.46 124.81 791.75 126.19 791.75 127.72ZM800.1 127.68C800.1 129.31 800.86 130.6 802.33 130.6C803.74 130.6 804.51 129.41 804.51 127.68C804.51 125.97 803.76 124.81 802.33 124.81C800.84 124.81 800.1 126.07 800.1 127.68ZM844.61 127.72C844.61 129.25 845.32 130.6 846.89 130.6C848.46 130.6 849.18 129.25 849.18 127.72C849.18 126.19 848.46 124.81 846.89 124.81C845.32 124.81 844.61 126.19 844.61 127.72ZM828.3 129.39C828.3 130.2 828.98 130.62 829.91 130.62C831.3 130.62 832.06 129.69 832.06 128.73L832.06 127.66C831.86 127.9 830.53 128.04 830.03 128.09C829.11 128.21 828.3 128.49 828.3 129.39Z" fill="#191B1E" fill-opacity="1.000000" fill-rule="evenodd"/>
	<path id="Vector 111" d="M823 100L439.5 42L57.5 100M439.5 42L186.5 100M439.5 42L314.5 100M439.5 42L439.5 100M439.5 42L567.5 100M439.5 42L695.5 100M502.5 214L439.5 154L377 214M502.5 214L314.5 154L377 214M502.5 214L186.5 154L377 214M57.5 154L377 214L823 154L502.5 214L57.5 154ZM377 214L567.5 154L502.5 214M377 214L695.5 154L502.5 214" stroke="#93A8BD" stroke-opacity="1.000000" stroke-width="1.000000"/>
</svg>
