<svg width="393.000000" height="879.000000" viewBox="0 0 393 879" fill="none" xmlns="http://www.w3.org/2000/svg" xmlns:xlink="http://www.w3.org/1999/xlink">
	<desc>
			Created with Pixso.
	</desc>
	<defs/>
	<rect id="Frame 39636" rx="9.500000" width="109.000000" height="53.000000" transform="translate(140.000000 664.500000)" fill="#FBC101" fill-opacity="1.000000"/>
	<path id="Gromadyanstvo.com.ua піклується про безпеку та збереження даних користувача" d="M166.94 687L166.94 676.81L168.41 676.81L171.88 685.27L172 685.27L175.45 676.81L176.92 676.81L176.92 687L175.77 687L175.77 679.26L175.67 679.26L172.49 687L171.38 687L168.19 679.26L168.1 679.26L168.1 687L166.94 687ZM204.21 680.31C203.05 680.31 202.2 681.07 202.2 682.4L202.2 687L201.03 687L201.03 676.81L202.2 676.81L202.2 680.55L202.3 680.55C202.66 679.76 203.34 679.26 204.55 679.26C206.11 679.26 207.15 680.18 207.15 682.14L207.15 687L205.98 687L205.98 682.22C205.98 681.01 205.31 680.31 204.21 680.31ZM209.3 676.81L210.47 676.81L210.47 687L209.3 687L209.3 676.81ZM197.47 679.36L199.1 679.36L199.1 680.35L197.47 680.35L197.47 684.81C197.47 685.8 197.97 685.96 198.48 685.96C198.74 685.96 198.9 685.92 199 685.9L199.24 686.95C199.08 687.02 198.8 687.09 198.36 687.09C197.37 687.09 196.29 686.46 196.29 685.13L196.29 680.35L195.14 680.35L195.14 679.36L196.29 679.36L196.29 677.53L197.47 677.53L197.47 679.36ZM185.79 683.22C185.79 685.58 184.4 687.16 182.34 687.16C180.27 687.16 178.87 685.58 178.87 683.22C178.87 680.83 180.27 679.26 182.34 679.26C184.4 679.26 185.79 680.83 185.79 683.22ZM190.71 680.31C189.58 680.31 188.76 681.07 188.76 682.4L188.76 687L187.58 687L187.58 679.36L188.72 679.36L188.72 680.55L188.82 680.55C189.18 679.78 189.89 679.26 191.05 679.26C192.59 679.26 193.63 680.19 193.63 682.14L193.63 687L192.46 687L192.46 682.22C192.46 681.02 191.8 680.31 190.71 680.31ZM215.63 688.11C215.18 689.3 214.44 689.86 213.38 689.86C212.98 689.86 212.64 689.78 212.52 689.72L212.82 688.69C213.68 688.91 214.2 688.8 214.63 687.63L214.85 687.04L212.03 679.36L213.3 679.36L215.41 685.44L215.49 685.44L217.59 679.36L218.87 679.36L215.63 688.11ZM180.05 683.22C180.05 684.75 180.76 686.1 182.34 686.1C183.9 686.1 184.62 684.75 184.62 683.22C184.62 681.69 183.9 680.31 182.34 680.31C180.76 680.31 180.05 681.69 180.05 683.22ZM168.01 704L166.77 704L166.77 693.81L170.21 693.81C172.61 693.81 173.68 695.24 173.68 697.04C173.68 698.83 172.61 700.28 170.23 700.28L168.01 700.28L168.01 704ZM221.12 696.36L222.75 696.36L222.75 697.35L221.12 697.35L221.12 701.81C221.12 702.8 221.62 702.96 222.14 702.96C222.4 702.96 222.56 702.92 222.66 702.9L222.89 703.95C222.73 704.02 222.46 704.09 222.02 704.09C221.03 704.09 219.95 703.46 219.95 702.13L219.95 697.35L218.8 697.35L218.8 696.36L219.95 696.36L219.95 694.53L221.12 694.53L221.12 696.36ZM168.01 694.91L168.01 699.18L170.19 699.18C171.83 699.18 172.46 698.26 172.46 697.04C172.46 695.81 171.83 694.91 170.18 694.91L168.01 694.91ZM180.02 702.96C179.78 703.46 179.08 704.17 177.75 704.17C176.3 704.17 175.14 703.32 175.14 701.83C175.14 700.08 176.69 699.76 178.11 699.58C179.5 699.4 180.08 699.45 180.08 698.89L180.08 698.84C180.08 697.87 179.55 697.29 178.47 697.29C177.35 697.29 176.74 697.89 176.48 698.45L175.36 698.05C175.96 696.66 177.27 696.26 178.43 696.26C179.4 696.26 181.25 696.54 181.25 698.96L181.25 704L180.08 704L180.08 702.96L180.02 702.96ZM192.09 704L190.92 704L190.92 696.36L192.05 696.36L192.05 697.55L192.15 697.55C192.47 696.74 193.2 696.26 194.2 696.26C195.2 696.26 195.87 696.74 196.24 697.55L196.33 697.55C196.72 696.76 197.52 696.26 198.61 696.26C199.97 696.26 200.94 697.09 200.94 698.89L200.94 704L199.76 704L199.76 698.89C199.76 697.76 199.05 697.31 198.21 697.31C197.14 697.31 196.52 698.04 196.52 699.02L196.52 704L195.33 704L195.33 698.77C195.33 697.89 194.71 697.31 193.82 697.31C192.9 697.31 192.09 698.1 192.09 699.22L192.09 704ZM209.33 702.22C208.97 703.38 207.84 704.16 206.29 704.16C204.08 704.16 202.73 702.58 202.73 700.24C202.73 697.89 204.1 696.26 206.17 696.26C207.76 696.26 209.45 697.23 209.45 700.08L209.45 700.57L203.91 700.57C203.96 702.21 204.91 703.1 206.29 703.1C207.21 703.1 207.9 702.7 208.2 701.91L209.33 702.22ZM214.36 697.31C213.24 697.31 212.41 698.07 212.41 699.4L212.41 704L211.24 704L211.24 696.36L212.37 696.36L212.37 697.55L212.47 697.55C212.83 696.78 213.55 696.26 214.7 696.26C216.25 696.26 217.29 697.19 217.29 699.14L217.29 704L216.11 704L216.11 699.22C216.11 698.02 215.45 697.31 214.36 697.31ZM186.12 705.11C185.68 706.3 184.93 706.86 183.88 706.86C183.48 706.86 183.14 706.78 183.02 706.72L183.32 705.69C184.18 705.91 184.7 705.8 185.13 704.63L185.35 704.04L182.53 696.36L183.8 696.36L185.91 702.44L185.98 702.44L188.09 696.36L189.36 696.36L186.12 705.11ZM206.17 697.31C204.83 697.31 203.98 698.37 203.91 699.56L208.26 699.56C208.26 698.27 207.44 697.31 206.17 697.31ZM176.32 701.89C176.32 702.7 177 703.12 177.93 703.12C179.32 703.12 180.08 702.19 180.08 701.23L180.08 700.16C179.88 700.4 178.55 700.54 178.05 700.59C177.13 700.71 176.32 700.99 176.32 701.89Z" fill="#191B1E" fill-opacity="1.000000" fill-rule="evenodd"/>
	<rect id="Frame 39637" rx="9.500000" width="109.000000" height="53.000000" transform="translate(140.000000 580.500000)" fill="#FBC101" fill-opacity="1.000000"/>
	<path id="Gromadyanstvo.com.ua піклується про безпеку та збереження даних користувача" d="M218.7 593.29C218.7 593.73 218.32 594.08 217.86 594.08C217.4 594.08 217.03 593.73 217.03 593.29C217.03 592.85 217.4 592.5 217.86 592.5C218.32 592.5 218.7 592.85 218.7 593.29ZM162.34 592.67C164.94 592.67 166.83 594.68 166.83 597.91C166.83 601.13 164.94 603.14 162.34 603.14C159.73 603.14 157.84 601.13 157.84 597.91C157.84 594.68 159.73 592.67 162.34 592.67ZM212.17 596.31C211.02 596.31 210.16 597.07 210.16 598.4L210.16 603L208.99 603L208.99 592.81L210.16 592.81L210.16 596.55L210.27 596.55C210.62 595.76 211.31 595.26 212.51 595.26C214.07 595.26 215.12 596.18 215.12 598.14L215.12 603L213.94 603L213.94 598.22C213.94 597.01 213.28 596.31 212.17 596.31ZM162.34 601.98C164.19 601.98 165.64 600.55 165.64 597.91C165.64 595.26 164.19 593.83 162.34 593.83C160.49 593.83 159.04 595.26 159.04 597.91C159.04 600.55 160.49 601.98 162.34 601.98ZM197.64 603L196.46 603L196.46 595.36L197.6 595.36L197.6 596.51L197.68 596.51C197.96 595.76 198.75 595.24 199.67 595.24C199.84 595.24 200.15 595.25 200.28 595.26L200.28 596.45C200.2 596.43 199.88 596.37 199.57 596.37C198.45 596.37 197.64 597.13 197.64 598.16L197.64 603ZM183.24 596.31C182.12 596.31 181.29 597.07 181.29 598.4L181.29 603L180.12 603L180.12 595.36L181.25 595.36L181.25 596.55L181.35 596.55C181.71 595.78 182.42 595.26 183.58 595.26C185.12 595.26 186.16 596.19 186.16 598.14L186.16 603L184.99 603L184.99 598.22C184.99 597.02 184.33 596.31 183.24 596.31ZM194.55 601.22C194.2 602.38 193.06 603.16 191.51 603.16C189.3 603.16 187.95 601.58 187.95 599.24C187.95 596.89 189.33 595.26 191.39 595.26C192.98 595.26 194.67 596.23 194.67 599.08L194.67 599.57L189.13 599.57C189.19 601.21 190.14 602.1 191.51 602.1C192.43 602.1 193.12 601.7 193.42 600.91L194.55 601.22ZM204.38 595.26C205.89 595.26 206.72 595.99 207.08 597.07L206.03 597.37C205.83 596.84 205.4 596.27 204.38 596.27C203.44 596.27 202.75 596.75 202.75 597.41C202.75 598 203.16 598.3 204.06 598.52L205.19 598.8C206.56 599.13 207.22 599.8 207.22 600.87C207.22 602.19 206.01 603.16 204.24 603.16C202.68 603.16 201.61 602.46 201.34 601.17L202.45 600.89C202.66 601.71 203.26 602.12 204.22 602.12C205.31 602.12 206.01 601.58 206.01 600.93C206.01 600.4 205.65 600.03 204.88 599.85L203.61 599.55C202.2 599.23 201.57 598.52 201.57 597.47C201.57 596.17 202.77 595.26 204.38 595.26ZM221.76 605.86L220.59 605.86L220.59 595.36L221.72 595.36L221.72 596.57L221.86 596.57C222.12 596.17 222.58 595.26 224.07 595.26C226 595.26 227.33 596.79 227.33 599.2C227.33 601.62 226 603.16 224.09 603.16C222.62 603.16 222.12 602.24 221.86 601.82L221.76 601.82L221.76 605.86ZM171.63 603L170.47 603L168.15 595.36L169.38 595.36L171.03 601.2L171.11 601.2L172.74 595.36L173.99 595.36L175.6 601.19L175.68 601.19L177.33 595.36L178.57 595.36L176.24 603L175.09 603L173.41 597.13L173.3 597.13L171.63 603ZM218.44 603L217.26 603L217.26 595.36L218.44 595.36L218.44 603ZM191.39 596.31C190.05 596.31 189.21 597.37 189.13 598.56L193.48 598.56C193.48 597.27 192.66 596.31 191.39 596.31ZM223.93 596.31C222.5 596.31 221.74 597.47 221.74 599.18C221.74 600.91 222.52 602.1 223.93 602.1C225.4 602.1 226.15 600.81 226.15 599.18C226.15 597.57 225.42 596.31 223.93 596.31ZM181.67 610.91L178.47 610.91L178.47 609.81L186.1 609.81L186.1 610.91L182.9 610.91L182.9 620L181.67 620L181.67 610.91ZM196.06 620L194.89 620L194.89 612.36L196.03 612.36L196.03 613.51L196.11 613.51C196.39 612.76 197.18 612.24 198.1 612.24C198.27 612.24 198.58 612.25 198.71 612.26L198.71 613.45C198.63 613.43 198.31 613.37 198 613.37C196.88 613.37 196.06 614.13 196.06 615.16L196.06 620ZM192.98 618.22C192.62 619.38 191.49 620.16 189.94 620.16C187.73 620.16 186.38 618.58 186.38 616.24C186.38 613.89 187.75 612.26 189.82 612.26C191.41 612.26 193.1 613.23 193.1 616.08L193.1 616.57L187.56 616.57C187.61 618.21 188.56 619.1 189.94 619.1C190.86 619.1 191.55 618.7 191.85 617.91L192.98 618.22ZM201.28 620L200.1 620L200.1 612.36L201.24 612.36L201.24 613.55L201.34 613.55C201.65 612.74 202.39 612.26 203.38 612.26C204.39 612.26 205.06 612.74 205.43 613.55L205.51 613.55C205.91 612.76 206.71 612.26 207.8 612.26C209.16 612.26 210.13 613.09 210.13 614.89L210.13 620L208.95 620L208.95 614.89C208.95 613.76 208.24 613.31 207.4 613.31C206.33 613.31 205.71 614.04 205.71 615.02L205.71 620L204.52 620L204.52 614.77C204.52 613.89 203.9 613.31 203.01 613.31C202.09 613.31 201.28 614.1 201.28 615.22L201.28 620ZM189.82 613.31C188.48 613.31 187.64 614.37 187.56 615.56L191.91 615.56C191.91 614.27 191.09 613.31 189.82 613.31Z" fill="#191B1E" fill-opacity="1.000000" fill-rule="evenodd"/>
	<rect id="Frame 39638" rx="9.500000" width="109.000000" height="53.000000" transform="translate(140.000000 496.500000)" fill="#FBC101" fill-opacity="1.000000"/>
	<path id="Gromadyanstvo.com.ua піклується про безпеку та збереження даних користувача" d="M232.62 511.36L234.33 511.36L234.33 512.35L232.62 512.35L232.62 519L231.44 519L231.44 512.35L230.21 512.35L230.21 511.36L231.44 511.36L231.44 510.3C231.44 508.99 232.5 508.33 233.59 508.33C234.17 508.33 234.53 508.45 234.71 508.54L234.37 509.55C234.25 509.51 234.05 509.43 233.71 509.43C232.94 509.43 232.62 509.83 232.62 510.58L232.62 511.36ZM191.95 508.67C194 508.67 195.67 509.91 196.05 512L194.81 512C194.52 510.58 193.3 509.83 191.95 509.83C190.1 509.83 188.65 511.26 188.65 513.91C188.65 516.55 190.1 517.98 191.95 517.98C193.3 517.98 194.52 517.22 194.81 515.81L196.05 515.81C195.67 517.9 194 519.14 191.95 519.14C189.34 519.14 187.45 517.13 187.45 513.91C187.45 510.68 189.34 508.67 191.95 508.67ZM154.03 509.91L150.83 509.91L150.83 508.81L158.46 508.81L158.46 509.91L155.26 509.91L155.26 519L154.03 519L154.03 509.91ZM180.44 508.81L181.61 508.81L181.61 519L180.44 519L180.44 508.81ZM169.14 511.36L170.77 511.36L170.77 512.35L169.14 512.35L169.14 516.81C169.14 517.8 169.64 517.96 170.15 517.96C170.41 517.96 170.57 517.92 170.67 517.9L170.91 518.95C170.75 519.02 170.47 519.09 170.04 519.09C169.04 519.09 167.97 518.46 167.97 517.13L167.97 512.35L166.81 512.35L166.81 511.36L167.97 511.36L167.97 509.53L169.14 509.53L169.14 511.36ZM215.24 511.36L216.87 511.36L216.87 512.35L215.24 512.35L215.24 516.81C215.24 517.8 215.73 517.96 216.25 517.96C216.51 517.96 216.67 517.92 216.77 517.9L217.01 518.95C216.85 519.02 216.57 519.09 216.13 519.09C215.14 519.09 214.06 518.46 214.06 517.13L214.06 512.35L212.91 512.35L212.91 511.36L214.06 511.36L214.06 509.53L215.24 509.53L215.24 511.36ZM165.66 515.22C165.66 517.58 164.27 519.16 162.2 519.16C160.13 519.16 158.74 517.58 158.74 515.22C158.74 512.83 160.13 511.26 162.2 511.26C164.27 511.26 165.66 512.83 165.66 515.22ZM177.06 517.96C176.82 518.46 176.12 519.17 174.79 519.17C173.34 519.17 172.18 518.32 172.18 516.83C172.18 515.08 173.73 514.76 175.14 514.58C176.54 514.4 177.11 514.45 177.11 513.89L177.11 513.84C177.11 512.87 176.58 512.29 175.5 512.29C174.39 512.29 173.77 512.89 173.51 513.45L172.4 513.05C173 511.66 174.31 511.26 175.46 511.26C176.44 511.26 178.29 511.54 178.29 513.96L178.29 519L177.11 519L177.11 517.96L177.06 517.96ZM204.44 515.22C204.44 517.58 203.05 519.16 200.98 519.16C198.91 519.16 197.52 517.58 197.52 515.22C197.52 512.83 198.91 511.26 200.98 511.26C203.05 511.26 204.44 512.83 204.44 515.22ZM208.93 511.26C210.45 511.26 211.27 511.99 211.64 513.07L210.58 513.37C210.38 512.84 209.96 512.27 208.93 512.27C208 512.27 207.3 512.75 207.3 513.41C207.3 514 207.71 514.3 208.61 514.52L209.75 514.8C211.11 515.13 211.78 515.8 211.78 516.87C211.78 518.19 210.57 519.16 208.79 519.16C207.23 519.16 206.16 518.46 205.89 517.17L207 516.89C207.21 517.71 207.81 518.12 208.77 518.12C209.87 518.12 210.57 517.58 210.57 516.93C210.57 516.4 210.2 516.03 209.43 515.85L208.16 515.55C206.75 515.23 206.13 514.52 206.13 513.47C206.13 512.17 207.32 511.26 208.93 511.26ZM229.14 515.22C229.14 517.58 227.75 519.16 225.68 519.16C223.61 519.16 222.22 517.58 222.22 515.22C222.22 512.83 223.61 511.26 225.68 511.26C227.75 511.26 229.14 512.83 229.14 515.22ZM159.91 515.22C159.91 516.75 160.63 518.1 162.2 518.1C163.77 518.1 164.49 516.75 164.49 515.22C164.49 513.69 163.77 512.31 162.2 512.31C160.63 512.31 159.91 513.69 159.91 515.22ZM198.69 515.22C198.69 516.75 199.41 518.1 200.98 518.1C202.55 518.1 203.27 516.75 203.27 515.22C203.27 513.69 202.55 512.31 200.98 512.31C199.41 512.31 198.69 513.69 198.69 515.22ZM223.39 515.22C223.39 516.75 224.11 518.1 225.68 518.1C227.25 518.1 227.96 516.75 227.96 515.22C227.96 513.69 227.25 512.31 225.68 512.31C224.11 512.31 223.39 513.69 223.39 515.22ZM173.36 516.89C173.36 517.7 174.03 518.12 174.97 518.12C176.36 518.12 177.11 517.19 177.11 516.23L177.11 515.16C176.92 515.4 175.58 515.54 175.09 515.59C174.17 515.71 173.36 515.99 173.36 516.89ZM220.67 526.29C220.67 526.73 220.29 527.08 219.83 527.08C219.37 527.08 218.99 526.73 218.99 526.29C218.99 525.85 219.37 525.5 219.83 525.5C220.29 525.5 220.67 525.85 220.67 526.29ZM164.31 525.67C166.91 525.67 168.8 527.68 168.8 530.91C168.8 534.13 166.91 536.14 164.31 536.14C161.7 536.14 159.81 534.13 159.81 530.91C159.81 527.68 161.7 525.67 164.31 525.67ZM214.14 529.31C212.98 529.31 212.13 530.07 212.13 531.4L212.13 536L210.96 536L210.96 525.81L212.13 525.81L212.13 529.55L212.24 529.55C212.59 528.76 213.28 528.26 214.48 528.26C216.04 528.26 217.09 529.18 217.09 531.14L217.09 536L215.91 536L215.91 531.22C215.91 530.01 215.25 529.31 214.14 529.31ZM164.31 534.98C166.16 534.98 167.61 533.55 167.61 530.91C167.61 528.26 166.16 526.83 164.31 526.83C162.46 526.83 161 528.26 161 530.91C161 533.55 162.46 534.98 164.31 534.98ZM199.6 536L198.43 536L198.43 528.36L199.57 528.36L199.57 529.51L199.65 529.51C199.93 528.76 200.72 528.24 201.64 528.24C201.81 528.24 202.12 528.25 202.25 528.26L202.25 529.45C202.17 529.43 201.85 529.37 201.54 529.37C200.42 529.37 199.6 530.13 199.6 531.16L199.6 536ZM185.21 529.31C184.09 529.31 183.26 530.07 183.26 531.4L183.26 536L182.09 536L182.09 528.36L183.22 528.36L183.22 529.55L183.32 529.55C183.68 528.78 184.39 528.26 185.55 528.26C187.09 528.26 188.13 529.19 188.13 531.14L188.13 536L186.96 536L186.96 531.22C186.96 530.02 186.3 529.31 185.21 529.31ZM196.52 534.22C196.16 535.38 195.03 536.16 193.48 536.16C191.27 536.16 189.92 534.58 189.92 532.24C189.92 529.89 191.29 528.26 193.36 528.26C194.95 528.26 196.64 529.23 196.64 532.08L196.64 532.57L191.1 532.57C191.15 534.21 192.1 535.1 193.48 535.1C194.4 535.1 195.09 534.7 195.39 533.91L196.52 534.22ZM206.35 528.26C207.86 528.26 208.68 528.99 209.05 530.07L208 530.37C207.8 529.84 207.37 529.27 206.35 529.27C205.41 529.27 204.72 529.75 204.72 530.41C204.72 531 205.13 531.3 206.03 531.52L207.16 531.8C208.53 532.13 209.19 532.8 209.19 533.87C209.19 535.19 207.98 536.16 206.21 536.16C204.65 536.16 203.58 535.46 203.3 534.17L204.42 533.89C204.63 534.71 205.23 535.12 206.19 535.12C207.28 535.12 207.98 534.58 207.98 533.93C207.98 533.4 207.61 533.03 206.85 532.85L205.57 532.55C204.17 532.23 203.54 531.52 203.54 530.47C203.54 529.17 204.74 528.26 206.35 528.26ZM223.73 538.86L222.55 538.86L222.55 528.36L223.69 528.36L223.69 529.57L223.83 529.57C224.09 529.17 224.54 528.26 226.03 528.26C227.97 528.26 229.3 529.79 229.3 532.2C229.3 534.62 227.97 536.16 226.05 536.16C224.58 536.16 224.09 535.24 223.83 534.82L223.73 534.82L223.73 538.86ZM173.6 536L172.44 536L170.12 528.36L171.35 528.36L173 534.2L173.08 534.2L174.71 528.36L175.96 528.36L177.57 534.19L177.65 534.19L179.3 528.36L180.53 528.36L178.21 536L177.05 536L175.38 530.13L175.27 530.13L173.6 536ZM220.41 536L219.23 536L219.23 528.36L220.41 528.36L220.41 536ZM193.36 529.31C192.02 529.31 191.18 530.37 191.1 531.56L195.45 531.56C195.45 530.27 194.63 529.31 193.36 529.31ZM225.9 529.31C224.47 529.31 223.71 530.47 223.71 532.18C223.71 533.91 224.49 535.1 225.9 535.1C227.37 535.1 228.12 533.81 228.12 532.18C228.12 530.57 227.39 529.31 225.9 529.31Z" fill="#191B1E" fill-opacity="1.000000" fill-rule="evenodd"/>
	<rect id="Frame 39639" rx="9.500000" width="109.000000" height="53.000000" transform="translate(140.000000 412.500000)" fill="#FBC101" fill-opacity="1.000000"/>
	<path id="Gromadyanstvo.com.ua піклується про безпеку та збереження даних користувача" d="M174.16 425.29C174.16 425.73 173.79 426.08 173.33 426.08C172.87 426.08 172.49 425.73 172.49 425.29C172.49 424.85 172.87 424.5 173.33 424.5C173.79 424.5 174.16 424.85 174.16 425.29ZM209.58 425.29C209.58 425.73 209.2 426.08 208.75 426.08C208.29 426.08 207.91 425.73 207.91 425.29C207.91 424.85 208.29 424.5 208.75 424.5C209.2 424.5 209.58 424.85 209.58 425.29ZM165.91 435L164.68 435L164.68 424.81L170.78 424.81L170.78 425.91L165.91 425.91L165.91 429.35L170.32 429.35L170.32 430.44L165.91 430.44L165.91 435ZM219.36 424.81L220.54 424.81L220.54 435L219.36 435L219.36 424.81ZM179.17 428.31C178.05 428.31 177.22 429.07 177.22 430.4L177.22 435L176.05 435L176.05 427.36L177.19 427.36L177.19 428.55L177.28 428.55C177.64 427.78 178.36 427.26 179.51 427.26C181.06 427.26 182.1 428.19 182.1 430.14L182.1 435L180.92 435L180.92 430.22C180.92 429.02 180.26 428.31 179.17 428.31ZM188.76 433.96C188.52 434.46 187.82 435.17 186.49 435.17C185.04 435.17 183.88 434.32 183.88 432.83C183.88 431.08 185.43 430.76 186.85 430.58C188.24 430.4 188.82 430.45 188.82 429.89L188.82 429.84C188.82 428.87 188.29 428.29 187.21 428.29C186.09 428.29 185.48 428.89 185.22 429.45L184.1 429.05C184.7 427.66 186.01 427.26 187.17 427.26C188.14 427.26 189.99 427.54 189.99 429.96L189.99 435L188.82 435L188.82 433.96L188.76 433.96ZM195.26 428.31C194.14 428.31 193.31 429.07 193.31 430.4L193.31 435L192.14 435L192.14 427.36L193.27 427.36L193.27 428.55L193.37 428.55C193.73 427.78 194.45 427.26 195.6 427.26C197.15 427.26 198.18 428.19 198.18 430.14L198.18 435L197.01 435L197.01 430.22C197.01 429.02 196.35 428.31 195.26 428.31ZM206.44 432.77C206.24 434.12 205.12 435.16 203.44 435.16C201.29 435.16 199.97 433.51 199.97 431.22C199.97 428.89 201.35 427.26 203.41 427.26C205.02 427.26 206.24 428.21 206.44 429.65L205.26 429.65C205.09 428.95 204.47 428.31 203.44 428.31C202.06 428.31 201.15 429.45 201.15 431.18C201.15 432.95 202.04 434.1 203.44 434.1C204.35 434.1 205.04 433.6 205.26 432.77L206.44 432.77ZM215.98 433.96C215.74 434.46 215.05 435.17 213.72 435.17C212.26 435.17 211.11 434.32 211.11 432.83C211.11 431.08 212.66 430.76 214.07 430.58C215.47 430.4 216.04 430.45 216.04 429.89L216.04 429.84C216.04 428.87 215.51 428.29 214.43 428.29C213.31 428.29 212.7 428.89 212.44 429.45L211.33 429.05C211.93 427.66 213.24 427.26 214.39 427.26C215.37 427.26 217.22 427.54 217.22 429.96L217.22 435L216.04 435L216.04 433.96L215.98 433.96ZM173.9 435L172.73 435L172.73 427.36L173.9 427.36L173.9 435ZM209.32 435L208.15 435L208.15 427.36L209.32 427.36L209.32 435ZM185.06 432.89C185.06 433.7 185.74 434.12 186.67 434.12C188.06 434.12 188.82 433.19 188.82 432.23L188.82 431.16C188.62 431.4 187.29 431.54 186.79 431.59C185.87 431.71 185.06 431.99 185.06 432.89ZM212.28 432.89C212.28 433.7 212.96 434.12 213.89 434.12C215.29 434.12 216.04 433.19 216.04 432.23L216.04 431.16C215.84 431.4 214.51 431.54 214.01 431.59C213.1 431.71 212.28 431.99 212.28 432.89ZM193.09 442.29C193.09 442.73 192.72 443.08 192.26 443.08C191.8 443.08 191.42 442.73 191.42 442.29C191.42 441.85 191.8 441.5 192.26 441.5C192.72 441.5 193.09 441.85 193.09 442.29ZM205.1 442.29C205.1 442.73 204.73 443.08 204.27 443.08C203.81 443.08 203.43 442.73 203.43 442.29C203.43 441.85 203.81 441.5 204.27 441.5C204.73 441.5 205.1 441.85 205.1 442.29ZM211.75 442.29C211.75 442.73 211.37 443.08 210.91 443.08C210.45 443.08 210.08 442.73 210.08 442.29C210.08 441.85 210.45 441.5 210.91 441.5C211.37 441.5 211.75 441.85 211.75 442.29ZM166.01 452L164.78 452L164.78 441.81L170.88 441.81L170.88 442.91L166.01 442.91L166.01 446.35L170.42 446.35L170.42 447.44L166.01 447.44L166.01 452ZM172.83 441.81L174 441.81L174 452L172.83 452L172.83 441.81ZM196.27 452L195.14 452L195.14 441.81L196.32 441.81L196.32 445.57L196.41 445.57C196.67 445.17 197.13 444.26 198.62 444.26C200.55 444.26 201.88 445.79 201.88 448.2C201.88 450.62 200.55 452.16 198.64 452.16C197.17 452.16 196.67 451.24 196.41 450.82L196.27 450.82L196.27 452ZM206.99 441.81L208.17 441.81L208.17 452L206.99 452L206.99 441.81ZM215.33 444.36L216.96 444.36L216.96 445.35L215.33 445.35L215.33 449.81C215.33 450.8 215.82 450.96 216.34 450.96C216.6 450.96 216.76 450.92 216.86 450.9L217.1 451.95C216.94 452.02 216.66 452.09 216.22 452.09C215.23 452.09 214.15 451.46 214.15 450.13L214.15 445.35L213 445.35L213 444.36L214.15 444.36L214.15 442.53L215.33 442.53L215.33 444.36ZM182.39 450.22C182.04 451.38 180.9 452.16 179.35 452.16C177.14 452.16 175.79 450.58 175.79 448.24C175.79 445.89 177.16 444.26 179.23 444.26C180.82 444.26 182.51 445.23 182.51 448.08L182.51 448.57L176.97 448.57C177.02 450.21 177.97 451.1 179.35 451.1C180.27 451.1 180.96 450.7 181.26 449.91L182.39 450.22ZM183.63 444.36L184.98 444.36L186.81 447.48L188.64 444.36L189.99 444.36L187.53 448.18L189.99 452L188.64 452L186.81 449.03L184.98 452L183.63 452L186.05 448.18L183.63 444.36ZM192.83 452L191.66 452L191.66 444.36L192.83 444.36L192.83 452ZM204.84 452L203.67 452L203.67 444.36L204.84 444.36L204.84 452ZM211.49 452L210.31 452L210.31 444.36L211.49 444.36L211.49 452ZM221.73 453.11C221.29 454.3 220.54 454.86 219.48 454.86C219.09 454.86 218.75 454.78 218.63 454.72L218.92 453.69C219.78 453.91 220.31 453.8 220.74 452.63L220.95 452.04L218.13 444.36L219.4 444.36L221.51 450.44L221.59 450.44L223.7 444.36L224.97 444.36L221.73 453.11ZM179.23 445.31C177.89 445.31 177.05 446.37 176.97 447.56L181.32 447.56C181.32 446.27 180.5 445.31 179.23 445.31ZM198.48 445.31C197.05 445.31 196.29 446.47 196.29 448.18C196.29 449.91 197.07 451.1 198.48 451.1C199.96 451.1 200.71 449.81 200.71 448.18C200.71 446.57 199.98 445.31 198.48 445.31Z" fill="#191B1E" fill-opacity="1.000000" fill-rule="evenodd"/>
	<rect id="Frame 39640" rx="9.500000" width="109.000000" height="53.000000" transform="translate(140.000000 328.500000)" fill="#FBC101" fill-opacity="1.000000"/>
	<path id="Gromadyanstvo.com.ua піклується про безпеку та збереження даних користувача" d="M183.54 349.79C183.54 350.23 183.16 350.58 182.7 350.58C182.25 350.58 181.87 350.23 181.87 349.79C181.87 349.35 182.25 349 182.7 349C183.16 349 183.54 349.35 183.54 349.79ZM169.82 359.5L169.82 349.31L171.29 349.31L174.75 357.77L174.87 357.77L178.33 349.31L179.8 349.31L179.8 359.5L178.65 359.5L178.65 351.76L178.55 351.76L175.36 359.5L174.25 359.5L171.07 351.76L170.97 351.76L170.97 359.5L169.82 359.5ZM185.43 349.31L186.6 349.31L186.6 359.5L185.43 359.5L185.43 349.31ZM194.99 357.72C194.63 358.88 193.5 359.66 191.95 359.66C189.74 359.66 188.39 358.08 188.39 355.74C188.39 353.39 189.76 351.76 191.83 351.76C193.42 351.76 195.11 352.73 195.11 355.58L195.11 356.07L189.57 356.07C189.62 357.71 190.57 358.6 191.95 358.6C192.87 358.6 193.56 358.2 193.86 357.41L194.99 357.72ZM201.42 358.46C201.18 358.96 200.48 359.67 199.15 359.67C197.7 359.67 196.54 358.82 196.54 357.33C196.54 355.58 198.09 355.26 199.51 355.08C200.9 354.9 201.47 354.95 201.47 354.39L201.47 354.34C201.47 353.37 200.94 352.79 199.86 352.79C198.75 352.79 198.14 353.39 197.88 353.95L196.76 353.55C197.36 352.16 198.67 351.76 199.82 351.76C200.8 351.76 202.65 352.04 202.65 354.46L202.65 359.5L201.47 359.5L201.47 358.46L201.42 358.46ZM211.18 359.71C211.18 361.68 209.71 362.52 207.88 362.52C206.17 362.52 205.23 361.79 204.76 360.99L205.69 360.33C206.01 360.75 206.49 361.48 207.88 361.48C209.11 361.48 210.01 360.91 210.01 359.64L210.01 358.08L209.91 358.08C209.65 358.5 209.17 359.38 207.68 359.38C205.83 359.38 204.44 358.02 204.44 355.64C204.44 353.29 205.77 351.76 207.7 351.76C209.19 351.76 209.67 352.67 209.93 353.07L210.05 353.07L210.05 351.86L211.18 351.86L211.18 359.71ZM219.57 357.72C219.21 358.88 218.08 359.66 216.53 359.66C214.32 359.66 212.97 358.08 212.97 355.74C212.97 353.39 214.34 351.76 216.41 351.76C218 351.76 219.69 352.73 219.69 355.58L219.69 356.07L214.15 356.07C214.2 357.71 215.15 358.6 216.53 358.6C217.45 358.6 218.14 358.2 218.44 357.41L219.57 357.72ZM183.28 359.5L182.11 359.5L182.11 351.86L183.28 351.86L183.28 359.5ZM191.83 352.81C190.49 352.81 189.65 353.87 189.57 355.06L193.92 355.06C193.92 353.77 193.1 352.81 191.83 352.81ZM205.61 355.62C205.61 357.21 206.37 358.32 207.84 358.32C209.25 358.32 210.03 357.31 210.03 355.62C210.03 353.97 209.27 352.81 207.84 352.81C206.35 352.81 205.61 354.07 205.61 355.62ZM216.41 352.81C215.07 352.81 214.23 353.87 214.15 355.06L218.5 355.06C218.5 353.77 217.68 352.81 216.41 352.81ZM197.72 357.39C197.72 358.2 198.39 358.62 199.33 358.62C200.72 358.62 201.47 357.69 201.47 356.73L201.47 355.66C201.28 355.9 199.94 356.04 199.45 356.09C198.53 356.21 197.72 356.49 197.72 357.39Z" fill="#191B1E" fill-opacity="1.000000" fill-rule="evenodd"/>
	<rect id="Frame 39641" rx="9.500000" width="109.000000" height="53.000000" transform="translate(140.000000 244.500000)" fill="#FBC101" fill-opacity="1.000000"/>
	<path id="Gromadyanstvo.com.ua піклується про безпеку та збереження даних користувача" d="M174.71 265.79C174.71 266.23 174.33 266.58 173.87 266.58C173.42 266.58 173.04 266.23 173.04 265.79C173.04 265.35 173.42 265 173.87 265C174.33 265 174.71 265.35 174.71 265.79ZM153.09 275.5L153.09 265.31L154.56 265.31L158.03 273.77L158.14 273.77L161.6 265.31L163.07 265.31L163.07 275.5L161.92 275.5L161.92 267.76L161.82 267.76L158.64 275.5L157.53 275.5L154.34 267.76L154.24 267.76L154.24 275.5L153.09 275.5ZM186.48 267.86L188.11 267.86L188.11 268.85L186.48 268.85L186.48 273.31C186.48 274.3 186.98 274.46 187.49 274.46C187.75 274.46 187.91 274.42 188.01 274.4L188.25 275.45C188.09 275.52 187.82 275.59 187.38 275.59C186.38 275.59 185.31 274.96 185.31 273.63L185.31 268.85L184.15 268.85L184.15 267.86L185.31 267.86L185.31 266.03L186.48 266.03L186.48 267.86ZM169.9 274.46C169.66 274.96 168.96 275.67 167.63 275.67C166.18 275.67 165.02 274.82 165.02 273.33C165.02 271.58 166.57 271.26 167.99 271.08C169.38 270.9 169.95 270.95 169.95 270.39L169.95 270.34C169.95 269.37 169.42 268.79 168.34 268.79C167.23 268.79 166.62 269.39 166.36 269.95L165.24 269.55C165.84 268.16 167.15 267.76 168.3 267.76C169.28 267.76 171.13 268.04 171.13 270.46L171.13 275.5L169.95 275.5L169.95 274.46L169.9 274.46ZM179.72 268.81C178.6 268.81 177.77 269.57 177.77 270.9L177.77 275.5L176.6 275.5L176.6 267.86L177.73 267.86L177.73 269.05L177.83 269.05C178.19 268.28 178.9 267.76 180.06 267.76C181.6 267.76 182.64 268.69 182.64 270.64L182.64 275.5L181.47 275.5L181.47 270.72C181.47 269.52 180.81 268.81 179.72 268.81ZM196.05 273.72C195.69 274.88 194.56 275.66 193 275.66C190.8 275.66 189.44 274.08 189.44 271.74C189.44 269.39 190.82 267.76 192.88 267.76C194.47 267.76 196.17 268.73 196.17 271.58L196.17 272.07L190.62 272.07C190.68 273.71 191.63 274.6 193 274.6C193.92 274.6 194.61 274.2 194.91 273.41L196.05 273.72ZM201.08 268.81C199.95 268.81 199.13 269.57 199.13 270.9L199.13 275.5L197.96 275.5L197.96 267.86L199.09 267.86L199.09 269.05L199.19 269.05C199.55 268.28 200.26 267.76 201.42 267.76C202.96 267.76 204 268.69 204 270.64L204 275.5L202.83 275.5L202.83 270.72C202.83 269.52 202.17 268.81 201.08 268.81ZM210.66 274.46C210.42 274.96 209.73 275.67 208.4 275.67C206.94 275.67 205.79 274.82 205.79 273.33C205.79 271.58 207.34 271.26 208.75 271.08C210.15 270.9 210.72 270.95 210.72 270.39L210.72 270.34C210.72 269.37 210.19 268.79 209.11 268.79C207.99 268.79 207.38 269.39 207.12 269.95L206.01 269.55C206.61 268.16 207.92 267.76 209.07 267.76C210.05 267.76 211.9 268.04 211.9 270.46L211.9 275.5L210.72 275.5L210.72 274.46L210.66 274.46ZM217.17 268.81C216.04 268.81 215.22 269.57 215.22 270.9L215.22 275.5L214.04 275.5L214.04 267.86L215.18 267.86L215.18 269.05L215.28 269.05C215.64 268.28 216.35 267.76 217.51 267.76C219.05 267.76 220.09 268.69 220.09 270.64L220.09 275.5L218.92 275.5L218.92 270.72C218.92 269.52 218.25 268.81 217.17 268.81ZM228.34 273.27C228.14 274.62 227.03 275.66 225.34 275.66C223.19 275.66 221.88 274.01 221.88 271.72C221.88 269.39 223.25 267.76 225.32 267.76C226.93 267.76 228.14 268.71 228.34 270.15L227.17 270.15C226.99 269.45 226.37 268.81 225.34 268.81C223.97 268.81 223.05 269.95 223.05 271.68C223.05 273.45 223.95 274.6 225.34 274.6C226.25 274.6 226.95 274.1 227.17 273.27L228.34 273.27ZM236.3 273.72C235.94 274.88 234.81 275.66 233.25 275.66C231.05 275.66 229.69 274.08 229.69 271.74C229.69 269.39 231.07 267.76 233.13 267.76C234.72 267.76 236.42 268.73 236.42 271.58L236.42 272.07L230.87 272.07C230.93 273.71 231.88 274.6 233.25 274.6C234.17 274.6 234.86 274.2 235.16 273.41L236.3 273.72ZM174.45 275.5L173.28 275.5L173.28 267.86L174.45 267.86L174.45 275.5ZM192.88 268.81C191.54 268.81 190.7 269.87 190.62 271.06L194.97 271.06C194.97 269.77 194.16 268.81 192.88 268.81ZM233.13 268.81C231.79 268.81 230.95 269.87 230.87 271.06L235.22 271.06C235.22 269.77 234.41 268.81 233.13 268.81ZM166.2 273.39C166.2 274.2 166.87 274.62 167.81 274.62C169.2 274.62 169.95 273.69 169.95 272.73L169.95 271.66C169.76 271.9 168.42 272.04 167.93 272.09C167.01 272.21 166.2 272.49 166.2 273.39ZM206.97 273.39C206.97 274.2 207.64 274.62 208.58 274.62C209.97 274.62 210.72 273.69 210.72 272.73L210.72 271.66C210.52 271.9 209.19 272.04 208.69 272.09C207.78 272.21 206.97 272.49 206.97 273.39Z" fill="#191B1E" fill-opacity="1.000000" fill-rule="evenodd"/>
	<rect id="Frame 39642" rx="9.500000" width="109.000000" height="53.000000" transform="translate(140.000000 160.500000)" fill="#FBC101" fill-opacity="1.000000"/>
	<path id="Gromadyanstvo.com.ua піклується про безпеку та збереження даних користувача" d="M185.49 183.86L187.2 183.86L187.2 184.85L185.49 184.85L185.49 191.5L184.31 191.5L184.31 184.85L183.08 184.85L183.08 183.86L184.31 183.86L184.31 182.8C184.31 181.49 185.37 180.83 186.46 180.83C187.04 180.83 187.4 180.95 187.58 181.04L187.24 182.05C187.12 182.01 186.92 181.93 186.58 181.93C185.81 181.93 185.49 182.33 185.49 183.08L185.49 183.86ZM181.91 181.79C181.91 182.23 181.53 182.58 181.07 182.58C180.62 182.58 180.24 182.23 180.24 181.79C180.24 181.35 180.62 181 181.07 181C181.53 181 181.91 181.35 181.91 181.79ZM190.28 181.79C190.28 182.23 189.9 182.58 189.45 182.58C188.99 182.58 188.61 182.23 188.61 181.79C188.61 181.35 188.99 181 189.45 181C189.9 181 190.28 181.35 190.28 181.79ZM214.4 181.79C214.4 182.23 214.03 182.58 213.57 182.58C213.11 182.58 212.73 182.23 212.73 181.79C212.73 181.35 213.11 181 213.57 181C214.03 181 214.4 181.35 214.4 181.79ZM151.14 191.5L151.14 181.31L152.61 181.31L156.08 189.77L156.2 189.77L159.65 181.31L161.12 181.31L161.12 191.5L159.97 191.5L159.97 183.76L159.87 183.76L156.69 191.5L155.58 191.5L152.39 183.76L152.3 183.76L152.3 191.5L151.14 191.5ZM176.89 190.32C176.64 190.74 176.14 191.66 174.67 191.66C172.76 191.66 171.43 190.12 171.43 187.7C171.43 185.29 172.76 183.76 174.69 183.76C176.18 183.76 176.64 184.67 176.89 185.07L177 185.07L177 181.31L178.17 181.31L178.17 191.5L177.03 191.5L177.03 190.32L176.89 190.32ZM209.57 183.86L211.2 183.86L211.2 184.85L209.57 184.85L209.57 189.31C209.57 190.3 210.07 190.46 210.58 190.46C210.84 190.46 211 190.42 211.1 190.4L211.34 191.45C211.18 191.52 210.9 191.59 210.47 191.59C209.47 191.59 208.39 190.96 208.39 189.63L208.39 184.85L207.24 184.85L207.24 183.86L208.39 183.86L208.39 182.03L209.57 182.03L209.57 183.86ZM169.99 187.72C169.99 190.08 168.6 191.66 166.54 191.66C164.47 191.66 163.07 190.08 163.07 187.72C163.07 185.33 164.47 183.76 166.54 183.76C168.6 183.76 169.99 185.33 169.99 187.72ZM198.27 189.27C198.07 190.62 196.96 191.66 195.27 191.66C193.12 191.66 191.81 190.01 191.81 187.72C191.81 185.39 193.18 183.76 195.25 183.76C196.86 183.76 198.07 184.71 198.27 186.15L197.1 186.15C196.92 185.45 196.3 184.81 195.27 184.81C193.9 184.81 192.99 185.95 192.99 187.68C192.99 189.45 193.88 190.6 195.27 190.6C196.18 190.6 196.88 190.1 197.1 189.27L198.27 189.27ZM204.5 190.46C204.26 190.96 203.56 191.67 202.23 191.67C200.78 191.67 199.62 190.82 199.62 189.33C199.62 187.58 201.17 187.26 202.59 187.08C203.98 186.9 204.56 186.95 204.56 186.39L204.56 186.34C204.56 185.37 204.03 184.79 202.95 184.79C201.83 184.79 201.22 185.39 200.96 185.95L199.84 185.55C200.44 184.16 201.75 183.76 202.91 183.76C203.88 183.76 205.73 184.04 205.73 186.46L205.73 191.5L204.56 191.5L204.56 190.46L204.5 190.46ZM222.85 187.72C222.85 190.08 221.46 191.66 219.39 191.66C217.33 191.66 215.93 190.08 215.93 187.72C215.93 185.33 217.33 183.76 219.39 183.76C221.46 183.76 222.85 185.33 222.85 187.72ZM227.77 184.81C226.64 184.81 225.81 185.57 225.81 186.9L225.81 191.5L224.64 191.5L224.64 183.86L225.78 183.86L225.78 185.05L225.88 185.05C226.24 184.28 226.95 183.76 228.1 183.76C229.65 183.76 230.69 184.69 230.69 186.64L230.69 191.5L229.52 191.5L229.52 186.72C229.52 185.52 228.85 184.81 227.77 184.81ZM235.54 183.76C237.05 183.76 237.88 184.49 238.25 185.57L237.19 185.87C236.99 185.34 236.56 184.77 235.54 184.77C234.61 184.77 233.91 185.25 233.91 185.91C233.91 186.5 234.32 186.8 235.22 187.02L236.36 187.3C237.72 187.63 238.38 188.3 238.38 189.37C238.38 190.69 237.18 191.66 235.4 191.66C233.84 191.66 232.77 190.96 232.5 189.67L233.61 189.39C233.82 190.21 234.42 190.62 235.38 190.62C236.48 190.62 237.17 190.08 237.17 189.43C237.17 188.9 236.81 188.53 236.04 188.35L234.77 188.05C233.36 187.73 232.74 187.02 232.74 185.97C232.74 184.67 233.93 183.76 235.54 183.76ZM181.65 191.5L180.47 191.5L180.47 183.86L181.65 183.86L181.65 191.5ZM190.02 191.5L188.85 191.5L188.85 183.86L190.02 183.86L190.02 191.5ZM214.14 191.5L212.97 191.5L212.97 183.86L214.14 183.86L214.14 191.5ZM164.25 187.72C164.25 189.25 164.96 190.6 166.54 190.6C168.1 190.6 168.82 189.25 168.82 187.72C168.82 186.19 168.1 184.81 166.54 184.81C164.96 184.81 164.25 186.19 164.25 187.72ZM172.6 187.68C172.6 189.31 173.36 190.6 174.83 190.6C176.24 190.6 177.01 189.41 177.01 187.68C177.01 185.97 176.26 184.81 174.83 184.81C173.34 184.81 172.6 186.07 172.6 187.68ZM217.11 187.72C217.11 189.25 217.82 190.6 219.39 190.6C220.96 190.6 221.68 189.25 221.68 187.72C221.68 186.19 220.96 184.81 219.39 184.81C217.82 184.81 217.11 186.19 217.11 187.72ZM200.8 189.39C200.8 190.2 201.48 190.62 202.41 190.62C203.8 190.62 204.56 189.69 204.56 188.73L204.56 187.66C204.36 187.9 203.03 188.04 202.53 188.09C201.61 188.21 200.8 188.49 200.8 189.39Z" fill="#191B1E" fill-opacity="1.000000" fill-rule="evenodd"/>
	<path id="Vector 111" d="M288 397.36L250 439.5L288 481.3M288 397.36L250 523.1L288 481.3M288 397.36L250 608.71L288 481.3M250 695L288 481.3L250 183L288 397.36L250 695ZM288 481.3L250 353.89L288 397.36M288 481.3L250 268.27L288 397.36" stroke="#93A8BD" stroke-opacity="1.000000" stroke-width="1.000000"/>
	<path id="Vector 112" d="M138 185L107 438.99L138 692M107 438.99L138 606.56M107 438.99L138 521.78M107 438.99L138 438.99M107 438.99L138 354.22M107 438.99L138 269.44" stroke="#93A8BD" stroke-opacity="1.000000" stroke-width="1.000000"/>
	<rect id="Frame 39643" rx="9.500000" width="81.000000" height="59.000000" transform="translate(288.500000 453.500000)" fill="#FBC101" fill-opacity="1.000000"/>
	<path id="Gromadyanstvo.com.ua піклується про безпеку та збереження даних користувача" d="M316.07 478L309.55 478L309.55 467.81L311.7 467.81L311.7 476.22L316.07 476.22L316.07 478ZM324.39 475.81C324.1 477.23 322.82 478.15 320.93 478.15C318.58 478.15 317.14 476.63 317.14 474.21C317.14 471.86 318.6 470.26 320.85 470.26C322.86 470.26 324.44 471.54 324.44 474.14L324.44 474.72L319.23 474.72L319.23 474.72C319.23 475.86 319.91 476.56 320.97 476.56C321.67 476.56 322.22 476.26 322.43 475.68L324.39 475.81ZM330.23 476.94C329.85 477.65 329.13 478.14 327.99 478.14C326.54 478.14 325.46 477.37 325.46 475.86C325.46 474.16 326.82 473.65 328.33 473.51C329.66 473.38 330.18 473.32 330.18 472.82L330.18 472.8C330.18 472.17 329.77 471.81 329.04 471.81C328.29 471.81 327.83 472.18 327.69 472.69L325.73 472.53C326.02 471.14 327.23 470.26 329.05 470.26C330.76 470.26 332.3 471.03 332.3 472.84L332.3 478L330.29 478L330.29 476.94L330.23 476.94ZM337.04 470.26C338.97 470.26 340.11 471.13 340.3 472.54L338.36 472.66C338.25 472.16 337.81 471.76 337.08 471.76C336.42 471.76 335.91 472.06 335.91 472.52C335.91 472.89 336.17 473.13 336.88 473.28L338.26 473.56C339.75 473.86 340.47 474.53 340.47 475.63C340.47 477.13 339.05 478.15 337.07 478.15C335.05 478.15 333.8 477.24 333.6 475.78L335.69 475.67C335.82 476.3 336.32 476.62 337.08 476.62C337.81 476.62 338.31 476.3 338.32 475.84C338.31 475.46 338.01 475.22 337.34 475.08L336.02 474.82C334.52 474.52 333.8 473.78 333.81 472.64C333.8 471.16 335.09 470.26 337.04 470.26ZM348.75 475.81C348.45 477.23 347.18 478.15 345.29 478.15C342.93 478.15 341.5 476.63 341.5 474.21C341.5 471.86 342.95 470.26 345.2 470.26C347.22 470.26 348.79 471.54 348.79 474.14L348.79 474.72L343.59 474.72L343.59 474.72C343.59 475.86 344.26 476.56 345.32 476.56C346.03 476.56 346.57 476.26 346.79 475.68L348.75 475.81ZM320.88 471.84C319.94 471.84 319.28 472.54 319.23 473.41L322.44 473.41C322.44 472.5 321.8 471.84 320.88 471.84ZM345.24 471.84C344.3 471.84 343.64 472.54 343.59 473.41L346.8 473.41C346.79 472.5 346.16 471.84 345.24 471.84ZM327.49 475.79C327.49 476.38 327.95 476.68 328.6 476.68C329.53 476.68 330.19 476.07 330.19 475.26L330.19 474.45C329.94 474.63 329.18 474.73 328.72 474.8C327.98 474.9 327.49 475.2 327.49 475.79Z" fill="#191B1E" fill-opacity="1.000000" fill-rule="evenodd"/>
	<rect id="Frame 39644" rx="9.500000" width="81.000000" height="59.000000" transform="translate(288.500000 367.500000)" fill="#FBC101" fill-opacity="1.000000"/>
	<path id="Gromadyanstvo.com.ua піклується про безпеку та збереження даних користувача" d="M321.15 392L316.8 392L316.8 381.81L320.88 381.81C323.12 381.81 324.26 382.9 324.26 384.42C324.26 385.62 323.48 386.37 322.42 386.61L322.42 386.71C323.57 386.77 324.65 387.68 324.65 389.18C324.65 390.8 323.44 392 321.15 392ZM318.95 383.55L318.95 386.08L320.55 386.08C321.43 386.08 322.08 385.59 322.08 384.78C322.08 384.05 321.54 383.55 320.59 383.55L318.95 383.55ZM329.45 390.3C330.21 390.3 330.91 389.77 330.91 388.75L330.91 384.36L333.03 384.36L333.03 392L331 392L331 390.61L330.91 390.61C330.57 391.5 329.75 392.09 328.6 392.09C327.06 392.09 326.02 391.01 326.01 389.22L326.01 384.36L328.13 384.36L328.13 388.84C328.13 389.74 328.65 390.3 329.45 390.3ZM338.87 392.82C338.44 394.05 337.6 394.86 336.03 394.86C335.49 394.86 335 394.77 334.69 394.64L335.17 393.06C335.92 393.29 336.45 393.25 336.73 392.54L336.85 392.21L334.11 384.36L336.34 384.36L337.92 389.97L338 389.97L339.59 384.36L341.84 384.36L338.87 392.82ZM318.95 387.53L318.95 390.24L320.71 390.24C321.91 390.24 322.43 389.73 322.43 388.97C322.43 388.13 321.79 387.53 320.76 387.53L318.95 387.53Z" fill="#191B1E" fill-opacity="1.000000" fill-rule="evenodd"/>
	<rect id="Frame 39626" rx="9.500000" width="79.000000" height="85.000000" transform="translate(27.500000 397.500000)" fill="#FBC101" fill-opacity="1.000000"/>
	<path id="Gromadyanstvo.com.ua піклується про безпеку та збереження даних користувача" d="M50.36 424L42.91 424L42.91 412.36L45.37 412.36L45.37 421.97L50.36 421.97L50.36 424ZM59.88 421.5C59.54 423.12 58.08 424.17 55.92 424.17C53.23 424.17 51.59 422.44 51.59 419.67C51.59 416.98 53.26 415.16 55.83 415.16C58.13 415.16 59.93 416.62 59.93 419.59L59.93 420.25L53.98 420.25L53.98 420.26C53.98 421.56 54.75 422.36 55.97 422.36C56.77 422.36 57.39 422.01 57.64 421.35L59.88 421.5ZM66.55 422.78C66.12 423.6 65.29 424.16 64 424.16C62.33 424.16 61.1 423.28 61.1 421.56C61.1 419.61 62.65 419.03 64.38 418.87C65.89 418.72 66.49 418.65 66.49 418.09L66.49 418.05C66.49 417.34 66.02 416.92 65.2 416.92C64.33 416.92 63.81 417.35 63.64 417.93L61.41 417.75C61.74 416.16 63.12 415.16 65.21 415.16C67.15 415.16 68.91 416.03 68.91 418.11L68.91 424L66.62 424L66.62 422.78L66.55 422.78ZM74.34 415.16C76.54 415.16 77.84 416.15 78.05 417.76L75.84 417.89C75.72 417.33 75.22 416.87 74.38 416.87C73.63 416.87 73.04 417.21 73.04 417.73C73.04 418.16 73.34 418.43 74.15 418.61L75.73 418.93C77.43 419.27 78.25 420.03 78.25 421.29C78.25 423.01 76.63 424.17 74.37 424.17C72.05 424.17 70.64 423.14 70.41 421.47L72.79 421.34C72.94 422.05 73.51 422.42 74.37 422.42C75.22 422.42 75.78 422.05 75.79 421.53C75.78 421.1 75.44 420.82 74.68 420.67L73.16 420.37C71.46 420.02 70.64 419.18 70.64 417.87C70.64 416.19 72.1 415.16 74.34 415.16ZM87.71 421.5C87.37 423.12 85.92 424.17 83.76 424.17C81.07 424.17 79.43 422.44 79.43 419.67C79.43 416.98 81.09 415.16 83.66 415.16C85.97 415.16 87.77 416.62 87.77 419.59L87.77 420.25L81.82 420.25L81.82 420.26C81.82 421.56 82.59 422.36 83.8 422.36C84.61 422.36 85.23 422.01 85.48 421.35L87.71 421.5ZM55.87 416.96C54.79 416.96 54.04 417.76 53.98 418.75L57.65 418.75C57.64 417.71 56.92 416.96 55.87 416.96ZM83.7 416.96C82.63 416.96 81.87 417.76 81.82 418.75L85.49 418.75C85.48 417.71 84.75 416.96 83.7 416.96ZM63.41 421.48C63.41 422.14 63.95 422.49 64.69 422.49C65.75 422.49 66.51 421.79 66.51 420.87L66.51 419.95C66.22 420.14 65.36 420.27 64.83 420.34C63.98 420.46 63.41 420.8 63.41 421.48ZM70.17 446L67.74 446L67.74 437.27L70.09 437.27L70.09 438.79L70.18 438.79C70.5 437.71 71.3 437.14 72.28 437.14C72.53 437.14 72.83 437.18 73.04 437.23L73.04 439.37C72.81 439.3 72.35 439.25 72.02 439.25C70.95 439.25 70.17 439.98 70.17 441.06L70.17 446ZM66.16 441.67C66.16 444.35 64.52 446.17 61.87 446.17C59.22 446.17 57.57 444.35 57.57 441.67C57.57 438.96 59.22 437.16 61.87 437.16C64.52 437.16 66.16 438.96 66.16 441.67ZM60.04 441.65C60.04 443.17 60.66 444.29 61.88 444.29C63.08 444.29 63.71 443.17 63.71 441.65C63.71 440.12 63.08 439 61.88 439C60.66 439 60.04 440.12 60.04 441.65ZM58.03 468L53.06 468L53.06 456.36L57.72 456.36C60.28 456.36 61.58 457.6 61.58 459.34C61.58 460.71 60.69 461.57 59.48 461.84L59.48 461.96C60.8 462.02 62.03 463.06 62.03 464.78C62.03 466.63 60.64 468 58.03 468ZM55.52 458.35L55.52 461.23L57.34 461.23C58.35 461.23 59.1 460.67 59.1 459.75C59.1 458.91 58.48 458.35 57.39 458.35L55.52 458.35ZM67.52 466.06C68.39 466.06 69.19 465.45 69.18 464.28L69.18 459.27L71.6 459.27L71.6 468L69.28 468L69.28 466.41L69.19 466.41C68.8 467.43 67.85 468.11 66.54 468.11C64.78 468.11 63.59 466.87 63.58 464.82L63.58 459.27L66.01 459.27L66.01 464.39C66.01 465.42 66.6 466.06 67.52 466.06ZM78.28 468.94C77.78 470.35 76.83 471.27 75.03 471.27C74.42 471.27 73.85 471.17 73.51 471.02L74.05 469.21C74.9 469.47 75.51 469.43 75.83 468.62L75.97 468.25L72.84 459.27L75.39 459.27L77.19 465.68L77.28 465.68L79.11 459.27L81.67 459.27L78.28 468.94ZM55.52 462.89L55.52 465.98L57.52 465.98C58.9 465.98 59.5 465.41 59.5 464.53C59.5 463.57 58.76 462.89 57.58 462.89L55.52 462.89Z" fill="#191B1E" fill-opacity="1.000000" fill-rule="evenodd"/>
</svg>
