<svg width="17.790039" height="17.790802" viewBox="0 0 17.79 17.7908" fill="none" xmlns="http://www.w3.org/2000/svg" xmlns:xlink="http://www.w3.org/1999/xlink">
	<desc>
			Created with Pixso.
	</desc>
	<defs/>
	<path id="Vector" d="M3.74 6.97C4.69 6.1 5.94 5.63 7.23 5.66C8.52 5.69 9.75 6.21 10.66 7.12C10.84 7.31 10.94 7.56 10.94 7.83C10.94 8.09 10.83 8.34 10.65 8.52C10.46 8.71 10.21 8.81 9.95 8.82C9.69 8.82 9.43 8.72 9.24 8.54C8.97 8.26 8.63 8.04 8.27 7.89C7.91 7.74 7.52 7.66 7.12 7.66C6.73 7.66 6.34 7.74 5.97 7.89C5.61 8.04 5.28 8.26 5 8.54L2.88 10.66L2.76 10.79C2.24 11.37 1.98 12.13 2.01 12.91C2.05 13.69 2.38 14.42 2.95 14.95C3.52 15.49 4.27 15.78 5.05 15.77C5.83 15.76 6.57 15.45 7.12 14.9L8.54 13.49L8.62 13.41C8.82 13.25 9.08 13.17 9.33 13.2C9.59 13.22 9.82 13.34 9.99 13.53C10.16 13.72 10.25 13.97 10.25 14.22C10.24 14.48 10.13 14.72 9.95 14.9L8.54 16.32L8.38 16.47C7.42 17.35 6.15 17.82 4.84 17.78C3.53 17.74 2.29 17.19 1.38 16.24C0.48 15.3 -0.02 14.04 0 12.73C0.01 11.42 0.54 10.17 1.47 9.24L3.59 7.12L3.74 6.97ZM9.4 1.32C10.36 0.43 11.64 -0.04 12.94 0C14.25 0.04 15.49 0.59 16.4 1.54C17.3 2.48 17.8 3.74 17.79 5.05C17.77 6.36 17.24 7.61 16.32 8.54L14.19 10.66L14.04 10.81C13.09 11.68 11.84 12.15 10.55 12.12C9.26 12.09 8.03 11.57 7.12 10.66C6.94 10.47 6.84 10.22 6.84 9.95C6.84 9.69 6.95 9.44 7.13 9.26C7.32 9.07 7.57 8.97 7.83 8.96C8.1 8.96 8.35 9.06 8.54 9.24C8.82 9.52 9.15 9.74 9.51 9.89C9.87 10.05 10.26 10.12 10.66 10.12C11.05 10.12 11.44 10.05 11.81 9.89C12.17 9.74 12.5 9.52 12.78 9.24L14.9 7.12L15.02 6.99C15.54 6.41 15.8 5.65 15.77 4.87C15.73 4.09 15.4 3.36 14.83 2.83C14.26 2.29 13.51 2 12.73 2.01C11.96 2.02 11.21 2.33 10.66 2.88L9.24 4.29L9.16 4.37C8.96 4.53 8.7 4.6 8.45 4.58C8.2 4.56 7.96 4.44 7.79 4.25C7.62 4.06 7.53 3.81 7.54 3.56C7.55 3.3 7.65 3.06 7.83 2.88L9.25 1.47L9.4 1.32Z" fill="#191B1E" fill-opacity="1.000000" fill-rule="nonzero"/>
</svg>
