<svg width="16.000000" height="16.000000" viewBox="0 0 16 16" fill="none" xmlns="http://www.w3.org/2000/svg" xmlns:xlink="http://www.w3.org/1999/xlink">
	<desc>
			Created with Pixso.
	</desc>
	<defs/>
	<path id="Vector" d="M7.26 6.54L8.71 6.54L8.71 12.36L7.26 12.36L7.26 6.54ZM7.99 3.11C7.43 3.11 6.97 3.56 6.97 4.12C6.97 4.67 7.43 5.13 7.99 5.13C8.54 5.13 9 4.67 9 4.12C9 3.56 8.54 3.11 7.99 3.11ZM16 8C16 12.41 12.41 16 8 16C3.58 16 0 12.41 0 8C0 3.58 3.58 0 8 0C12.41 0 16 3.58 16 8ZM14.54 8C14.54 4.39 11.6 1.45 8 1.45C4.39 1.45 1.45 4.39 1.45 8C1.45 11.6 4.39 14.54 8 14.54C11.6 14.54 14.54 11.6 14.54 8L14.54 8Z" fill="#93A8BD" fill-opacity="1.000000" fill-rule="nonzero"/>
</svg>
