<svg width="143.000000" height="60.000000" viewBox="0 0 143 60" fill="none" xmlns="http://www.w3.org/2000/svg" xmlns:xlink="http://www.w3.org/1999/xlink">
	<desc>
			Created with Pixso.
	</desc>
	<defs/>
	<path id="Subtract" d="M57.9039 30C49.6197 30 42.9039 23.2843 42.9039 15C42.9039 6.71573 49.6197 0 57.9039 0L70.1767 0L70.1767 30L57.9039 30ZM72.9039 30L85.1767 30C93.4609 30 100.177 23.2843 100.177 15C100.177 6.71573 93.4609 0 85.1767 0L72.9039 0L72.9039 30ZM53.5147 7.09918L53.5147 23.6281L64.6847 23.6281L64.6847 20.0124L58.0021 20.0124L58.0021 7.09918L53.5147 7.09918ZM78.0602 23.6281L78.0602 7.09918L85.227 7.09918Q87.1156 7.09918 88.3988 7.60764C89.2597 7.94659 89.9081 8.42548 90.3439 9.04422Q90.502 9.26605 90.6224 9.50684Q91.0057 10.2733 91.0057 11.2314C91.0057 11.8394 90.8712 12.3936 90.6021 12.894C90.3385 13.3944 89.9672 13.8141 89.4884 14.153C89.0095 14.4866 88.4499 14.718 87.8096 14.8471L87.8096 15.0085C88.5199 15.0354 89.1655 15.2157 89.7466 15.5493Q90.143 15.7731 90.466 16.0755Q90.8532 16.438 91.1348 16.9132Q91.1376 16.9179 91.1404 16.9226Q91.6513 17.7831 91.6513 18.9471C91.6513 19.851 91.4146 20.6554 90.9411 21.3602C90.473 22.0651 89.8058 22.6193 88.9396 23.0228C88.0733 23.4263 87.0402 23.6281 85.8404 23.6281L78.0602 23.6281ZM82.5475 13.7818L84.3876 13.7818C84.7804 13.7818 85.1275 13.7199 85.4288 13.5961C85.7301 13.4724 85.9641 13.2948 86.1309 13.0635C86.3031 12.8267 86.3892 12.5389 86.3892 12.1999C86.3892 11.6888 86.2063 11.2987 85.8404 11.0296C85.4745 10.7552 85.0118 10.618 84.4522 10.618L82.5475 10.618L82.5475 13.7818ZM82.5475 20.0447L84.6459 20.0447C85.3992 20.0447 85.9641 19.9048 86.3408 19.625C86.7174 19.3398 86.9057 18.9202 86.9057 18.366C86.9057 17.9786 86.8169 17.6504 86.6394 17.3813C86.4618 17.1123 86.209 16.9078 85.8807 16.7679C85.5579 16.6281 85.1678 16.5581 84.7105 16.5581L82.5475 16.5581L82.5475 20.0447Z" clip-rule="evenodd" fill="#FFFFFF" fill-opacity="1.000000" fill-rule="evenodd"/>
	<path id="Vector 107" d="M46.04 24C46.04 24 38.54 15 32.04 14.12C38.54 13.5 46.04 5.85 46.04 5.85L46.04 24Z" fill="#FFFFFF" fill-opacity="1.000000" fill-rule="evenodd"/>
	<path id="Vector 108" d="M97.04 24.15C97.04 24.15 104.43 15.27 110.85 14.41C104.43 13.78 97.01 5.95 97.01 5.95L97.04 24.15Z" fill="#FFFFFF" fill-opacity="1.000000" fill-rule="evenodd"/>
	<path id="Lease vs Buy" d="M92.94 44.09L91.65 44.09C91.49 42.47 90.11 41.44 88.19 41.44C86.15 41.44 84.76 42.58 84.76 44.14C84.76 45.68 86.24 46.4 87.65 46.79L89.19 47.23C91.04 47.75 93.14 48.72 93.14 51.13C93.14 53.46 91.25 55.24 88.09 55.24C85.12 55.24 83.25 53.66 83.09 51.36L84.46 51.36C84.6 53.09 86.13 54.03 88.09 54.03C90.27 54.03 91.85 52.86 91.85 51.11C91.85 49.62 90.62 48.95 88.81 48.43L87.07 47.91C84.79 47.24 83.47 46.07 83.47 44.2C83.47 41.86 85.54 40.24 88.22 40.24C90.93 40.24 92.84 41.87 92.94 44.09ZM50.82 44.63L47.87 44.63C47.76 43.49 46.85 42.82 45.38 42.82C43.87 42.82 43.04 43.51 43.04 44.45C43.02 45.49 44.08 45.96 45.35 46.25L46.65 46.56C49.18 47.13 51.01 48.42 51.01 50.84C51.01 53.51 48.92 55.2 45.37 55.2C41.84 55.2 39.59 53.57 39.51 50.43L42.48 50.43C42.58 51.88 43.73 52.62 45.33 52.62C46.9 52.62 47.9 51.9 47.91 50.83C47.9 49.85 47.02 49.4 45.44 49.01L43.85 48.62C41.4 48.03 39.88 46.8 39.89 44.65C39.88 42.01 42.21 40.25 45.4 40.25C48.64 40.25 50.77 42.04 50.82 44.63ZM11.07 55L1.76 55L1.76 40.45L4.84 40.45L4.84 52.46L11.07 52.46L11.07 55ZM22.94 55L13.11 55L13.11 40.45L22.91 40.45L22.91 42.98L16.19 42.98L16.19 46.45L22.41 46.45L22.41 48.98L16.19 48.98L16.19 52.46L22.94 52.46L22.94 55ZM28.94 51.68L27.87 55L24.57 55L29.59 40.45L33.55 40.45L38.57 55L35.27 55L34.19 51.68L28.94 51.68ZM62.9 55L53.07 55L53.07 40.45L62.87 40.45L62.87 42.98L56.15 42.98L56.15 46.45L62.37 46.45L62.37 48.98L56.15 48.98L56.15 52.46L62.9 52.46L62.9 55ZM69.26 40.45L70.65 40.45L75.2 53.27L75.32 53.27L79.87 40.45L81.26 40.45L75.97 55L74.55 55L69.26 40.45ZM107.51 55L101.3 55L101.3 40.45L107.12 40.45C110.33 40.45 111.95 42 111.95 44.18C111.95 45.89 110.83 46.96 109.33 47.3L109.33 47.45C110.98 47.52 112.52 48.82 112.52 50.98C112.52 53.29 110.78 55 107.51 55ZM123.5 49.63L123.5 40.45L126.58 40.45L126.58 49.9C126.58 53.08 124.16 55.2 120.55 55.2C116.92 55.2 114.52 53.08 114.52 49.9L114.52 40.45L117.59 40.45L117.59 49.63C117.59 51.29 118.76 52.5 120.55 52.5C122.33 52.5 123.5 51.29 123.5 49.63ZM133.56 49.85L128.25 40.45L131.7 40.45L135.01 46.71L135.15 46.71L138.47 40.45L141.92 40.45L136.61 49.85L136.61 55L133.56 55L133.56 49.85ZM104.37 42.93L104.37 46.54L106.65 46.54C107.91 46.54 108.85 45.84 108.85 44.69C108.85 43.64 108.08 42.93 106.71 42.93L104.37 42.93ZM31.52 43.77L29.73 49.28L33.42 49.28L31.63 43.77L31.52 43.77ZM104.37 48.62L104.37 52.48L106.88 52.48C108.6 52.48 109.35 51.76 109.35 50.67C109.35 49.47 108.43 48.62 106.95 48.62L104.37 48.62Z" fill="#FFFFFF" fill-opacity="1.000000" fill-rule="evenodd"/>
</svg>
