<svg width="143.000000" height="60.000000" viewBox="0 0 143 60" fill="none" xmlns="http://www.w3.org/2000/svg" xmlns:xlink="http://www.w3.org/1999/xlink">
	<desc>
			Created with Pixso.
	</desc>
	<defs/>
	<path id="Subtract" d="M57.8636 30C49.5794 30 42.8636 23.2843 42.8636 15C42.8636 6.71573 49.5794 0 57.8636 0L70.1364 0L70.1364 30L57.8636 30ZM72.8636 30L85.1364 30C93.4206 30 100.136 23.2843 100.136 15C100.136 6.71573 93.4206 0 85.1364 0L72.8636 0L72.8636 30ZM64.6439 23.3636L53.4744 23.3636L53.4744 6.8342L57.9633 6.8342L57.9633 19.7459L64.6439 19.7459L64.6439 23.3636ZM78.0199 23.3636L85.7991 23.3636C89.3891 23.3636 91.6085 21.405 91.6085 18.6806C91.6085 16.3502 89.894 14.8243 87.7689 14.7466L87.7689 14.5801C89.6832 14.2028 90.9649 12.7935 90.9649 10.968C90.9649 8.44885 88.9618 6.8342 85.1888 6.8342L78.0199 6.8342L78.0199 23.3636ZM82.5088 13.5148L82.5088 10.3521L84.4119 10.3521C85.5272 10.3521 86.3484 10.918 86.3484 11.9334C86.3484 12.9544 85.5272 13.5148 84.3454 13.5148L82.5088 13.5148ZM82.5088 19.7792L82.5088 16.2946L84.6727 16.2946C86.0322 16.2946 86.8644 16.9383 86.8644 18.1035C86.8644 19.2077 86.1154 19.7792 84.6061 19.7792L82.5088 19.7792Z" clip-rule="evenodd" fill="#FFFFFF" fill-opacity="1.000000" fill-rule="evenodd"/>
	<path id="Lease vs Buy" d="M92.94 44.09L91.65 44.09C91.49 42.47 90.11 41.44 88.19 41.44C86.15 41.44 84.76 42.58 84.76 44.14C84.76 45.68 86.24 46.4 87.65 46.79L89.19 47.23C91.04 47.75 93.14 48.72 93.14 51.13C93.14 53.46 91.25 55.24 88.09 55.24C85.12 55.24 83.25 53.66 83.09 51.36L84.46 51.36C84.6 53.09 86.13 54.03 88.09 54.03C90.27 54.03 91.85 52.86 91.85 51.11C91.85 49.62 90.62 48.95 88.81 48.43L87.07 47.91C84.79 47.24 83.47 46.07 83.47 44.2C83.47 41.86 85.54 40.24 88.22 40.24C90.93 40.24 92.84 41.87 92.94 44.09ZM50.82 44.63L47.87 44.63C47.76 43.49 46.85 42.82 45.38 42.82C43.87 42.82 43.04 43.51 43.04 44.45C43.02 45.49 44.08 45.96 45.35 46.25L46.65 46.56C49.18 47.13 51.01 48.42 51.01 50.84C51.01 53.51 48.92 55.2 45.37 55.2C41.84 55.2 39.59 53.57 39.51 50.43L42.48 50.43C42.58 51.88 43.73 52.62 45.33 52.62C46.9 52.62 47.9 51.9 47.91 50.83C47.9 49.85 47.02 49.4 45.44 49.01L43.85 48.62C41.4 48.03 39.88 46.8 39.89 44.65C39.88 42.01 42.21 40.25 45.4 40.25C48.64 40.25 50.77 42.04 50.82 44.63ZM11.07 55L1.76 55L1.76 40.45L4.84 40.45L4.84 52.46L11.07 52.46L11.07 55ZM22.94 55L13.11 55L13.11 40.45L22.91 40.45L22.91 42.98L16.19 42.98L16.19 46.45L22.41 46.45L22.41 48.98L16.19 48.98L16.19 52.46L22.94 52.46L22.94 55ZM28.94 51.68L27.87 55L24.57 55L29.59 40.45L33.55 40.45L38.57 55L35.27 55L34.19 51.68L28.94 51.68ZM62.9 55L53.07 55L53.07 40.45L62.87 40.45L62.87 42.98L56.15 42.98L56.15 46.45L62.37 46.45L62.37 48.98L56.15 48.98L56.15 52.46L62.9 52.46L62.9 55ZM69.26 40.45L70.65 40.45L75.2 53.27L75.32 53.27L79.87 40.45L81.26 40.45L75.97 55L74.55 55L69.26 40.45ZM107.51 55L101.3 55L101.3 40.45L107.12 40.45C110.33 40.45 111.95 42 111.95 44.18C111.95 45.89 110.83 46.96 109.33 47.3L109.33 47.45C110.98 47.52 112.52 48.82 112.52 50.98C112.52 53.29 110.78 55 107.51 55ZM123.5 49.63L123.5 40.45L126.58 40.45L126.58 49.9C126.58 53.08 124.16 55.2 120.55 55.2C116.92 55.2 114.52 53.08 114.52 49.9L114.52 40.45L117.59 40.45L117.59 49.63C117.59 51.29 118.76 52.5 120.55 52.5C122.33 52.5 123.5 51.29 123.5 49.63ZM133.56 49.85L128.25 40.45L131.7 40.45L135.01 46.71L135.15 46.71L138.47 40.45L141.92 40.45L136.61 49.85L136.61 55L133.56 55L133.56 49.85ZM104.37 42.93L104.37 46.54L106.65 46.54C107.91 46.54 108.85 45.84 108.85 44.69C108.85 43.64 108.08 42.93 106.71 42.93L104.37 42.93ZM31.52 43.77L29.73 49.28L33.42 49.28L31.63 43.77L31.52 43.77ZM104.37 48.62L104.37 52.48L106.88 52.48C108.6 52.48 109.35 51.76 109.35 50.67C109.35 49.47 108.43 48.62 106.95 48.62L104.37 48.62Z" fill="#FFFFFF" fill-opacity="1.000000" fill-rule="evenodd"/>
</svg>
