<svg width="287.000000" height="285.000000" viewBox="0 0 287 285" fill="none" xmlns="http://www.w3.org/2000/svg" xmlns:xlink="http://www.w3.org/1999/xlink">
	<desc>
			Created with Pixso.
	</desc>
	<defs>
		<clipPath id="clip12_2330">
			<rect id="Frame" rx="0.000000" width="286.901581" height="284.901581" transform="translate(0.049209 0.049209)" fill="white" fill-opacity="0"/>
		</clipPath>
		<linearGradient x1="258.270569" y1="84.438065" x2="162.360687" y2="223.080612" id="paint_linear_12_2340_0" gradientUnits="userSpaceOnUse">
			<stop stop-color="#FFC444"/>
			<stop offset="1.000000" stop-color="#F36F56"/>
		</linearGradient>
		<linearGradient x1="192.001282" y1="4.091066" x2="168.549973" y2="168.135956" id="paint_linear_12_2350_0" gradientUnits="userSpaceOnUse">
			<stop stop-color="#AA80F9"/>
			<stop offset="1.000000" stop-color="#6165D7"/>
		</linearGradient>
		<linearGradient x1="230.972824" y1="34.643536" x2="167.356781" y2="173.616699" id="paint_linear_12_2365_0" gradientUnits="userSpaceOnUse">
			<stop stop-color="#FF9085"/>
			<stop offset="1.000000" stop-color="#FB6FBB"/>
		</linearGradient>
		<linearGradient x1="23.294798" y1="166.725128" x2="306.687103" y2="166.725128" id="paint_linear_12_2377_0" gradientUnits="userSpaceOnUse">
			<stop stop-color="#FFC444"/>
			<stop offset="1.000000" stop-color="#F36F56"/>
		</linearGradient>
		<linearGradient x1="97.144958" y1="237.939224" x2="82.698227" y2="290.073792" id="paint_linear_12_2399_0" gradientUnits="userSpaceOnUse">
			<stop stop-color="#311944"/>
			<stop offset="1.000000" stop-color="#893976"/>
		</linearGradient>
		<linearGradient x1="84.451836" y1="274.844757" x2="84.242195" y2="257.295898" id="paint_linear_12_2400_0" gradientUnits="userSpaceOnUse">
			<stop stop-color="#FFC444"/>
			<stop offset="1.000000" stop-color="#F36F56"/>
		</linearGradient>
		<linearGradient x1="79.965324" y1="232.920853" x2="65.518600" y2="285.055603" id="paint_linear_12_2401_0" gradientUnits="userSpaceOnUse">
			<stop stop-color="#311944"/>
			<stop offset="1.000000" stop-color="#893976"/>
		</linearGradient>
		<linearGradient x1="65.021935" y1="275.086853" x2="64.813164" y2="257.537994" id="paint_linear_12_2402_0" gradientUnits="userSpaceOnUse">
			<stop stop-color="#FFC444"/>
			<stop offset="1.000000" stop-color="#F36F56"/>
		</linearGradient>
		<linearGradient x1="94.131775" y1="218.396393" x2="76.242424" y2="218.396393" id="paint_linear_12_2403_0" gradientUnits="userSpaceOnUse">
			<stop stop-color="#444B8C"/>
			<stop offset="1.000000" stop-color="#26264F"/>
		</linearGradient>
		<linearGradient x1="94.131805" y1="-0.000093" x2="76.242447" y2="-0.000093" id="paint_linear_12_2404_0" gradientUnits="userSpaceOnUse">
			<stop stop-color="#444B8C"/>
			<stop offset="1.000000" stop-color="#26264F"/>
		</linearGradient>
		<linearGradient x1="79.281921" y1="285.367523" x2="71.813995" y2="224.070160" id="paint_linear_12_2405_0" gradientUnits="userSpaceOnUse">
			<stop stop-color="#444B8C"/>
			<stop offset="1.000000" stop-color="#26264F"/>
		</linearGradient>
		<linearGradient x1="147.434540" y1="142.686737" x2="130.489990" y2="159.933441" id="paint_linear_12_2406_0" gradientUnits="userSpaceOnUse">
			<stop stop-color="#FFC444"/>
			<stop offset="1.000000" stop-color="#F36F56"/>
		</linearGradient>
		<linearGradient x1="65.871155" y1="91.251755" x2="147.696472" y2="174.908630" id="paint_linear_12_2407_0" gradientUnits="userSpaceOnUse">
			<stop stop-color="#6165D7"/>
			<stop offset="1.000000" stop-color="#AA80F9"/>
		</linearGradient>
		<linearGradient x1="27.925171" y1="223.623383" x2="90.485268" y2="133.808502" id="paint_linear_12_2408_0" gradientUnits="userSpaceOnUse">
			<stop stop-color="#6165D7"/>
			<stop offset="1.000000" stop-color="#AA80F9"/>
		</linearGradient>
		<linearGradient x1="27.579430" y1="224.133209" x2="90.914055" y2="133.207199" id="paint_linear_12_2409_0" gradientUnits="userSpaceOnUse">
			<stop stop-color="#AA80F9"/>
			<stop offset="1.000000" stop-color="#6165D7"/>
		</linearGradient>
		<linearGradient x1="10.904266" y1="211.803436" x2="73.788147" y2="121.524994" id="paint_linear_12_2410_0" gradientUnits="userSpaceOnUse">
			<stop stop-color="#6165D7"/>
			<stop offset="1.000000" stop-color="#AA80F9"/>
		</linearGradient>
		<linearGradient x1="88.504059" y1="122.966858" x2="78.472717" y2="108.211746" id="paint_linear_12_2411_0" gradientUnits="userSpaceOnUse">
			<stop stop-color="#FFC444"/>
			<stop offset="1.000000" stop-color="#F36F56"/>
		</linearGradient>
		<linearGradient x1="80.318748" y1="117.286133" x2="87.842781" y2="98.176407" id="paint_linear_12_2412_0" gradientUnits="userSpaceOnUse">
			<stop stop-color="#444B8C"/>
			<stop offset="1.000000" stop-color="#3E4177"/>
		</linearGradient>
		<linearGradient x1="95.762749" y1="111.564194" x2="80.098328" y2="103.033188" id="paint_linear_12_2413_0" gradientUnits="userSpaceOnUse">
			<stop stop-color="#FFC444"/>
			<stop offset="1.000000" stop-color="#F36F56"/>
		</linearGradient>
		<linearGradient x1="52.943954" y1="189.388824" x2="52.058182" y2="176.202835" id="paint_linear_12_2415_0" gradientUnits="userSpaceOnUse">
			<stop stop-color="#FFC444"/>
			<stop offset="1.000000" stop-color="#F36F56"/>
		</linearGradient>
		<linearGradient x1="58.113808" y1="184.897049" x2="57.483948" y2="175.521774" id="paint_linear_12_2416_0" gradientUnits="userSpaceOnUse">
			<stop offset="0.100000" stop-color="#311944"/>
			<stop offset="0.270000" stop-color="#361B47"/>
			<stop offset="0.480000" stop-color="#462050"/>
			<stop offset="0.720000" stop-color="#602A5F"/>
			<stop offset="0.970000" stop-color="#843773"/>
			<stop offset="1.000000" stop-color="#893976"/>
		</linearGradient>
		<linearGradient x1="61.892075" y1="178.162323" x2="54.842453" y2="181.941559" id="paint_linear_12_2417_0" gradientUnits="userSpaceOnUse">
			<stop offset="0.100000" stop-color="#311944"/>
			<stop offset="0.270000" stop-color="#361B47"/>
			<stop offset="0.480000" stop-color="#462050"/>
			<stop offset="0.720000" stop-color="#602A5F"/>
			<stop offset="0.970000" stop-color="#843773"/>
			<stop offset="1.000000" stop-color="#893976"/>
		</linearGradient>
		<linearGradient x1="63.991631" y1="190.979233" x2="62.983818" y2="175.969574" id="paint_linear_12_2418_0" gradientUnits="userSpaceOnUse">
			<stop stop-color="#FFC444"/>
			<stop offset="1.000000" stop-color="#F36F56"/>
		</linearGradient>
		<linearGradient x1="72.558762" y1="189.791397" x2="76.478737" y2="153.957413" id="paint_linear_12_2419_0" gradientUnits="userSpaceOnUse">
			<stop offset="0.100000" stop-color="#311944"/>
			<stop offset="0.690000" stop-color="#6D2E66"/>
			<stop offset="1.000000" stop-color="#893976"/>
		</linearGradient>
		<linearGradient x1="55.159416" y1="204.822678" x2="81.542221" y2="190.132889" id="paint_linear_12_2420_0" gradientUnits="userSpaceOnUse">
			<stop stop-color="#311944"/>
			<stop offset="1.000000" stop-color="#893976"/>
		</linearGradient>
		<linearGradient x1="78.941048" y1="184.514206" x2="71.054855" y2="197.738571" id="paint_linear_12_2421_0" gradientUnits="userSpaceOnUse">
			<stop stop-color="#311944"/>
			<stop offset="1.000000" stop-color="#893976"/>
		</linearGradient>
		<linearGradient x1="57.151176" y1="168.718185" x2="54.288200" y2="207.145325" id="paint_linear_12_2422_0" gradientUnits="userSpaceOnUse">
			<stop offset="0.100000" stop-color="#311944"/>
			<stop offset="0.690000" stop-color="#6D2E66"/>
			<stop offset="1.000000" stop-color="#893976"/>
		</linearGradient>
		<linearGradient x1="63.031624" y1="189.972443" x2="39.851349" y2="207.833267" id="paint_linear_12_2424_0" gradientUnits="userSpaceOnUse">
			<stop stop-color="#311944"/>
			<stop offset="1.000000" stop-color="#893976"/>
		</linearGradient>
		<linearGradient x1="69.032059" y1="188.381973" x2="59.181442" y2="187.999130" id="paint_linear_12_2425_0" gradientUnits="userSpaceOnUse">
			<stop offset="0.100000" stop-color="#311944"/>
			<stop offset="0.690000" stop-color="#6D2E66"/>
			<stop offset="1.000000" stop-color="#893976"/>
		</linearGradient>
		<linearGradient x1="53.926399" y1="218.901230" x2="57.078720" y2="183.473877" id="paint_linear_12_2426_0" gradientUnits="userSpaceOnUse">
			<stop offset="0.100000" stop-color="#311944"/>
			<stop offset="0.270000" stop-color="#361B47"/>
			<stop offset="0.480000" stop-color="#462050"/>
			<stop offset="0.720000" stop-color="#602A5F"/>
			<stop offset="0.970000" stop-color="#843773"/>
			<stop offset="1.000000" stop-color="#893976"/>
		</linearGradient>
		<linearGradient x1="52.376747" y1="227.233276" x2="57.738617" y2="178.215424" id="paint_linear_12_2427_0" gradientUnits="userSpaceOnUse">
			<stop stop-color="#311944"/>
			<stop offset="1.000000" stop-color="#893976"/>
		</linearGradient>
		<linearGradient x1="44.364857" y1="201.530579" x2="61.464909" y2="192.591324" id="paint_linear_12_2429_0" gradientUnits="userSpaceOnUse">
			<stop stop-color="#FFC444"/>
			<stop offset="1.000000" stop-color="#F36F56"/>
		</linearGradient>
		<linearGradient x1="59.727966" y1="193.965256" x2="42.163380" y2="200.251175" id="paint_linear_12_2430_0" gradientUnits="userSpaceOnUse">
			<stop stop-color="#FFC444"/>
			<stop offset="1.000000" stop-color="#F36F56"/>
		</linearGradient>
		<linearGradient x1="59.576626" y1="175.194031" x2="52.935410" y2="181.202423" id="paint_linear_12_2431_0" gradientUnits="userSpaceOnUse">
			<stop stop-color="#FFC444"/>
			<stop offset="1.000000" stop-color="#F36F56"/>
		</linearGradient>
		<linearGradient x1="225.711380" y1="273.944519" x2="231.406204" y2="277.728271" id="paint_linear_12_2433_0" gradientUnits="userSpaceOnUse">
			<stop stop-color="#444B8C"/>
			<stop offset="1.000000" stop-color="#26264F"/>
		</linearGradient>
		<linearGradient x1="231.104889" y1="277.702362" x2="231.547485" y2="268.812500" id="paint_linear_12_2434_0" gradientUnits="userSpaceOnUse">
			<stop stop-color="#FFC444"/>
			<stop offset="1.000000" stop-color="#F36F56"/>
		</linearGradient>
		<linearGradient x1="226.138809" y1="273.300507" x2="231.833755" y2="277.085236" id="paint_linear_12_2435_0" gradientUnits="userSpaceOnUse">
			<stop stop-color="#444B8C"/>
			<stop offset="1.000000" stop-color="#26264F"/>
		</linearGradient>
		<linearGradient x1="192.094727" y1="279.609161" x2="197.204559" y2="284.154083" id="paint_linear_12_2436_0" gradientUnits="userSpaceOnUse">
			<stop stop-color="#444B8C"/>
			<stop offset="1.000000" stop-color="#26264F"/>
		</linearGradient>
		<linearGradient x1="197.244904" y1="284.404266" x2="198.958527" y2="275.669922" id="paint_linear_12_2437_0" gradientUnits="userSpaceOnUse">
			<stop stop-color="#FFC444"/>
			<stop offset="1.000000" stop-color="#F36F56"/>
		</linearGradient>
		<linearGradient x1="192.608459" y1="279.032471" x2="197.718292" y2="283.577393" id="paint_linear_12_2438_0" gradientUnits="userSpaceOnUse">
			<stop stop-color="#444B8C"/>
			<stop offset="1.000000" stop-color="#26264F"/>
		</linearGradient>
		<linearGradient x1="192.155228" y1="181.479065" x2="251.522675" y2="251.262054" id="paint_linear_12_2439_0" gradientUnits="userSpaceOnUse">
			<stop stop-color="#444B8C"/>
			<stop offset="1.000000" stop-color="#26264F"/>
		</linearGradient>
		<linearGradient x1="219.869629" y1="230.428909" x2="239.261826" y2="230.428909" id="paint_linear_12_2440_0" gradientUnits="userSpaceOnUse">
			<stop stop-color="#311944"/>
			<stop offset="1.000000" stop-color="#6B3976"/>
		</linearGradient>
		<linearGradient x1="176.673798" y1="194.650192" x2="236.041245" y2="264.432190" id="paint_linear_12_2441_0" gradientUnits="userSpaceOnUse">
			<stop stop-color="#444B8C"/>
			<stop offset="1.000000" stop-color="#26264F"/>
		</linearGradient>
		<linearGradient x1="145.398117" y1="144.555542" x2="154.742661" y2="157.255676" id="paint_linear_12_2442_0" gradientUnits="userSpaceOnUse">
			<stop stop-color="#FFC444"/>
			<stop offset="1.000000" stop-color="#F36F56"/>
		</linearGradient>
		<linearGradient x1="262.464050" y1="242.868820" x2="207.263550" y2="135.071152" id="paint_linear_12_2443_0" gradientUnits="userSpaceOnUse">
			<stop stop-color="#311944"/>
			<stop offset="1.000000" stop-color="#893976"/>
		</linearGradient>
		<linearGradient x1="212.149689" y1="112.351593" x2="226.616028" y2="145.544464" id="paint_linear_12_2446_0" gradientUnits="userSpaceOnUse">
			<stop stop-color="#FFC444"/>
			<stop offset="1.000000" stop-color="#F36F56"/>
		</linearGradient>
		<linearGradient x1="211.068344" y1="105.536278" x2="227.220932" y2="142.597046" id="paint_linear_12_2448_0" gradientUnits="userSpaceOnUse">
			<stop stop-color="#FFC444"/>
			<stop offset="1.000000" stop-color="#F36F56"/>
		</linearGradient>
		<linearGradient x1="187.413651" y1="158.046768" x2="223.531891" y2="192.534225" id="paint_linear_12_2450_0" gradientUnits="userSpaceOnUse">
			<stop stop-color="#311944"/>
			<stop offset="1.000000" stop-color="#893976"/>
		</linearGradient>
		<linearGradient x1="235.989670" y1="257.783142" x2="180.117996" y2="148.673477" id="paint_linear_12_2451_0" gradientUnits="userSpaceOnUse">
			<stop stop-color="#311944"/>
			<stop offset="1.000000" stop-color="#893976"/>
		</linearGradient>
	</defs>
	<rect id="Frame" rx="0.000000" width="286.901581" height="284.901581" transform="translate(0.049209 0.049209)" fill="#FFFFFF" fill-opacity="0"/>
	<g clip-path="url(#clip12_2330)">
		<path id="Vector" d="M8.58 139.78C12.43 154.86 26.55 207.03 74.72 243.79C150.71 301.78 269.83 289.68 285.59 252.25C292.91 234.89 272.88 224.18 267.67 175.65C262.78 130.13 278.46 121.57 272.29 94.2C260.16 40.42 184.22 5.85 123.91 1.07C105.04 -0.43 43.48 -5.32 16.26 31.31C-9.37 65.8 1.59 112.41 8.58 139.78Z" fill="#F4F7FA" fill-opacity="1.000000" fill-rule="nonzero"/>
		<mask id="mask12_2337" mask-type="alpha" maskUnits="userSpaceOnUse" x="161.664062" y="78.214630" width="112.430176" height="158.311279">
			<path id="Vector" d="M167.15 229.11L194.26 236.52C194.26 236.52 203.17 224.01 199.21 212.38C191.12 188.65 212.47 183.22 221.07 179.62C234.05 174.17 243.1 163.72 228.82 154.19C214.54 144.65 236.99 124.62 259.2 118.85C280.95 113.2 283.45 71.3 235.28 79.2C206.51 83.92 203.1 112.12 197.99 125.96C192.89 139.79 171.49 135.2 173.97 154.49C176.09 170.96 184.85 184.94 173.14 192.67C161.42 200.39 157.38 211.54 167.15 229.11L167.15 229.11Z" fill="#000000" fill-opacity="1.000000" fill-rule="nonzero"/>
		</mask>
		<g mask="url(#mask12_2337)">
			<path id="Vector" d="M167.15 229.11L194.26 236.52C194.26 236.52 203.17 224.01 199.21 212.38C191.12 188.65 212.47 183.22 221.07 179.62C234.05 174.17 241.71 164.65 230.77 154.13C218.4 142.23 236.99 124.62 259.2 118.85C280.95 113.2 283.45 71.3 235.28 79.2C206.51 83.92 203.1 112.12 197.99 125.96C192.89 139.79 171.49 135.2 173.97 154.49C176.09 170.96 184.85 184.94 173.14 192.67C161.42 200.39 157.38 211.54 167.15 229.11L167.15 229.11Z" fill="url(#paint_linear_12_2340_0)" fill-opacity="1.000000" fill-rule="nonzero"/>
			<g opacity="0.500000" style="mix-blend-mode:soft-light">
				<path id="Vector" d="M178.2 234.83L178.79 234.88C178.82 234.52 182.1 197.87 196.3 162.52C209.38 129.95 234.68 91.85 280.93 95.29L280.98 94.7C260.39 93.17 242.17 99.6 226.82 113.81C214.56 125.16 204.11 141.48 195.74 162.31C181.51 197.74 178.23 234.47 178.2 234.83L178.2 234.83Z" fill="#BEB8F2" fill-opacity="1.000000" fill-rule="nonzero"/>
				<path id="Vector" d="M220.67 120.03L221.25 120.11C224.07 100.56 238.61 75.68 238.76 75.43L238.25 75.13C238.1 75.38 223.5 100.36 220.67 120.03Z" fill="#BEB8F2" fill-opacity="1.000000" fill-rule="nonzero"/>
				<path id="Vector" d="M231.15 110.84C253.7 104.1 270.13 114.78 270.29 114.89L270.62 114.39C270.45 114.28 253.81 103.45 230.98 110.27L231.15 110.84Z" fill="#BEB8F2" fill-opacity="1.000000" fill-rule="nonzero"/>
				<path id="Vector" d="M188.27 186.14C202.05 160.9 240.56 164.31 240.93 164.38L241.07 163.8C240.71 163.7 201.65 160.39 187.75 185.85L188.27 186.14L188.27 186.14Z" fill="#BEB8F2" fill-opacity="1.000000" fill-rule="nonzero"/>
				<path id="Vector" d="M191.22 174.65L191.81 174.69C192.94 156.38 177.41 139.32 177.25 139.15L176.81 139.55C176.97 139.72 192.34 156.6 191.22 174.65Z" fill="#BEB8F2" fill-opacity="1.000000" fill-rule="nonzero"/>
				<path id="Vector" d="M179.43 229.13C183.13 218.85 200.39 214.63 200.57 214.59L200.43 214.02C199.71 214.19 182.68 218.35 178.87 228.93L179.43 229.13L179.43 229.13Z" fill="#BEB8F2" fill-opacity="1.000000" fill-rule="nonzero"/>
				<path id="Vector" d="M180.09 220.44L180.68 220.5C181.52 211.9 171.61 199.36 168.35 195.24C167.89 194.66 167.5 194.16 167.44 194.05L166.91 194.32C166.98 194.46 167.25 194.8 167.89 195.61C171.11 199.69 180.91 212.08 180.09 220.44L180.09 220.44Z" fill="#BEB8F2" fill-opacity="1.000000" fill-rule="nonzero"/>
			</g>
		</g>
		<path id="Vector" d="M195.26 123.82C199.63 128.44 198.73 134.54 197.39 138.86C196.81 139.02 196.51 139.27 195.96 139.57C190.97 142.28 188.26 142.38 182.92 144.27C181.77 144.68 178.03 144.85 176.5 144.82L173.64 144.73C173.64 144.73 164.97 132.94 171.09 127.29C177.21 121.65 170.39 109.41 167.57 102.48C165.85 98.22 166.42 95.72 166.03 94.06C161.97 76.43 155.24 72.83 157.44 66.28C159.86 59.06 168.76 61.38 171.82 53.66C175.27 44.94 166.24 36.13 171.35 28.61C172.23 27.32 173.16 26.02 174.91 24.89C179.23 22.12 183.88 23.75 186.11 18.87C190.59 9.07 200.96 3.09 210.17 9.3C219.27 15.42 216.17 33.57 200.17 51.95C190.27 66.31 191.06 69.56 194.52 77.04C196.94 82.28 206.97 94.88 200.73 102.79C194.48 110.7 190.27 118.54 195.26 123.82L195.26 123.82Z" fill="url(#paint_linear_12_2350_0)" fill-opacity="1.000000" fill-rule="nonzero"/>
		<mask id="mask12_2352" mask-type="alpha" maskUnits="userSpaceOnUse" x="166.005859" y="6.772339" width="49.222656" height="138.311844">
			<path id="Vector" d="M195.28 144.24L174.23 145.08C174.23 145.08 164.96 132.94 171.09 127.29C177.21 121.65 170.39 109.41 167.57 102.48C159.94 83.68 183.03 79.1 175.31 54.18C173.26 47.55 166.94 35.58 171.35 28.61C176.37 20.66 183.24 25.14 186.11 18.87C190.59 9.07 200.96 3.09 210.17 9.3C219.27 15.42 216.17 33.57 200.16 51.95C190.27 66.31 191.06 69.56 194.51 77.04C196.93 82.28 206.97 94.88 200.72 102.79C194.48 110.7 190.27 118.54 195.26 123.82C202.86 131.86 195.28 144.24 195.28 144.24L195.28 144.24Z" fill="#000000" fill-opacity="1.000000" fill-rule="nonzero"/>
		</mask>
		<g mask="url(#mask12_2352)">
			<g opacity="0.500000" style="mix-blend-mode:soft-light">
				<path id="Vector" d="M185.82 143.68L185.41 143.74C185.02 141.47 184.67 139.17 184.34 136.91C181.97 120.19 181.36 103.85 182.55 88.33C183.55 75.19 185.85 62.45 189.38 50.48C192.22 40.85 195.87 31.66 200.23 23.16C203.29 17.19 206.67 11.62 210.27 6.6C210.89 5.73 211.59 4.87 212.26 4.04C213.15 2.93 214.07 1.78 214.85 0.59L215.2 0.79C214.42 1.99 213.49 3.15 212.59 4.27C211.92 5.09 211.23 5.95 210.61 6.82C207.02 11.81 203.66 17.37 200.6 23.32C196.26 31.8 192.62 40.97 189.79 50.57C186.26 62.52 183.97 75.24 182.96 88.36C181.78 103.85 182.38 120.17 184.76 136.86C185.08 139.11 185.44 141.41 185.82 143.68L185.82 143.68Z" fill="#FCFDFE" fill-opacity="1.000000" fill-rule="nonzero"/>
				<path id="Vector" d="M186.14 65.3L185.72 65.24C188.56 48.79 173.87 24 173.72 23.75L174.09 23.56C174.24 23.81 189 48.71 186.14 65.3L186.14 65.3Z" fill="#FCFDFE" fill-opacity="1.000000" fill-rule="nonzero"/>
				<path id="Vector" d="M182.53 111.89L182.11 111.88C182.64 100.52 201.09 86.67 201.27 86.53L201.53 86.84C201.35 86.97 183.05 100.7 182.53 111.9L182.53 111.89Z" fill="#FCFDFE" fill-opacity="1.000000" fill-rule="nonzero"/>
				<path id="Vector" d="M182.83 118.36L182.42 118.42C181.34 111.08 175.64 101.67 166.35 91.91C166.04 91.59 165.88 91.4 165.87 91.35L166.29 91.29L166.08 91.32L166.26 91.22C166.29 91.25 166.46 91.44 166.67 91.65C176 101.46 181.75 110.95 182.84 118.36L182.83 118.36Z" fill="#FCFDFE" fill-opacity="1.000000" fill-rule="nonzero"/>
				<path id="Vector" d="M185.18 139.52L184.77 139.46C186.13 131.37 197.46 125.14 197.57 125.08L197.78 125.41C197.66 125.47 186.51 131.61 185.18 139.52Z" fill="#FCFDFE" fill-opacity="1.000000" fill-rule="nonzero"/>
				<path id="Vector" d="M185.22 143.88C181.8 138.15 176.47 133.17 168.94 128.66L169.17 128.34C176.76 132.88 182.13 137.9 185.59 143.69L185.22 143.88L185.22 143.88Z" fill="#FCFDFE" fill-opacity="1.000000" fill-rule="nonzero"/>
				<path id="Vector" d="M198.13 28.36L197.72 28.29C199.85 19.21 199.82 9.26 199.81 5.99C199.81 5.2 199.81 4.92 199.83 4.82L200.24 4.88C200.23 4.96 200.23 5.41 200.23 5.98C200.24 9.26 200.27 19.25 198.13 28.36L198.13 28.36Z" fill="#FCFDFE" fill-opacity="1.000000" fill-rule="nonzero"/>
				<path id="Vector" d="M192.32 42.67L191.96 42.49C196.56 34.87 214.6 30 215.37 29.8L215.48 30.17C215.29 30.22 196.84 35.19 192.32 42.67Z" fill="#FCFDFE" fill-opacity="1.000000" fill-rule="nonzero"/>
			</g>
		</g>
		<path id="Vector" d="M195.27 184.74C193.83 184.72 194.63 177.18 189.38 168.27C188.07 166.05 181.76 153.41 171.17 154.28C169.12 154.45 167.06 154.62 165.01 154.79C162.7 150.4 161.34 145.84 167.34 143.34C176.66 139.47 174.76 123.37 171.36 118C167.14 111.36 157.66 95.69 171.96 89.48C183.87 84.32 192.68 83.28 191.55 68.11C190.42 52.95 197.89 42.52 212.49 41.7C227.85 40.85 237.81 20.23 251.14 25.16C274.37 33.75 259.07 69.28 233.89 82.02C208.71 94.76 225.08 101.96 227.42 114.21C227.58 115.36 227.73 117.15 227.5 119.3C226.11 132.54 212.92 136.35 204.54 148.05C193.12 164 197.7 184.76 195.27 184.74L195.27 184.74Z" fill="url(#paint_linear_12_2365_0)" fill-opacity="1.000000" fill-rule="nonzero"/>
		<mask id="mask12_2367" mask-type="alpha" maskUnits="userSpaceOnUse" x="163.462891" y="24.405334" width="99.141602" height="133.871704">
			<path id="Vector" d="M199.85 154.6L166.61 158.27C164.13 154.05 160.64 146.13 167.34 143.34C176.66 139.47 174.76 123.37 171.36 118C167.14 111.36 157.66 95.69 171.96 89.48C183.87 84.32 192.68 83.28 191.55 68.11C190.42 52.95 197.89 42.52 212.49 41.7C227.85 40.85 237.81 20.23 251.14 25.16C274.37 33.75 259.07 69.28 233.89 82.02C208.71 94.76 225.08 101.96 227.42 114.21C230.63 130.92 206.04 130.17 200.54 137.54C196.24 143.31 198.11 150.36 199.85 154.6L199.85 154.6Z" fill="#000000" fill-opacity="1.000000" fill-rule="nonzero"/>
		</mask>
		<g mask="url(#mask12_2367)">
			<g opacity="0.500000" style="mix-blend-mode:soft-light">
				<path id="Vector" d="M183.59 151.39L182.87 151.34C186.98 101.47 216.73 53.73 260.5 26.75L260.9 27.32C217.31 54.19 187.69 101.73 183.59 151.39L183.59 151.39Z" fill="#FCFDFE" fill-opacity="1.000000" fill-rule="nonzero"/>
				<path id="Vector" d="M188.3 124.39L187.58 124.47C185.07 104.95 165.4 91.77 165.2 91.64L165.62 91.08C165.82 91.21 185.75 104.56 188.3 124.39Z" fill="#FCFDFE" fill-opacity="1.000000" fill-rule="nonzero"/>
				<path id="Vector" d="M184.61 142.24L183.94 141.99C191.65 123.44 229.43 116.6 229.81 116.53L229.94 117.21C229.56 117.27 192.18 124.04 184.61 142.24Z" fill="#FCFDFE" fill-opacity="1.000000" fill-rule="nonzero"/>
				<path id="Vector" d="M208.42 79.18L207.72 78.99C212.49 63.83 199.67 42.82 199.54 42.6L200.17 42.26C200.3 42.47 213.27 63.74 208.42 79.18L208.42 79.18Z" fill="#FCFDFE" fill-opacity="1.000000" fill-rule="nonzero"/>
				<path id="Vector" d="M228.43 53.63L227.97 53.09C242.91 41.88 268.59 44.18 268.85 44.21L268.78 44.89C268.52 44.86 243.13 42.59 228.43 53.63Z" fill="#FCFDFE" fill-opacity="1.000000" fill-rule="nonzero"/>
			</g>
		</g>
		<path id="Vector" d="M171 58.66L6.64 73.69C16.57 79.82 31.94 92.12 41.19 117.03C59.4 166.07 39.17 211.75 61.05 244.74C66.88 253.51 79.43 269.41 98.83 273.3L255.8 251.91C204.4 237 190.46 208.83 187.78 184.81C185.09 160.7 192.74 131.87 183.57 93.07C179.82 77.2 174.7 65.79 171 58.66Z" fill="url(#paint_linear_12_2377_0)" fill-opacity="1.000000" fill-rule="nonzero"/>
		<path id="Vector" d="M26.96 31.92C75.22 28.89 123.49 25.86 171.75 22.83C178.25 28.33 187.37 38.12 193.32 55.05C207.01 94.01 191.06 132.55 195.67 170.43C198.61 194.58 210.72 224.84 254.13 245.06C202.3 251.84 150.48 258.63 98.65 265.41C87.94 261.31 73.67 252.78 65.41 232.94C56.66 211.91 62.79 197.68 59.77 131.57C57.65 85.04 53.47 66.69 44.77 51.98C38.75 41.79 31.96 35.62 26.96 31.92L26.96 31.92Z" fill="#FFFFFF" fill-opacity="1.000000" fill-rule="nonzero"/>
		<path id="Vector" d="M185.17 166.87C185.2 167.25 185.23 167.63 185.27 168.01C185.3 168.37 185.04 168.69 184.68 168.73L71.47 181.16C71.08 181.2 70.74 180.9 70.74 180.5C70.74 180.12 70.75 179.73 70.75 179.34C70.75 179 71.01 178.72 71.34 178.68L184.44 166.26C184.81 166.22 185.14 166.49 185.17 166.87Z" fill="#D8DEE8" fill-opacity="1.000000" fill-rule="nonzero"/>
		<path id="Vector" d="M184.72 154.68C184.72 155.06 184.72 155.45 184.72 155.84C184.72 156.17 184.46 156.46 184.13 156.5L71.51 168.49C71.12 168.53 70.78 168.23 70.78 167.84C70.77 167.45 70.77 167.07 70.77 166.68C70.77 166.34 71.02 166.05 71.36 166.01L183.99 154.02C184.38 153.98 184.72 154.28 184.72 154.68L184.72 154.68Z" fill="#D8DEE8" fill-opacity="1.000000" fill-rule="nonzero"/>
		<path id="Vector" d="M186.79 178.93C186.86 179.3 186.93 179.68 187.01 180.05C187.08 180.44 186.82 180.8 186.43 180.84L71.32 193.86C70.93 193.9 70.58 193.59 70.59 193.19C70.59 192.81 70.6 192.42 70.6 192.03C70.6 191.7 70.86 191.42 71.19 191.38L186.07 178.39C186.41 178.35 186.72 178.58 186.79 178.93L186.79 178.93Z" fill="#D8DEE8" fill-opacity="1.000000" fill-rule="nonzero"/>
		<path id="Vector" d="M167.96 242.6L220.16 235.91C220.39 235.88 220.61 235.97 220.76 236.15C221.04 236.5 221.38 236.77 221.78 236.98C222.38 237.31 222.19 238.15 221.56 238.23L170.33 244.79C169.54 244.06 168.75 243.33 167.96 242.6L167.96 242.6Z" fill="#D8DEE8" fill-opacity="1.000000" fill-rule="nonzero"/>
		<path id="Vector" d="M96.08 251.8L155.04 244.25C155.8 244.99 156.57 245.73 157.35 246.46L98.05 254.05C97.92 254.07 97.79 254.05 97.67 253.99C97.05 253.68 96.44 253.37 95.84 253.04C95.28 252.74 95.45 251.89 96.08 251.8L96.08 251.8Z" fill="#D8DEE8" fill-opacity="1.000000" fill-rule="nonzero"/>
		<path id="Vector" d="M185.14 142.41C185.12 142.8 185.09 143.19 185.07 143.58C185.05 143.9 184.8 144.16 184.48 144.19L71.36 155.85C70.98 155.89 70.64 155.6 70.64 155.21C70.63 154.83 70.62 154.44 70.61 154.05C70.61 153.71 70.86 153.41 71.21 153.38L184.42 141.71C184.82 141.67 185.17 142 185.14 142.41L185.14 142.41Z" fill="#D8DEE8" fill-opacity="1.000000" fill-rule="nonzero"/>
		<path id="Vector" d="M200.78 214.03C201.01 214.39 201.25 214.74 201.49 215.09C201.77 215.51 201.52 216.06 201.03 216.13L76.26 231.38C75.98 231.42 75.7 231.27 75.58 231.01C75.41 230.64 75.24 230.27 75.08 229.89C74.9 229.49 75.16 229.02 75.6 228.97L200.15 213.74C200.4 213.71 200.64 213.82 200.78 214.03L200.78 214.03Z" fill="#D8DEE8" fill-opacity="1.000000" fill-rule="nonzero"/>
		<path id="Vector" d="M194.36 202.55C194.53 202.91 194.7 203.28 194.88 203.64C195.08 204.05 194.82 204.53 194.36 204.59L72.38 219.14C72.03 219.18 71.71 218.95 71.65 218.6C71.58 218.22 71.52 217.83 71.46 217.44C71.4 217.07 71.66 216.73 72.03 216.68L193.68 202.17C193.96 202.14 194.24 202.29 194.36 202.55L194.36 202.55Z" fill="#D8DEE8" fill-opacity="1.000000" fill-rule="nonzero"/>
		<path id="Vector" d="M189.78 190.83C189.9 191.2 190.02 191.57 190.14 191.94C190.27 192.34 190.01 192.76 189.59 192.81L71.31 206.56C70.93 206.6 70.58 206.3 70.58 205.92C70.57 205.53 70.56 205.14 70.55 204.75C70.55 204.41 70.8 204.12 71.14 204.08L189.08 190.37C189.39 190.34 189.69 190.53 189.78 190.83Z" fill="#D8DEE8" fill-opacity="1.000000" fill-rule="nonzero"/>
		<path id="Vector" d="M186.13 130.1C186.09 130.49 186.06 130.88 186.02 131.27C185.99 131.58 185.74 131.83 185.43 131.87L71.03 143.25C70.65 143.29 70.32 143 70.3 142.62C70.29 142.24 70.28 141.85 70.27 141.46C70.25 141.12 70.51 140.82 70.86 140.78L185.4 129.38C185.82 129.34 186.17 129.68 186.13 130.1L186.13 130.1Z" fill="#D8DEE8" fill-opacity="1.000000" fill-rule="nonzero"/>
		<path id="Vector" d="M182.71 56.83C183.01 56.81 183.28 56.98 183.39 57.26C183.53 57.63 183.66 58.01 183.8 58.39C183.8 58.4 183.8 58.4 183.8 58.4C183.94 58.81 183.65 59.24 183.22 59.27L62.97 68.43C62.65 68.46 62.37 68.25 62.28 67.95C62.18 67.57 62.07 67.2 61.96 66.82C61.84 66.42 62.13 66.01 62.55 65.98L182.71 56.83L182.71 56.83Z" fill="#D8DEE8" fill-opacity="1.000000" fill-rule="nonzero"/>
		<path id="Vector" d="M186.78 69.14C186.86 69.52 186.94 69.9 187.01 70.28C187.09 70.67 186.81 71.04 186.41 71.07L65.76 80.77C65.42 80.79 65.12 80.56 65.06 80.22C64.99 79.84 64.92 79.46 64.85 79.09C64.77 78.7 65.05 78.34 65.44 78.3L186.08 68.61C186.41 68.58 186.71 68.81 186.78 69.14L186.78 69.14Z" fill="#D8DEE8" fill-opacity="1.000000" fill-rule="nonzero"/>
		<path id="Vector" d="M177.58 47L58.62 56.04C58.34 56.06 58.07 55.9 57.96 55.65C56.61 52.54 55.12 49.64 53.46 46.84C52.63 45.43 51.76 44.06 50.86 42.72C50.58 42.29 50.85 41.72 51.36 41.68L168.44 33.8C168.63 33.78 168.82 33.85 168.96 33.99C172.44 37.53 175.5 41.54 178.11 46.01C178.36 46.43 178.07 46.96 177.59 47L177.58 47Z" fill="#D8DEE8" fill-opacity="1.000000" fill-rule="nonzero"/>
		<path id="Vector" d="M187.33 117.78C187.29 118.17 187.26 118.56 187.22 118.95C187.19 119.26 186.94 119.51 186.62 119.54L70.53 130.68C70.15 130.72 69.82 130.43 69.8 130.05C69.78 129.67 69.76 129.28 69.75 128.9C69.73 128.55 69.99 128.24 70.34 128.21L186.61 117.06C187.02 117.02 187.37 117.36 187.33 117.78L187.33 117.78Z" fill="#D8DEE8" fill-opacity="1.000000" fill-rule="nonzero"/>
		<path id="Vector" d="M188.39 105.5C188.36 105.88 188.33 106.27 188.3 106.66C188.28 106.99 188.03 107.25 187.7 107.28L69.85 118.14C69.47 118.18 69.15 117.9 69.12 117.52C69.1 117.14 69.08 116.75 69.05 116.37C69.03 116.01 69.29 115.71 69.65 115.67L187.66 104.79C188.07 104.75 188.42 105.09 188.39 105.5L188.39 105.5Z" fill="#D8DEE8" fill-opacity="1.000000" fill-rule="nonzero"/>
		<path id="Vector" d="M188.91 93.27C188.91 93.66 188.9 94.05 188.89 94.44C188.89 94.78 188.62 95.06 188.29 95.09L68.92 105.64C68.56 105.67 68.24 105.4 68.2 105.03C68.17 104.65 68.14 104.26 68.1 103.89C68.07 103.52 68.34 103.2 68.7 103.17L188.19 92.61C188.58 92.57 188.91 92.88 188.91 93.27L188.91 93.27Z" fill="#D8DEE8" fill-opacity="1.000000" fill-rule="nonzero"/>
		<path id="Vector" d="M188.5 81.15C188.53 81.53 188.56 81.92 188.59 82.31C188.62 82.67 188.35 82.98 187.99 83.01L67.63 93.17C67.27 93.2 66.96 92.95 66.92 92.59C66.87 92.21 66.82 91.83 66.77 91.45C66.72 91.08 67 90.74 67.37 90.71L187.79 80.54C188.15 80.51 188.47 80.78 188.5 81.15L188.5 81.15Z" fill="#D8DEE8" fill-opacity="1.000000" fill-rule="nonzero"/>
		<path id="Vector" d="M154.46 250.79L133.56 237.84C126.61 233.5 119.64 229.18 112.83 224.65C111.14 223.52 109.43 222.37 107.86 221.15C107.67 220.99 107.48 220.84 107.31 220.69C107.22 220.61 107.14 220.53 107.08 220.47C107.05 220.44 107.03 220.4 107.02 220.39C107.01 220.38 107.03 220.4 107.03 220.41C107.04 220.43 107.05 220.46 107.06 220.49C107.07 220.51 107.1 220.63 107.09 220.7C107.1 220.82 107.03 221.01 106.95 221.1C106.86 221.23 106.75 221.28 106.72 221.3C106.65 221.33 106.62 221.34 106.61 221.35C106.59 221.35 106.56 221.35 106.56 221.36C106.56 221.36 106.55 221.36 106.56 221.36C106.57 221.36 106.59 221.36 106.61 221.36C106.68 221.36 106.78 221.38 106.89 221.4C107.1 221.44 107.34 221.5 107.56 221.56C108.49 221.83 109.42 222.2 110.32 222.62C112.11 223.45 113.83 224.49 115.3 225.77C116.77 227.04 118 228.58 118.55 230.33C119.13 232.07 118.87 233.93 118.03 235.62C117.19 237.33 115.91 238.88 114.64 240.5C114.01 241.32 113.36 242.15 112.79 243.09C112.22 244.01 111.71 245.07 111.51 246.28C111.41 246.89 111.43 247.53 111.54 248.14C111.6 248.45 111.67 248.75 111.78 249.04C111.88 249.33 112.01 249.6 112.15 249.87C112.71 250.95 113.53 251.79 114.39 252.5C116.14 253.9 118.15 254.8 120.18 255.45C122.23 256.09 124.33 256.47 126.45 256.63C130.68 256.93 135.02 256.36 139 254.69C140.98 253.85 142.82 252.71 144.5 251.41C146.19 250.09 147.72 248.6 149.07 246.92C149.73 246.08 150.36 245.19 150.89 244.22C151.41 243.25 151.88 242.21 152.08 240.99C152.17 240.38 152.2 239.71 152.02 239.01C151.97 238.84 151.92 238.66 151.84 238.49L151.73 238.24C151.68 238.15 151.62 238.05 151.56 237.96C151.32 237.6 150.97 237.29 150.62 237.1C149.89 236.71 149.23 236.65 148.64 236.62C148.03 236.59 147.47 236.64 146.93 236.7C144.77 236.97 142.79 237.51 140.8 238.02C138.82 238.56 136.85 239.1 134.87 239.6C132.89 240.11 130.9 240.56 128.9 240.97C126.9 241.35 124.88 241.68 122.85 241.92C118.8 242.42 114.72 242.69 110.64 242.72C106.56 242.75 102.48 242.55 98.43 242.06L98.43 242.06C97.85 241.99 97.32 242.41 97.25 242.99C97.18 243.57 97.6 244.1 98.18 244.17C98.22 244.18 98.26 244.18 98.3 244.18C102.44 244.2 106.56 244.16 110.68 243.96C112.73 243.84 114.79 243.74 116.84 243.55C117.86 243.47 118.89 243.37 119.91 243.28C120.93 243.16 121.96 243.07 122.98 242.93C127.06 242.43 131.14 241.89 135.2 241.16C137.23 240.8 139.25 240.39 141.26 239.99C142.26 239.79 143.26 239.58 144.25 239.39C145.24 239.2 146.22 239.01 147.18 238.92C147.65 238.86 148.12 238.84 148.54 238.86C148.96 238.87 149.35 238.95 149.53 239.06C149.79 239.11 150.02 239.85 149.87 240.65C149.75 241.46 149.38 242.33 148.93 243.15C148.48 243.98 147.93 244.78 147.33 245.54C146.12 247.07 144.69 248.46 143.15 249.67C141.6 250.88 139.92 251.91 138.14 252.67C134.55 254.2 130.53 254.73 126.6 254.49C124.64 254.36 122.68 254.03 120.81 253.45C118.94 252.89 117.13 252.07 115.67 250.92C114.21 249.78 113.2 248.2 113.48 246.58C113.6 245.76 113.97 244.92 114.46 244.1C114.95 243.29 115.55 242.49 116.17 241.68C117.39 240.07 118.74 238.42 119.69 236.42C120.17 235.43 120.51 234.32 120.62 233.18C120.74 232.03 120.6 230.86 120.24 229.78C119.88 228.7 119.32 227.71 118.66 226.83C117.99 225.95 117.22 225.18 116.4 224.48C114.75 223.1 112.91 222.02 110.99 221.15C110.02 220.72 109.04 220.33 107.99 220.05C107.72 219.97 107.46 219.91 107.17 219.86C107.02 219.83 106.87 219.81 106.69 219.8C106.65 219.8 106.6 219.8 106.54 219.8C106.49 219.8 106.42 219.8 106.35 219.81C106.32 219.81 106.26 219.83 106.21 219.84C106.17 219.85 106.11 219.87 106.01 219.92C105.95 219.94 105.82 220.02 105.7 220.17C105.6 220.29 105.53 220.52 105.53 220.67C105.53 220.77 105.56 220.91 105.58 220.97C105.6 221.02 105.62 221.08 105.65 221.13C105.68 221.2 105.73 221.27 105.76 221.31C105.83 221.41 105.89 221.47 105.95 221.53C106.06 221.65 106.17 221.75 106.28 221.84C106.49 222.03 106.7 222.2 106.91 222.36C108.59 223.64 110.3 224.75 112.03 225.88C115.47 228.12 118.96 230.28 122.45 232.43C125.94 234.58 129.45 236.71 132.96 238.82C140 243.03 147.03 247.24 154.12 251.35C154.28 251.45 154.48 251.39 154.57 251.24C154.66 251.08 154.61 250.89 154.46 250.79L154.46 250.79Z" fill="#FC79AB" fill-opacity="1.000000" fill-rule="nonzero"/>
		<path id="Vector" d="M83.13 267.55C83.13 267.55 82.47 270.34 82.45 271.35C82.43 272.36 93.06 273.76 93.23 273.02C93.39 272.28 91.61 270.92 90.33 270.39C89.04 269.86 85.27 268.41 85.27 268.41L83.13 267.55Z" fill="url(#paint_linear_12_2399_0)" fill-opacity="1.000000" fill-rule="nonzero"/>
		<path id="Vector" d="M85.93 264.95L85.32 268.44C85.32 268.44 84.02 269.19 82.97 268.44L82.72 264.57L85.93 264.95L85.93 264.95Z" fill="url(#paint_linear_12_2400_0)" fill-opacity="1.000000" fill-rule="nonzero"/>
		<path id="Vector" d="M63.73 270.53C63.73 270.53 63.07 273.32 63.05 274.33C63.03 275.34 73.66 276.75 73.83 276C74 275.26 72.21 273.91 70.93 273.37C69.64 272.84 65.87 271.39 65.87 271.39L63.73 270.53L63.73 270.53Z" fill="url(#paint_linear_12_2401_0)" fill-opacity="1.000000" fill-rule="nonzero"/>
		<path id="Vector" d="M66.54 267.94L65.93 271.42C65.93 271.42 64.62 272.17 63.58 271.42L63.32 267.55L66.53 267.94L66.54 267.94Z" fill="url(#paint_linear_12_2402_0)" fill-opacity="1.000000" fill-rule="nonzero"/>
		<path id="Vector" d="M91.03 173.13C92.06 175.85 93.09 178.56 94.13 181.28C93.98 196.28 93.22 212.54 91.58 229.85C90.35 242.73 88.75 254.9 86.93 266.3C85.26 266.08 83.59 265.85 81.93 265.64C79.89 260.42 77.62 252.58 78.08 243.18C78.55 233.37 81.49 232.31 82.03 222.93C82.73 210.76 78.1 207.12 76.63 192.29C76.06 186.62 75.95 179.27 77.43 170.49C81.96 171.37 86.49 172.25 91.03 173.13L91.03 173.13Z" fill="url(#paint_linear_12_2403_0)" fill-opacity="1.000000" fill-rule="nonzero"/>
		<g opacity="0.300000" style="mix-blend-mode:multiply">
			<path id="Vector" d="M77.42 170.49C79.87 170.96 82.32 171.44 84.77 171.92C88.59 180.37 89.19 188.88 88.13 192.54C86.62 197.71 83.57 199.15 83.32 204.45C83.08 209.69 85.93 211.29 87.33 217.61C88.29 221.99 87.65 225.88 86.33 233.49C83.66 248.82 79.72 253.25 82.32 258.57C83.06 260.08 84.47 261.92 87.37 263.48C87.22 264.42 87.07 265.37 86.92 266.3C85.26 266.08 83.59 265.86 81.92 265.64C79.89 260.42 77.62 252.58 78.07 243.18C78.55 233.37 81.49 232.31 82.03 222.93C82.73 210.76 78.1 207.12 76.62 192.29C76.06 186.62 75.95 179.27 77.42 170.49L77.42 170.49Z" fill="url(#paint_linear_12_2404_0)" fill-opacity="1.000000" fill-rule="nonzero"/>
		</g>
		<path id="Vector" d="M84.03 177.28C80.7 190.28 77.57 204.23 74.82 219.07C71.51 236.99 69.17 253.96 67.56 269.75C65.72 269.65 63.87 269.55 62.03 269.45C55.95 253.89 56.28 243.72 57.83 237.2C58.43 234.69 59.9 229.8 60.72 222.36C61.3 217.18 61.28 213.2 61.25 208.41C61.18 197.92 60.3 195.56 60.76 187.57C61.19 180.08 61.45 176.29 63.67 174.25C69.5 168.88 83 176.68 84.03 177.28L84.03 177.28Z" fill="url(#paint_linear_12_2405_0)" fill-opacity="1.000000" fill-rule="nonzero"/>
		<path id="Vector" d="M137.46 147.08C137.46 147.08 141.5 146.72 142.09 146.03C142.67 145.35 143.56 144.25 143.65 143.62C143.74 142.99 144.52 143.93 143.81 145.29C143.1 146.65 145.11 146.37 145.43 146.33C146.15 146.26 148.9 146.17 148.82 146.35C148.74 146.53 149.14 147.31 147.19 148.24C145.48 149.05 143.45 148.52 142.33 148.58L141.22 148.63L138.28 148.87L137.46 147.08Z" fill="url(#paint_linear_12_2406_0)" fill-opacity="1.000000" fill-rule="nonzero"/>
		<path id="Vector" d="M139.83 145.1C140.01 146.51 140.19 147.92 140.37 149.33C137.69 151.66 131.77 156.13 123.53 156.81C109.01 157.99 94.61 146.76 91.93 134.13C90.6 127.88 91.68 119.11 95.4 117.69C96.44 117.3 97.99 117.36 101.19 119.6C109.72 125.59 110.45 133.46 115.16 138.78C118.56 142.61 125.23 146.49 139.83 145.1L139.83 145.1Z" fill="url(#paint_linear_12_2407_0)" fill-opacity="1.000000" fill-rule="nonzero"/>
		<path id="Vector" d="M95.33 184.07C97.32 181.17 95.34 178.04 95.28 172.23C95.21 165.63 97.71 164.74 100.93 154.09C103.07 147 105.13 140.2 103.93 131.94C103.35 127.98 102.38 121.26 97.4 117.64C94.83 115.77 91.14 115.63 83.86 115.42C74.86 115.16 70.35 115.03 66.87 116.59C66.36 116.82 55.75 121.74 54.32 131.11C52.88 140.63 62.77 142.76 63.12 155.66C63.28 161.45 61.54 170.19 60.41 175.85C59.32 181.3 58.76 182.66 59.67 184.42C61.86 188.64 69.61 188.14 85.12 187.13C91.2 186.74 93.84 186.24 95.33 184.07L95.33 184.07Z" fill="url(#paint_linear_12_2408_0)" fill-opacity="1.000000" fill-rule="nonzero"/>
		<g opacity="0.300000" style="mix-blend-mode:multiply">
			<path id="Vector" d="M74.12 154.51C73.28 156.94 70.81 158.61 68.72 164.54C68.27 165.82 65.06 174.93 68.12 177.49C69.89 178.97 71.76 176.6 76.32 176.65C84.23 176.74 87.45 183.96 92.73 182.51C93.64 182.25 94.87 181.65 96.17 180.15C96.29 181.61 96.16 182.86 95.33 184.07C93.84 186.24 91.2 186.74 85.12 187.13C69.61 188.13 61.86 188.64 59.67 184.41C58.75 182.66 59.32 181.29 60.41 175.85C61.54 170.18 63.28 161.44 63.12 155.65C62.77 142.76 52.87 140.63 54.32 131.1C54.71 128.56 55.79 126.35 57.14 124.46C69.41 130.89 76.76 146.85 74.12 154.51L74.12 154.51Z" fill="url(#paint_linear_12_2409_0)" fill-opacity="1.000000" fill-rule="nonzero"/>
		</g>
		<path id="Vector" d="M66.82 137.89C69.01 133.46 70.82 126.53 68.72 115.85C49.02 122.11 37.85 139.94 40.52 155.03C42.72 167.47 53.67 174.36 56.12 175.82C56.82 174.46 57.52 173.1 58.22 171.75C55.54 168.07 52.6 162.72 53.52 156.97C54.78 149 62.4 146.88 66.82 137.89Z" fill="url(#paint_linear_12_2410_0)" fill-opacity="1.000000" fill-rule="nonzero"/>
		<path id="Vector" d="M84.11 105.93C84.11 105.93 83.7 109.41 82.46 111.94C81.34 114.22 76.29 115.29 75.26 115.74C74.22 116.18 76.97 117.96 79.83 118.51C82.69 119.05 90.98 119.06 92.55 118.04C94.12 117.02 91.44 116.88 89.44 115.92C87.44 114.96 86.57 110.65 87.08 108.78C87.59 106.9 84.11 105.93 84.11 105.93L84.11 105.93Z" fill="url(#paint_linear_12_2411_0)" fill-opacity="1.000000" fill-rule="nonzero"/>
		<path id="Vector" d="M88.77 105.05C90.39 103.64 90.61 103.48 90.81 102.96C91.63 100.88 90.27 97.83 88.25 96.94C88.15 96.89 86.79 96.31 86.21 96.9C85.72 97.4 86.33 98.19 85.93 99.2C85.56 100.14 84.75 100.15 83.17 101.29C81.87 102.23 81.06 102.81 80.81 103.71C80.31 105.56 82.28 108.47 84.21 108.56C84.91 108.59 85.12 108.24 88.77 105.05Z" fill="url(#paint_linear_12_2412_0)" fill-opacity="1.000000" fill-rule="nonzero"/>
		<path id="Vector" d="M84.38 108.87C84.38 108.87 85.82 110.88 88.29 110.46C90.51 110.09 90.35 104.84 88.83 103.88C88.32 103.55 87.36 103.5 86.6 103.8C86.16 103.98 86.02 104.19 85.29 104.47C84.62 104.73 84.42 104.67 84.22 104.87C83.98 105.13 83.85 105.71 84.42 107.19C83.95 106.78 83.43 106.66 83.08 106.88C83.03 106.91 82.89 107.04 82.82 107.21C82.56 107.84 83.15 108.54 84.38 108.87L84.38 108.87Z" fill="url(#paint_linear_12_2413_0)" fill-opacity="1.000000" fill-rule="nonzero"/>
		<path id="Vector" d="M53.52 177.28C53.52 177.28 51.16 177.98 50.91 181.54C51.29 181.52 52.19 181.54 52.19 181.54C52.19 181.54 52.03 178.95 53.71 178.45C53.57 178.14 53.52 177.29 53.52 177.29L53.52 177.28Z" fill="url(#paint_linear_12_2415_0)" fill-opacity="1.000000" fill-rule="nonzero"/>
		<path id="Vector" d="M62.2 177.07C62.14 177.72 62.08 178.37 62.02 179.02C60.85 178.73 59.58 178.39 58.2 178.33C56.41 178.25 54.78 178.43 53.32 178.74C53.25 178.66 53.12 178.46 53.05 178.14C52.95 177.62 53.12 177.19 53.15 177.12C53.9 176.88 54.7 176.68 55.57 176.54C58.04 176.15 60.28 176.54 62.2 177.07L62.2 177.07Z" fill="url(#paint_linear_12_2416_0)" fill-opacity="1.000000" fill-rule="nonzero"/>
		<path id="Vector" d="M62.31 177.63C62.3 177.4 62.29 177.11 62.2 177.07C62.12 177.04 62.01 177.25 61.96 177.37C61.94 177.42 61.89 177.54 61.87 177.92C61.83 178.41 61.87 178.64 61.91 178.79C61.93 178.88 61.97 179.02 62.02 179.02C62.06 179.02 62.1 178.94 62.15 178.77C62.23 178.55 62.32 178.18 62.31 177.64L62.31 177.63Z" fill="url(#paint_linear_12_2417_0)" fill-opacity="1.000000" fill-rule="nonzero"/>
		<path id="Vector" d="M64.46 181.74C63.97 181.82 62.78 182.07 62.78 182.07C62.78 182.07 63.56 179.79 62.09 178.74C62.06 178.57 62.02 178.29 62.06 177.96C62.1 177.71 62.17 177.51 62.24 177.36C62.86 177.69 64.21 178.77 64.46 181.74Z" fill="url(#paint_linear_12_2418_0)" fill-opacity="1.000000" fill-rule="nonzero"/>
		<path id="Vector" d="M74.6 182.34C74.6 182.34 74.54 181.14 72.49 181.14C72.17 181.36 72.16 182.34 72.16 182.34L74.6 182.34Z" fill="url(#paint_linear_12_2419_0)" fill-opacity="1.000000" fill-rule="nonzero"/>
		<path id="Vector" d="M76.41 205.9L70.82 209.06L67.43 197.46L73.01 181.91L74.6 182.34L77 204.68C77.05 205.19 76.82 205.68 76.41 205.91L76.41 205.9Z" fill="url(#paint_linear_12_2420_0)" fill-opacity="1.000000" fill-rule="nonzero"/>
		<g opacity="0.300000" style="mix-blend-mode:multiply">
			<path id="Vector" d="M67.43 197.46L73.01 181.91L74.6 182.34C74.21 183.71 74.02 185.95 73.93 187.19C73.56 192.49 72.31 193.96 72.92 197.66C73.42 200.73 74.51 201.15 74.41 203.21C74.31 205.46 72.9 207.35 71.23 208.83L70.82 209.06L67.43 197.46L67.43 197.46Z" fill="url(#paint_linear_12_2421_0)" fill-opacity="1.000000" fill-rule="nonzero"/>
		</g>
		<path id="Vector" d="M73.01 181.91L42.31 181.91L37.48 206.56L70.82 209.06L73.01 181.91Z" fill="url(#paint_linear_12_2422_0)" fill-opacity="1.000000" fill-rule="nonzero"/>
		<g opacity="0.200000" style="mix-blend-mode:multiply">
			<path id="Vector" d="M42.31 181.91L52.65 181.91C52.84 182.41 53.13 183.11 53.56 183.9C58.19 192.51 68.77 193.59 68.58 195.01C68.3 197.12 44.72 194.12 44.11 197.03C43.82 198.43 48.8 201.62 54.01 202.82C60.24 204.27 64.81 202.45 67.86 205.69C68.89 206.79 69.35 208.08 69.57 208.95L37.48 206.56L42.31 181.91L42.31 181.91Z" fill="url(#paint_linear_12_2424_0)" fill-opacity="1.000000" fill-rule="nonzero"/>
		</g>
		<path id="Vector" d="M72.49 181.14C72.84 181.14 73.32 181.1 73.85 181.39C73.96 181.45 74.06 181.52 74.15 181.59L73.9 181.51C73.51 181.4 72.98 181.54 72.78 181.91C72.53 182.35 72.44 183.39 72.39 183.91C72.23 185.37 71.29 194.46 71.29 194.46C71.22 195.23 70.6 195.81 69.86 195.79L41.3 194.41C41.09 194.4 40.87 194.34 40.69 194.21C40.32 193.94 40.15 193.48 40.24 193.04L41.68 182.21C41.8 181.59 42.33 181.14 42.94 181.14L72.49 181.14L72.49 181.14Z" fill="url(#paint_linear_12_2425_0)" fill-opacity="1.000000" fill-rule="nonzero"/>
		<path id="Vector" d="M72.19 181.14C72.53 181.14 72.94 181.1 73.4 181.21C73.52 181.24 73.72 181.3 73.81 181.37C73.81 181.37 72.84 181.15 72.47 181.91C72.25 182.37 72.14 183.39 72.08 183.91C71.93 185.37 70.99 194.46 70.99 194.46C70.92 195.23 70.29 195.81 69.56 195.79L40.67 195.21C40.46 195.21 40.24 195.15 40.06 195.02C39.69 194.75 39.52 194.29 39.61 193.85L41.38 182.21C41.5 181.59 42.02 181.14 42.63 181.14L72.19 181.14L72.19 181.14Z" fill="url(#paint_linear_12_2426_0)" fill-opacity="1.000000" fill-rule="nonzero"/>
		<g opacity="0.100000" style="mix-blend-mode:multiply">
			<path id="Vector" d="M39.61 193.85L41.38 182.21C41.5 181.59 42.02 181.14 42.63 181.14L72.19 181.14C72.53 181.14 72.94 181.1 73.4 181.21C73.52 181.24 73.72 181.3 73.81 181.37C73.81 181.37 72.84 181.15 72.47 181.91C72.44 181.98 72.4 182.07 72.37 182.17C69.57 182.27 66.76 182.19 63.95 182.36C58.4 182.69 52.79 182.69 47.56 184.77C45.88 185.44 44.73 187.83 45.19 188.94C45.52 189.74 46.64 189.67 47.03 190.72C47.44 191.82 46.45 192.57 46.87 193.34C47.3 194.15 48.61 193.77 50.74 194.35C51.91 194.66 52.81 195.13 53.37 195.47L40.67 195.21C40.46 195.21 40.24 195.15 40.06 195.02C39.69 194.75 39.52 194.29 39.61 193.85L39.61 193.85Z" fill="url(#paint_linear_12_2427_0)" fill-opacity="1.000000" fill-rule="nonzero"/>
		</g>
		<path id="Vector" d="M53.43 197.38L57.05 198.19L57.43 198.22C57.81 198.25 58.15 197.94 58.16 197.53L58.32 193.68C58.34 193.27 58.03 192.94 57.65 192.93L57.26 192.93L53.63 193.36C53.28 193.35 52.99 193.18 52.97 193.56L52.82 197.17C52.81 197.55 53.08 197.36 53.43 197.38L53.43 197.38Z" fill="url(#paint_linear_12_2429_0)" fill-opacity="1.000000" fill-rule="nonzero"/>
		<path id="Vector" d="M53.16 197.91L57.16 198.22C57.55 198.25 57.88 197.94 57.9 197.53L58.05 193.68C58.07 193.27 57.77 192.94 57.38 192.93L53.36 192.87C53.02 192.87 52.72 193.18 52.71 193.56L52.56 197.17C52.54 197.55 52.81 197.89 53.16 197.91L53.16 197.91Z" fill="url(#paint_linear_12_2430_0)" fill-opacity="1.000000" fill-rule="nonzero"/>
		<path id="Vector" d="M58.81 174.3C58.81 174.3 60.36 175.69 60.51 176.67C60.51 176.67 58.32 176.64 58.2 178.33C58.2 178.33 60.2 178.14 60.51 178.66C60.82 179.17 58.53 180.27 56.7 179.72C54.86 179.17 55.07 175.39 55.57 174.3C56.07 173.2 58.81 174.3 58.81 174.3L58.81 174.3Z" fill="url(#paint_linear_12_2431_0)" fill-opacity="1.000000" fill-rule="nonzero"/>
		<path id="Vector" d="M227.15 276.29C227.3 275.48 229.89 274.76 231.17 275.83C231.8 276.37 232.24 277.45 231.87 277.93C231.74 278.11 232.29 278.42 231.76 278.43C230.02 278.45 227.01 277.08 227.15 276.29L227.15 276.29Z" fill="url(#paint_linear_12_2433_0)" fill-opacity="1.000000" fill-rule="nonzero"/>
		<path id="Vector" d="M229.98 276.29L232.67 276.42C231.74 274.73 232.85 270.14 232.85 270.14L229.96 270.22C229.96 270.22 230.03 271.56 230.2 273.54C230.26 274.22 230.15 275.24 229.98 276.29L229.98 276.29Z" fill="url(#paint_linear_12_2434_0)" fill-opacity="1.000000" fill-rule="nonzero"/>
		<path id="Vector" d="M229.63 276.25C229.63 276.25 232.83 275.51 233.18 276.15C233.52 276.78 233.79 278.48 231.76 278.43C229.73 278.37 229.45 276.79 229.63 276.25Z" fill="url(#paint_linear_12_2435_0)" fill-opacity="1.000000" fill-rule="nonzero"/>
		<path id="Vector" d="M193.19 282.09C193.45 281.32 196.11 280.97 197.23 282.21C197.78 282.82 198.06 283.95 197.63 284.39C197.47 284.54 197.97 284.93 197.45 284.86C195.72 284.64 192.93 282.86 193.19 282.09Z" fill="url(#paint_linear_12_2436_0)" fill-opacity="1.000000" fill-rule="nonzero"/>
		<path id="Vector" d="M196.34 282.84L198.97 283.36C198.29 281.55 200.06 277.16 200.06 277.16L197.18 276.83C197.18 276.83 197.06 278.16 196.95 280.15C196.91 280.83 196.66 281.82 196.34 282.84L196.34 282.84Z" fill="url(#paint_linear_12_2437_0)" fill-opacity="1.000000" fill-rule="nonzero"/>
		<path id="Vector" d="M195.64 282.41C195.64 282.41 198.92 282.12 199.17 282.8C199.43 283.48 199.46 285.2 197.45 284.86C195.45 284.52 195.39 282.91 195.64 282.41L195.64 282.41Z" fill="url(#paint_linear_12_2438_0)" fill-opacity="1.000000" fill-rule="nonzero"/>
		<path id="Vector" d="M219.87 190.05C220.58 202.32 221.59 215.09 222.94 228.3C224.51 243.61 226.42 258.23 228.55 272.13C231.19 273.04 233.62 272.13 233.62 272.13C233.62 272.13 236.7 267.09 239.06 253.68C240.56 245.07 240.67 245.18 240.69 243.68C240.77 236.11 238.11 233.92 237.61 227.15C237.14 220.89 239.13 219.01 240.32 211.96C241.24 206.54 241.58 198.64 238.69 188.32C232.42 188.89 226.14 189.47 219.87 190.05L219.87 190.05Z" fill="url(#paint_linear_12_2439_0)" fill-opacity="1.000000" fill-rule="nonzero"/>
		<g opacity="0.300000" style="mix-blend-mode:multiply">
			<path id="Vector" d="M219.87 190.05C220.58 202.32 221.59 215.09 222.94 228.3C224.51 243.61 226.42 258.23 228.55 272.13C231.19 273.04 233.62 272.13 233.62 272.13C233.59 270.85 233.5 268.91 233.23 266.57C232.52 260.35 231.38 258.59 231.27 254.77C231.12 249.9 232.88 249.75 233.23 244.95C233.77 237.51 229.69 235.74 229.3 229.23C228.89 222.35 233.21 220.08 236.51 211.54C238.46 206.51 240.19 198.94 238.69 188.32C232.42 188.9 226.14 189.47 219.87 190.05L219.87 190.05Z" fill="url(#paint_linear_12_2440_0)" fill-opacity="1.000000" fill-rule="nonzero"/>
		</g>
		<path id="Vector" d="M206.65 189.66C203.04 201.81 199.55 216.91 197.6 234.45C195.71 251.48 195.74 266.6 196.51 279.05C197.66 279.37 198.8 279.69 199.95 280.01C206.62 273.04 209 266.63 209.91 261.94C211.25 255.02 209.23 252.67 210.99 244.83C211.4 243.03 211.97 241.1 218.6 228.11C224.92 215.71 226.22 213.91 227.29 209.46C228.82 203.11 228.41 197.47 227.83 193.7C220.77 192.35 213.71 191.01 206.65 189.66L206.65 189.66Z" fill="url(#paint_linear_12_2441_0)" fill-opacity="1.000000" fill-rule="nonzero"/>
		<path id="Vector" d="M152.51 151.91L149.94 150.1L146.17 149.19C145.66 149.07 145.19 148.82 144.79 148.47C144.79 148.47 143.38 144.81 143.54 144.23C143.69 143.64 148.49 145.58 148.53 146.15C148.57 146.73 151.47 148.46 151.46 148.99L153.08 150.24L152.51 151.91L152.51 151.91Z" fill="url(#paint_linear_12_2442_0)" fill-opacity="1.000000" fill-rule="nonzero"/>
		<path id="Vector" d="M189.45 134.96C191.14 130.82 194.77 128.45 196.65 127.22C201.1 124.3 203.94 124.83 214.16 123.28C227.78 121.21 229.41 119.24 233.99 120.83C240 122.92 243.14 128.38 244.58 130.88C251.83 143.49 243.35 149.9 245.53 175.01C246.42 185.27 248.7 194.18 243.22 199.45C242.07 200.56 240.78 201.14 238.2 202.3C227.96 206.91 218.79 206.11 213.21 205.56C207.08 204.95 203.98 204.6 202.35 202.44C199.75 198.98 202.43 194.57 202.89 186.96C203.23 181.49 201.98 177.16 199.5 168.49C193.72 148.35 186.21 142.87 189.45 134.95L189.45 134.96Z" fill="url(#paint_linear_12_2443_0)" fill-opacity="1.000000" fill-rule="nonzero"/>
		<path id="Vector" d="M212.24 115.85C211.62 113.64 212.71 111.59 212.95 111.15C213.95 109.31 214.2 109.05 214.68 108.74L215.34 108.33C215.34 108.33 215.38 108.31 215.42 108.3C215.85 108.14 217.3 108.1 217.59 108.16C218.53 108.36 219.53 112.19 219.25 117.6C219.28 117.8 219.32 118.01 219.36 118.22C219.51 119.07 219.62 119.91 219.71 120.73C219.8 121.51 220.91 121.49 221.7 121.44C224.89 121.24 226.45 121.51 226.59 121.99C226.84 122.88 223.06 125.79 218.38 126.44C212.11 126.49 207.01 125.82 207.56 124.84C207.8 124.4 212.66 123.13 214.03 121.87C215.28 120.72 215.18 119.53 215.28 118.67C214.9 118.48 212.7 117.47 212.24 115.85L212.24 115.85Z" fill="url(#paint_linear_12_2446_0)" fill-opacity="1.000000" fill-rule="nonzero"/>
		<path id="Vector" d="M213.4 106.79C213.4 108.46 214.19 110.25 214.59 110.54C214.65 110.58 214.94 110.81 215.2 111.21C215.24 111.26 215.27 111.32 215.3 111.4C215.66 112.46 213.99 113.7 214.31 114.17C214.54 114.52 215.68 114.06 215.82 114.35C215.95 114.63 215 115.21 215.15 115.54C215.26 115.8 215.84 115.57 216.21 115.95C216.39 116.14 216.34 116.3 216.53 116.88C216.64 117.22 216.79 117.58 216.91 117.78C217.49 118.77 219.13 119.13 219.45 118.73C219.54 118.62 219.46 118.53 219.55 118.16C219.55 118.16 219.63 117.82 219.87 117.43C220.21 116.86 221.03 116.46 221.85 115.86C223.39 114.76 223.8 113.82 223.93 113.51C223.97 113.39 224 113.31 224.02 113.25C224.41 112.01 224.42 110.2 223.86 109.08C222.93 107.21 220.83 108.1 219.12 106.25C217.13 104.11 218.31 101.19 217.24 100.87C216.05 100.52 213.39 103.69 213.4 106.79L213.4 106.79Z" fill="#26264F" fill-opacity="1.000000" fill-rule="nonzero"/>
		<path id="Vector" d="M214.91 113.78C215.32 113.22 216.04 113.75 216.05 114.48C216.05 115.21 215.35 115.96 214.66 115.82C213.97 115.68 214.36 114.54 214.91 113.78L214.91 113.78Z" fill="url(#paint_linear_12_2448_0)" fill-opacity="1.000000" fill-rule="nonzero"/>
		<path id="Vector" d="M215.24 112.56L214.29 113.8C214.29 113.8 213.26 115.32 212.66 114.48C212.17 113.8 212.05 113.82 212.02 113.85C212.01 113.85 212.01 113.86 212.01 113.86C212 113.86 212.08 113.52 212.15 113.23C211.9 113.59 211.55 114.18 211.34 114.98C211.13 115.75 210.91 116.57 211.35 117.37C211.37 117.41 211.85 118.26 212.75 118.46C212.75 118.46 213.1 118.54 214.59 118.28C214.59 118.28 212.96 117.1 212.94 116.82C212.87 116.06 213.93 115.65 214.71 114.08C215.02 113.48 215.16 112.93 215.24 112.56Z" fill="#26264F" fill-opacity="1.000000" fill-rule="nonzero"/>
		<g opacity="0.100000" style="mix-blend-mode:multiply">
			<path id="Vector" d="M218.51 198.36C216.7 194.77 221.12 189.99 218.24 184.51C215.78 179.86 211.32 180.9 209.27 176.64C206.8 171.49 212.18 167.64 211.99 159.8C211.76 150.44 203.7 141.06 198.95 141.88C195.88 142.41 195.49 146.99 193.33 152C195.24 156.19 197.48 161.44 199.5 168.49C201.98 177.16 203.23 181.49 202.89 186.96C202.43 194.57 199.75 198.98 202.35 202.44C203.98 204.6 207.08 204.95 213.21 205.56C218.79 206.11 227.96 206.91 238.19 202.3C239.49 201.72 240.46 201.28 241.25 200.85C225.26 203.25 219.94 201.22 218.51 198.36L218.51 198.36Z" fill="url(#paint_linear_12_2450_0)" fill-opacity="1.000000" fill-rule="nonzero"/>
		</g>
		<path id="Vector" d="M150.97 151.92C151.63 151.07 152.28 150.22 152.94 149.37C169.43 154.31 176.75 151.93 180.33 148.53C182.03 146.92 183.61 144.39 185.51 141.34C189.76 134.53 190.88 130.05 195.56 128.03C196.75 127.52 197.56 127.18 198.55 127.42C203.07 128.52 204.57 140.32 203.3 149.14C202.6 154.01 201 163.85 193.18 168.49C182.3 174.95 167.89 166.21 163.78 163.72C157.49 159.9 153.39 155.21 150.97 151.92L150.97 151.92Z" fill="url(#paint_linear_12_2451_0)" fill-opacity="1.000000" fill-rule="nonzero"/>
	</g>
</svg>
