<svg width="17.000000" height="16.000000" viewBox="0 0 17 16" fill="none" xmlns="http://www.w3.org/2000/svg" xmlns:xlink="http://www.w3.org/1999/xlink">
	<desc>
			Created with Pixso.
	</desc>
	<defs/>
	<path id="Vector" d="M17 9.81L17 16L13.35 16L13.35 10.22C13.35 8.77 12.82 7.78 11.51 7.78C10.5 7.78 9.9 8.45 9.64 9.09C9.54 9.32 9.52 9.64 9.52 9.97L9.52 16L5.87 16C5.87 16 5.92 6.21 5.87 5.2L9.51 5.2L9.51 6.73L9.49 6.76L9.51 6.76L9.51 6.73C10 6 10.86 4.95 12.8 4.95C15.2 4.95 17 6.49 17 9.81ZM2.06 0C0.81 0 0 0.8 0 1.86C0 2.89 0.79 3.73 2.01 3.73L2.03 3.73C3.3 3.73 4.09 2.89 4.09 1.86C4.07 0.8 3.3 0 2.06 0ZM0.21 16L3.86 16L3.86 5.2L0.21 5.2L0.21 16Z" fill="#191B1E" fill-opacity="1.000000" fill-rule="nonzero"/>
</svg>
